<svg enable-background="new 0 0 64 64" height="512" viewBox="0 0 64 64" width="512" xmlns="http://www.w3.org/2000/svg"><g id="Icons"><g><g><path d="m6 54h52c1.105 0 2-.895 2-2v-36c0-1.105-.895-2-2-2h-52c-1.105 0-2 .895-2 2v36c0 1.105.895 2 2 2z" fill="#0a5078"/></g><g><path d="m9 50h46c.552 0 1-.448 1-1v-30c0-.552-.448-1-1-1h-46c-.552 0-1 .448-1 1v30c0 .552.448 1 1 1z" fill="#00a0c8"/></g><g><path d="m53 25c.552 0 1-.448 1-1s-.448-1-1-1h-5v-4h5c.552 0 1-.448 1-1s-.448-1-1-1h-5c0-3.314-2.686-6-6-6v-5c0-.552-.448-1-1-1s-1 .448-1 1v5h-4v-5c0-.552-.448-1-1-1s-1 .448-1 1v5h-4v-5c0-.552-.448-1-1-1s-1 .448-1 1v5h-4v-5c0-.552-.448-1-1-1s-1 .448-1 1v5c-3.314 0-6 2.686-6 6h-5c-.552 0-1 .448-1 1s.448 1 1 1h5v4h-5c-.552 0-1 .448-1 1s.448 1 1 1h5v4h-5c-.552 0-1 .448-1 1s.448 1 1 1h5v4h-5c-.552 0-1 .448-1 1s.448 1 1 1h5c0 3.314 2.686 6 6 6v5c0 .552.448 1 1 1s1-.448 1-1v-5h4v5c0 .552.448 1 1 1s1-.448 1-1v-5h4v5c0 .552.448 1 1 1s1-.448 1-1v-5h4v5c0 .552.448 1 1 1s1-.448 1-1v-5c3.314 0 6-2.686 6-6h5c.552 0 1-.448 1-1s-.448-1-1-1h-5v-4h5c.552 0 1-.448 1-1s-.448-1-1-1h-5v-4z" fill="#0082aa"/></g><g><path d="m28 54h8v4h-8z" fill="#0a5078" transform="matrix(-1 0 0 -1 64 112)"/></g><g><path d="m20 60h24c0-1.105-.895-2-2-2h-20c-1.105 0-2 .895-2 2z" fill="#0a5078"/></g><g><path d="m28 54h8v1h-8z" fill="#00325a" transform="matrix(-1 0 0 -1 64 109)"/></g><g><g><path d="m42 42h-20c-3.314 0-6-2.686-6-6v-20c0-3.314 2.686-6 6-6h20c3.314 0 6 2.686 6 6v20c0 3.314-2.686 6-6 6z" fill="#0a5078"/></g><g><path d="m42 39h-20c-1.105 0-2-.895-2-2v-20c0-1.105.895-2 2-2h20c1.105 0 2 .895 2 2v20c0 1.105-.895 2-2 2z" fill="#00325a"/></g><g><path d="m42 38h-20c-1.105 0-2-.895-2-2v-20c0-1.105.895-2 2-2h20c1.105 0 2 .895 2 2v20c0 1.105-.895 2-2 2z" fill="#dc9600"/></g><g><path d="m24 33v-14c0-.552.448-1 1-1h14c.552 0 1 .448 1 1v14c0 .552-.448 1-1 1h-14c-.552 0-1-.448-1-1z" fill="#fab400"/></g><g><path d="m23 4c-.552 0-1 .448-1 1v5h2v-5c0-.552-.448-1-1-1z" fill="#fab400"/></g><g><path d="m22 9h2v1h-2z" fill="#dc9600"/></g><g><path d="m29 4c-.552 0-1 .448-1 1v5h2v-5c0-.552-.448-1-1-1z" fill="#fab400"/></g><g><path d="m28 9h2v1h-2z" fill="#dc9600"/></g><g><path d="m35 4c-.552 0-1 .448-1 1v5h2v-5c0-.552-.448-1-1-1z" fill="#fab400"/></g><g><path d="m34 9h2v1h-2z" fill="#dc9600"/></g><g><path d="m41 4c-.552 0-1 .448-1 1v5h2v-5c0-.552-.448-1-1-1z" fill="#fab400"/></g><g><path d="m40 9h2v1h-2z" fill="#dc9600"/></g><g><path d="m23 48c-.552 0-1-.448-1-1v-5h2v5c0 .552-.448 1-1 1z" fill="#fab400"/></g><g><path d="m22 42h2v1h-2z" fill="#dc9600"/></g><g><path d="m29 48c-.552 0-1-.448-1-1v-5h2v5c0 .552-.448 1-1 1z" fill="#fab400"/></g><g><path d="m28 42h2v1h-2z" fill="#dc9600"/></g><g><path d="m35 48c-.552 0-1-.448-1-1v-5h2v5c0 .552-.448 1-1 1z" fill="#fab400"/></g><g><path d="m34 42h2v1h-2z" fill="#dc9600"/></g><g><path d="m41 48c-.552 0-1-.448-1-1v-5h2v5c0 .552-.448 1-1 1z" fill="#fab400"/></g><g><path d="m40 42h2v1h-2z" fill="#dc9600"/></g><g><path d="m10 35c0 .552.448 1 1 1h5v-2h-5c-.552 0-1 .448-1 1z" fill="#fab400"/></g><g><path d="m14.5 34.5h2v1h-2z" fill="#dc9600" transform="matrix(0 -1 1 0 -19.5 50.5)"/></g><g><path d="m10 29c0 .552.448 1 1 1h5v-2h-5c-.552 0-1 .448-1 1z" fill="#fab400"/></g><g><path d="m14.5 28.5h2v1h-2z" fill="#dc9600" transform="matrix(0 -1 1 0 -13.5 44.5)"/></g><g><path d="m10 23c0 .552.448 1 1 1h5v-2h-5c-.552 0-1 .448-1 1z" fill="#fab400"/></g><g><path d="m14.5 22.5h2v1h-2z" fill="#dc9600" transform="matrix(0 -1 1 0 -7.5 38.5)"/></g><g><path d="m10 17c0 .552.448 1 1 1h5v-2h-5c-.552 0-1 .448-1 1z" fill="#fab400"/></g><g><path d="m14.5 16.5h2v1h-2z" fill="#dc9600" transform="matrix(0 -1 1 0 -1.5 32.5)"/></g><g><path d="m54 35c0 .552-.448 1-1 1h-5v-2h5c.552 0 1 .448 1 1z" fill="#fab400"/></g><g><path d="m47.5 34.5h2v1h-2z" fill="#dc9600" transform="matrix(0 -1 1 0 13.5 83.5)"/></g><g><path d="m54 29c0 .552-.448 1-1 1h-5v-2h5c.552 0 1 .448 1 1z" fill="#fab400"/></g><g><path d="m47.5 28.5h2v1h-2z" fill="#dc9600" transform="matrix(0 -1 1 0 19.5 77.5)"/></g><g><path d="m54 23c0 .552-.448 1-1 1h-5v-2h5c.552 0 1 .448 1 1z" fill="#fab400"/></g><g><path d="m47.5 22.5h2v1h-2z" fill="#dc9600" transform="matrix(0 -1 1 0 25.5 71.5)"/></g><g><path d="m54 17c0 .552-.448 1-1 1h-5v-2h5c.552 0 1 .448 1 1z" fill="#fab400"/></g><g><path d="m47.5 16.5h2v1h-2z" fill="#dc9600" transform="matrix(0 -1 1 0 31.5 65.5)"/></g></g><g fill="#c80a50"><path d="m30.941 18.664c-.141-.398-.518-.664-.941-.664s-.8.266-.941.664l-5 14c-.187.52.085 1.092.605 1.277.517.188 1.092-.086 1.277-.605l1.192-3.336h5.734l1.192 3.336c.145.409.53.664.941.664.111 0 .226-.019.336-.059.521-.186.792-.758.605-1.277zm-3.094 9.336 2.153-6.026 2.153 6.026z"/><path d="m39 18c-.553 0-1 .447-1 1v14c0 .553.447 1 1 1s1-.447 1-1v-14c0-.553-.447-1-1-1z"/></g></g></g></svg>