<svg id="Capa_1" enable-background="new 0 0 516.021 516.021" height="512" viewBox="0 0 516.021 516.021" width="512" xmlns="http://www.w3.org/2000/svg"><g><g><path d="m455.521 103.911c-2.44-3.12-7.08-3.38-9.88-.57l-21.95 21.95-9.621 48.342-77.666 170.649-211.113 79.409-21.95 21.95c-2.81 2.8-2.55 7.44.57 9.88 42.5 33.21 95.99 53 154.1 53 138.51 0 250.51-112 250.51-250.51 0-58.11-19.79-111.6-53-154.1z" fill="#fcf0b6"/><path d="m423.691 125.291-70.07 70.07-6.562 14.363-39.881 42.896-14.964 8.18-7.924 3.89-72.99 72.99c0 .001 1.533 7.615 1.254 7.521s-18.709 21.036-18.709 21.036l-12.566 6.143-7.719 3.04-48.27 48.27c36.35 29.16 82.49 46.61 132.72 46.61 117.25 0 212.29-95.04 212.29-212.29.001-50.229-17.449-96.369-46.609-132.719z" fill="#f5c374"/><path d="m411.531 60.041c-42.4-32.93-95.67-52.54-153.52-52.54-138.3 0-250.51 112.21-250.51 250.51 0 57.85 19.61 111.12 52.54 153.52 2.44 3.14 7.09 3.4 9.9.6l21.95-21.94-.01-.01-9.497-59.867 4.259-97.876 145.778-140.547h157.77l21.94-21.95c2.8-2.81 2.54-7.46-.6-9.9z" fill="#fcf0b6"/><path d="m390.181 91.881c-36.27-28.89-82.2-46.16-132.17-46.16-117.25 0-212.29 95.04-212.29 212.29 0 49.97 17.27 95.9 46.16 132.17l.01.01 77.84-77.84 10.757-31.16 57.064-47.389 14.52-3.792 49.091-49.091-.012-.008-.303-3.793-.654-7.582 16.733-15.425 11.683-.639 61.581-61.581z" fill="#f5c374"/><g><g><g fill="#fbe88c"><path d="m82.384 330.314 3.211-73.804c.083-5.469.311-10.903.709-16.291l.339-7.781.384-.37c10.501-101.283 75.975-186.247 166.073-224.516-136.034 2.62-245.6 113.801-245.6 250.459 0 57.85 19.61 111.12 52.54 153.52 2.44 3.14 7.09 3.4 9.9.6l21.95-21.94-.01-.01z"/><path d="m136.068 419.637-10.777 4.054-21.95 21.95c-2.81 2.8-2.55 7.44.57 9.88 38.016 29.706 84.829 48.662 135.872 52.333-41.529-20.328-77.184-50.806-103.715-88.217z"/></g><g><g id="XMLID_161_"><g><path d="m328.611 153.471-27.45 27.45-.01-.01c-3.14-1.37-6.6-2.14-10.24-2.14h-83.44v51.23l44.6.01-82.34 82.34-.01-133.58h-33.49v-37.75h49.47v-29.81c0-1.38 1.11-2.5 2.49-2.5h27.92c1.37 0 2.49 1.12 2.49 2.5v29.81h39.3v-29.81c0-1.38 1.12-2.5 2.49-2.5h27.92c1.38 0 2.49 1.12 2.49 2.5v29.81h.11c14.12 0 27.16 4.63 37.69 12.44z" fill="#fcf0b6"/></g></g><g id="XMLID_163_"><g><path d="m369.751 265.331c5.88 10.62 9.23 22.84 9.23 35.85 0 41-33.24 74.24-74.24 74.24h-13.94v30.57c0 1.38-1.11 2.49-2.49 2.49h-27.92c-1.37 0-2.49-1.11-2.49-2.49v-30.57h-39.3v30.57c0 1.38-1.12 2.49-2.49 2.49h-27.92c-1.38 0-2.49-1.11-2.49-2.49v-30.57h-12.14l37.74-37.74h93.44c20.13 0 36.5-16.37 36.5-36.5 0-20.12-16.37-36.49-36.5-36.49h-20.45l69.33-69.33c.42 2.95.65 5.96.65 9.03 0 12.1-3.41 23.41-9.3 33.02-.34.56-.18 1.27.36 1.63 10.13 6.63 18.54 15.66 24.42 26.29z" fill="#fcf0b6"/></g></g></g></g><g fill="#f3b658"><path d="m133.315 415.666-8.025 8.025c9.418 7.555 19.499 14.317 30.133 20.2-7.959-8.907-15.349-18.332-22.108-28.225z"/><path d="m85.542 260.756c0-75.66 30.564-144.177 80.011-193.894-70.926 34.368-119.832 107.042-119.832 191.149 0 49.97 17.27 95.9 46.16 132.17l.01.01 17.434-17.434c-15.278-34.212-23.783-72.112-23.783-112.001z"/></g></g></g><g><path d="m338.129 143.937c-2.885-2.884-7.529-2.922-10.467-.127-8.959-5.462-18.918-8.83-29.357-9.906v-22.698c0-5.509-4.482-9.991-9.991-9.991h-27.921c-5.509 0-9.991 4.482-9.991 9.991v22.319h-24.301v-22.319c0-5.509-4.482-9.991-9.991-9.991h-27.921c-5.509 0-9.991 4.482-9.991 9.991v22.319h-41.963c-4.142 0-7.5 3.358-7.5 7.5v37.746c0 4.142 3.358 7.5 7.5 7.5h25.99v122.964l-69.586 69.585c-24.858-33.906-38.438-73.905-39.37-116.21-.091-4.141-3.543-7.469-7.663-7.333-4.141.091-7.424 3.522-7.333 7.663 1.017 46.185 16.094 89.802 43.654 126.591l-16.591 16.591c-32.934-42.768-50.336-93.958-50.336-148.11 0-64.884 25.284-125.903 71.196-171.814 45.911-45.913 106.929-71.198 171.814-71.198 54.153 0 105.344 17.401 148.112 50.337l-16.589 16.589c-38.178-28.611-83.5-43.709-131.522-43.709-110.333.001-204.058 82.409-218.011 191.689-.525 4.108 2.381 7.865 6.49 8.389.322.042.643.062.959.062 3.719 0 6.947-2.765 7.43-6.551 13-101.812 100.328-178.587 203.132-178.587 44.017 0 85.597 13.613 120.799 39.431l-28.687 28.687c-2.929 2.929-2.929 7.678 0 10.606 2.93 2.929 7.678 2.929 10.607 0l56.698-56.699c2.869-2.868 4.369-6.836 4.115-10.886-.252-4.033-2.225-7.766-5.409-10.239-45.587-35.405-100.266-54.119-158.124-54.119-68.891 0-133.676 26.846-182.42 75.59-48.745 48.746-75.59 113.531-75.59 182.422 0 57.858 18.714 112.536 54.118 158.124 2.474 3.185 6.205 5.156 10.238 5.409.295.019.59.028.884.028 3.738 0 7.343-1.483 10.002-4.142l262.886-262.886c2.93-2.93 2.93-7.679.001-10.608zm-168.406 27.335h-25.99v-22.746h41.963c4.142 0 7.5-3.358 7.5-7.5v-24.811h17.904v24.811c0 4.142 3.358 7.5 7.5 7.5h39.301c4.143 0 7.5-3.358 7.5-7.5v-24.811h17.903v24.811c0 4.142 3.357 7.5 7.5 7.5h.105c9.086 0 17.841 2.157 25.741 6.281l-17.507 17.508c-2.677-.69-5.43-1.043-8.235-1.043h-83.438c-4.142 0-7.5 3.358-7.5 7.5v51.23c0 4.142 3.358 7.5 7.5 7.5h26.487l-56.733 56.733v-115.463c-.001-4.142-3.359-7.5-7.501-7.5zm79.233 51.231h-33.986v-36.23h70.217z"/><path d="m461.435 99.297c-2.479-3.171-6.209-5.132-10.234-5.377-4.037-.248-8.002 1.253-10.865 4.116l-342.3 342.3c-2.863 2.863-4.363 6.823-4.116 10.866.246 4.026 2.207 7.756 5.378 10.234 45.706 35.71 100.587 54.585 158.712 54.585h.001c68.991 0 133.811-26.819 182.501-75.509 48.692-48.693 75.509-113.507 75.509-182.502 0-58.124-18.875-113.006-54.586-158.713zm-120.207 146.017c18.945 12.398 30.256 33.285 30.256 55.87 0 36.8-29.939 66.739-66.739 66.739h-13.939c-4.143 0-7.5 3.358-7.5 7.5v25.562h-17.903v-25.562c0-4.142-3.357-7.5-7.5-7.5h-39.301c-4.142 0-7.5 3.358-7.5 7.5v25.562h-17.904v-25.562c0-2.463-1.193-4.642-3.027-6.01l24.236-24.236h90.338c24.258 0 43.993-19.735 43.993-43.993s-19.735-43.993-43.993-43.993h-2.352l43.613-43.613c-1.172 7.033-3.681 13.798-7.43 19.922-2.47 4.032-1.305 9.22 2.652 11.814zm-53.836 26.877h17.352c15.987 0 28.993 13.006 28.993 28.993s-13.006 28.993-28.993 28.993h-75.338zm142.513 157.715c-45.859 45.86-106.906 71.116-171.895 71.116-54.405 0-105.788-17.553-148.67-50.778l16.58-16.58c37.893 28.504 84.527 44.141 132.09 44.141 58.709 0 113.903-22.862 155.417-64.376 41.514-41.513 64.376-96.708 64.376-155.417 0-.389-.006-.777-.012-1.165l-.008-.65c-.034-4.121-3.386-7.438-7.499-7.438-.021 0-.042 0-.063 0-4.143.034-7.472 3.42-7.438 7.562l.01.751c.005.312.01.625.01.939 0 112.923-91.87 204.793-204.793 204.793-44.275 0-86.055-13.759-121.375-39.856l40.025-40.025h1.536v23.071c0 5.509 4.482 9.991 9.991 9.991h27.921c5.509 0 9.991-4.482 9.991-9.991v-23.071h24.301v23.071c0 5.509 4.482 9.991 9.991 9.991h27.921c5.509 0 9.991-4.482 9.991-9.991v-23.071h6.439c45.071 0 81.739-36.668 81.739-81.739 0-25.698-11.948-49.596-32.236-65.028 4.937-9.826 7.523-20.696 7.523-31.769 0-2.071-.106-4.172-.295-6.279l61.454-61.454c19.309 26.208 32.169 56.735 37.293 88.825.589 3.69 3.776 6.318 7.397 6.318.393 0 .791-.031 1.191-.095 4.091-.653 6.877-4.499 6.224-8.589-5.621-35.201-19.896-68.653-41.377-97.189l16.585-16.585c33.225 42.883 50.778 94.266 50.778 148.67.003 64.99-25.252 126.037-71.113 171.897z"/></g></g></svg>