<svg id="filloutline" height="512" viewBox="0 0 64 64" width="512" xmlns="http://www.w3.org/2000/svg"><path d="m43 15h18v38h-18z" fill="#3a5565"/><circle cx="52" cy="43" fill="#711018" r="2"/><path d="m47 19h10v8h-10z" fill="#cde2dd"/><path d="m49 30h2v2h-2z" fill="#ffd884"/><path d="m53 30h2v2h-2z" fill="#ffd884"/><path d="m46 53 3-4h6l3 4z" fill="#7c9faf"/><path d="m51 41v-30h-48v30h20v8h-5v4h18v-4h-5v-8z" fill="#7c9faf"/><path d="m3 11h48v26h-48z" fill="#2bb3ce"/><path d="m3 11h3v30h-3z" fill="#25909e"/><g fill="#fff"><path d="m18 20a2.8 2.8 0 0 1 2.343 1.515l1.715-1.03a4.81 4.81 0 0 0 -4.058-2.485c-2.757 0-5 2.691-5 6s2.243 6 5 6a4.81 4.81 0 0 0 4.058-2.485l-1.715-1.03a2.8 2.8 0 0 1 -2.343 1.515c-1.654 0-3-1.794-3-4s1.346-4 3-4z"/><path d="m28 21h-2v2h-2v2h2v2h2v-2h2v-2h-2z"/><path d="m38 23h-2v-2h-2v2h-2v2h2v2h2v-2h2z"/><path d="m33 49h3v4h-3z"/><path d="m28 41h3v8h-3z"/><path d="m48 11h3v30h-3z"/></g><path d="m61 14h-9v-3a1 1 0 0 0 -1-1h-48a1 1 0 0 0 -1 1v30a1 1 0 0 0 1 1h19v6h-4a1 1 0 0 0 -1 1v4a1 1 0 0 0 1 1h18a1 1 0 0 0 1-1v-4a1 1 0 0 0 -1-1h-4v-6h10v11a1 1 0 0 0 1 1h18a1 1 0 0 0 1-1v-38a1 1 0 0 0 -1-1zm-5 8h-4v-1.908h4zm0 2v2h-4v-2zm-4 18a1 1 0 1 1 -1 1 1 1 0 0 1 1-1zm-2-30v24h-46v-24zm-46 26h46v2h-46zm31 14h-16v-2h16zm-5-4h-6v-6h6zm18 4 1.5-2h5l1.5 2zm12 0h-1.5l-2.7-3.6a1 1 0 0 0 -.8-.4h-6a1 1 0 0 0 -.8.4l-2.7 3.6h-1.5v-10h5.184a2.966 2.966 0 0 0 -.184 1 3 3 0 1 0 3-3v-12h5a1 1 0 0 0 1-1v-7.908a1 1 0 0 0 -1-1h-5v-2.092h8z"/><path d="m53 30h2v2h-2z"/><path d="m18 30a4.81 4.81 0 0 0 4.058-2.485l-1.715-1.03a2.8 2.8 0 0 1 -2.343 1.515c-1.654 0-3-1.794-3-4s1.346-4 3-4a2.8 2.8 0 0 1 2.343 1.515l1.715-1.03a4.81 4.81 0 0 0 -4.058-2.485c-2.757 0-5 2.691-5 6s2.243 6 5 6z"/><path d="m26 27h2v-2h2v-2h-2v-2h-2v2h-2v2h2z"/><path d="m34 27h2v-2h2v-2h-2v-2h-2v2h-2v2h2z"/></svg>