<svg id="color_line" height="512" viewBox="0 0 74 74" width="512" xmlns="http://www.w3.org/2000/svg" data-name="color line"><path d="m70.624 21.046v42.729a4.978 4.978 0 0 1 -4.975 4.975h-54.927a4.978 4.978 0 0 1 -4.975-4.975v-42.729z" fill="#eeefee"/><path d="m30.591 25.372h13.607v8.042h-13.607z" fill="#fcd462"/><path d="m17.097 39.827h10.488v8.042h-10.488z" fill="#27ccbc"/><path d="m48.787 54.973h10.488v8.042h-10.488z" fill="#fcd462"/><path d="m50.347 40.492h7.367v7.367h-7.367z" fill="#89c5cd" transform="matrix(.707 -.707 .707 .707 -15.412 51.144)"/><circle cx="22.341" cy="58.994" fill="#fe7058" r="4.021"/><path d="m44.195 25.374v8.038h-2.108v-6.286h-11.495v-1.752z" fill="#f7be56"/><path d="m27.585 39.83v8.038h-1.864v-6.277h-8.628v-1.761z" fill="#21b3a9"/><path d="m59.279 54.969v8.048h-1.865v-6.277h-8.628v-1.771z" fill="#f7be56"/><path d="m59.241 44.177-5.209 5.208-.028-.028 3.804-3.803-5.181-5.181 1.405-1.405z" fill="#6eaaad"/><path d="m26.358 59a4.007 4.007 0 0 1 -2.042 3.494 3.968 3.968 0 0 0 .609-2.117 4.02 4.02 0 0 0 -4.019-4.028 3.972 3.972 0 0 0 -1.967.515 4.013 4.013 0 0 1 7.419 2.136z" fill="#ea6453"/><path d="m30.591 29.89h-6.225a.5.5 0 0 1 0-1h6.225a.5.5 0 0 1 0 1z" fill="#323c6b"/><path d="m22.344 40.325a.5.5 0 0 1 -.5-.5v-8.413a.5.5 0 0 1 1 0v8.413a.5.5 0 0 1 -.5.5z" fill="#323c6b"/><circle cx="37.755" cy="44.177" fill="#fe7058" r="2.022"/><path d="m37.755 46.7a2.522 2.522 0 1 1 2.522-2.522 2.525 2.525 0 0 1 -2.522 2.522zm0-4.045a1.522 1.522 0 1 0 1.522 1.522 1.524 1.524 0 0 0 -1.522-1.523z" fill="#323c6b"/><path d="m48.818 44.677h-9.04a.5.5 0 0 1 0-1h9.04a.5.5 0 0 1 0 1z" fill="#323c6b"/><path d="m37.755 42.654a.5.5 0 0 1 -.5-.5v-8.74a.5.5 0 0 1 1 0v8.74a.5.5 0 0 1 -.5.5z" fill="#323c6b"/><path d="m22.341 55.473a.5.5 0 0 1 -.5-.5v-7.1a.5.5 0 0 1 1 0v7.1a.5.5 0 0 1 -.5.5z" fill="#323c6b"/><path d="m35.372 59.491h-9.01a.5.5 0 0 1 0-1h9.01a.5.5 0 0 1 0 1z" fill="#323c6b"/><path d="m48.818 59.491h-9.4a.5.5 0 0 1 0-1h9.4a.5.5 0 0 1 0 1z" fill="#323c6b"/><path d="m54.03 55.473a.5.5 0 0 1 -.5-.5v-5.588a.5.5 0 0 1 1 0v5.588a.5.5 0 0 1 -.5.5z" fill="#323c6b"/><circle cx="37.394" cy="58.991" fill="#84879c" r="2.022"/><path d="m37.394 61.513a2.522 2.522 0 1 1 2.522-2.522 2.525 2.525 0 0 1 -2.522 2.522zm0-4.044a1.522 1.522 0 1 0 1.522 1.522 1.524 1.524 0 0 0 -1.522-1.522z" fill="#323c6b"/><circle cx="22.344" cy="29.391" fill="#84879c" r="2.022"/><path d="m22.344 31.912a2.519 2.519 0 1 1 2.522-2.522 2.525 2.525 0 0 1 -2.522 2.522zm0-4.038a1.519 1.519 0 1 0 1.522 1.516 1.521 1.521 0 0 0 -1.522-1.516z" fill="#323c6b"/><path d="m70.624 9.785v11.261h-64.877v-11.261a4.978 4.978 0 0 1 4.975-4.975h54.927a4.978 4.978 0 0 1 4.975 4.975z" fill="#fe7058"/><path d="m70.624 21.046v42.729a4.97 4.97 0 0 1 -4.787 4.965 4.906 4.906 0 0 0 1.546-3.588v-44.106z" fill="#e1e6e9"/><path d="m70.624 9.785v11.261h-3.242v-8.263a4.978 4.978 0 0 0 -4.975-4.975h-54.926a4.619 4.619 0 0 0 -1.4.206 4.954 4.954 0 0 1 4.637-3.2h54.931a4.978 4.978 0 0 1 4.975 4.971z" fill="#ea6453"/><circle cx="62.251" cy="12.928" fill="#eeefee" r="2.196"/><path d="m62.251 15.624a2.7 2.7 0 1 1 2.7-2.7 2.7 2.7 0 0 1 -2.7 2.7zm0-4.392a1.7 1.7 0 1 0 1.7 1.7 1.7 1.7 0 0 0 -1.7-1.7z" fill="#323c6b"/><circle cx="53.526" cy="12.928" fill="#eeefee" r="2.196"/><path d="m53.526 15.624a2.7 2.7 0 1 1 2.7-2.7 2.7 2.7 0 0 1 -2.7 2.7zm0-4.392a1.7 1.7 0 1 0 1.7 1.7 1.7 1.7 0 0 0 -1.7-1.7z" fill="#323c6b"/><circle cx="44.801" cy="12.928" fill="#eeefee" r="2.196"/><g fill="#323c6b"><path d="m44.8 15.624a2.7 2.7 0 1 1 2.7-2.7 2.7 2.7 0 0 1 -2.7 2.7zm0-4.392a1.7 1.7 0 1 0 1.7 1.7 1.7 1.7 0 0 0 -1.7-1.7z"/><path d="m36 13.428h-24.076a.5.5 0 0 1 0-1h24.076a.5.5 0 0 1 0 1z"/><path d="m65.649 69.25h-54.927a5.481 5.481 0 0 1 -5.475-5.475v-42.729a.5.5 0 0 1 .5-.5h64.877a.5.5 0 0 1 .5.5v42.729a5.481 5.481 0 0 1 -5.475 5.475zm-59.4-47.7v42.225a4.48 4.48 0 0 0 4.475 4.475h54.925a4.48 4.48 0 0 0 4.475-4.475v-42.229z"/><path d="m70.624 21.546h-64.876a.5.5 0 0 1 -.5-.5v-11.261a5.481 5.481 0 0 1 5.475-5.475h54.926a5.481 5.481 0 0 1 5.475 5.475v11.261a.5.5 0 0 1 -.5.5zm-64.376-1h63.876v-10.761a4.48 4.48 0 0 0 -4.475-4.475h-54.927a4.48 4.48 0 0 0 -4.474 4.475z"/><path d="m44.2 33.914h-13.609a.5.5 0 0 1 -.5-.5v-8.042a.5.5 0 0 1 .5-.5h13.609a.5.5 0 0 1 .5.5v8.042a.5.5 0 0 1 -.5.5zm-13.107-1h12.607v-7.042h-12.609z"/><path d="m27.584 48.37h-10.484a.5.5 0 0 1 -.5-.5v-8.042a.5.5 0 0 1 .5-.5h10.484a.5.5 0 0 1 .5.5v8.042a.5.5 0 0 1 -.5.5zm-9.988-1h9.488v-7.042h-9.484z"/><path d="m59.274 63.516h-10.487a.5.5 0 0 1 -.5-.5v-8.043a.5.5 0 0 1 .5-.5h10.487a.5.5 0 0 1 .5.5v8.042a.5.5 0 0 1 -.5.501zm-9.988-1h9.488v-7.043h-9.487z"/><path d="m54.03 49.885a.5.5 0 0 1 -.354-.146l-5.209-5.209a.5.5 0 0 1 0-.707l5.209-5.209a.5.5 0 0 1 .707 0l5.209 5.209a.5.5 0 0 1 0 .707l-5.209 5.209a.5.5 0 0 1 -.353.146zm-4.5-5.709 4.5 4.5 4.5-4.5-4.5-4.5z"/><path d="m22.341 63.516a4.521 4.521 0 1 1 4.521-4.521 4.527 4.527 0 0 1 -4.521 4.521zm0-8.042a3.521 3.521 0 1 0 3.521 3.521 3.525 3.525 0 0 0 -3.521-3.522z"/></g><path d="m28.555 18.218a.568.568 0 0 1 -.57.566l-8.108-.006a.568.568 0 1 1 0-1.136l8.108.006a.568.568 0 0 1 .57.57z" fill="#fff"/><path d="m30.951 18.224a.568.568 0 0 1 -.57.566h-.318a.568.568 0 0 1 0-1.136h.318a.569.569 0 0 1 .57.57z" fill="#fff"/><path d="m2.937 55.041a.5.5 0 0 1 -.5-.5v-.546a.5.5 0 0 1 1 0v.546a.5.5 0 0 1 -.5.5z" fill="#323c6b"/><path d="m2.937 52.465a.5.5 0 0 1 -.5-.5v-7.265a.5.5 0 0 1 1 0v7.26a.5.5 0 0 1 -.5.505z" fill="#323c6b"/><path d="m50.677 2.5h-.859a.5.5 0 0 1 0-1h.859a.5.5 0 0 1 0 1z" fill="#323c6b"/><path d="m62.153 2.5h-8.861a.5.5 0 0 1 0-1h8.861a.5.5 0 0 1 0 1z" fill="#323c6b"/></svg>