<svg id="color_line" height="512" viewBox="0 0 74 74" width="512" xmlns="http://www.w3.org/2000/svg" data-name="color line"><path d="m72.04 44.55v10.12a4.153 4.153 0 0 1 -4.15 4.15h-59.94a4.153 4.153 0 0 1 -4.15-4.15v-10.12z" fill="#9297ab"/><path d="m72.04 9.15v35.4h-68.24v-35.4a4.153 4.153 0 0 1 4.15-4.15h59.94a4.153 4.153 0 0 1 4.15 4.15z" fill="#eeefee"/><path d="m72.04 44.55v10.12a4.153 4.153 0 0 1 -4.15 4.15h-3.5a4.153 4.153 0 0 0 4.15-4.15v-10.12z" fill="#84879c"/><path d="m72.04 9.15v35.4h-3.5v-32.07a4.153 4.153 0 0 0 -4.15-4.15h-59.94a2.782 2.782 0 0 0 -.58.05 4.155 4.155 0 0 1 4.08-3.38h59.94a4.153 4.153 0 0 1 4.15 4.15z" fill="#e1e6e9"/><path d="m26.252 67.287 1.51-8.461h20.318l1.511 8.461z" fill="#bbbbcd"/><path d="m54.7 72.458h-33.557v-1.368a3.8 3.8 0 0 1 3.8-3.8h25.957a3.8 3.8 0 0 1 3.8 3.8z" fill="#9297ab"/><path d="m49.59 67.288h-2.52l-1.51-8.458h2.52z" fill="#9297ab"/><path d="m54.7 71.088v1.37h-2.52v-1.37a3.8 3.8 0 0 0 -3.8-3.8h2.52a3.8 3.8 0 0 1 3.8 3.8z" fill="#84879c"/><circle cx="37.921" cy="51.364" fill="#eeefee" r="2.083"/><path d="m37.921 53.947a2.583 2.583 0 1 1 2.579-2.583 2.586 2.586 0 0 1 -2.579 2.583zm0-4.166a1.583 1.583 0 1 0 1.579 1.583 1.585 1.585 0 0 0 -1.579-1.583z" fill="#323c6b"/><path d="m45.027 38.649a2.5 2.5 0 0 1 -2.5-2.5v-3.18a1.5 1.5 0 0 0 -.64-1.227 1.431 1.431 0 0 1 0-2.346 1.494 1.494 0 0 0 .641-1.227v-3.18a2.5 2.5 0 0 1 2.5-2.5.5.5 0 0 1 0 1 1.5 1.5 0 0 0 -1.5 1.5v3.18a2.5 2.5 0 0 1 -1.068 2.047.43.43 0 0 0 0 .7 2.5 2.5 0 0 1 1.068 2.048v3.18a1.5 1.5 0 0 0 1.5 1.5.5.5 0 0 1 0 1z" fill="#323c6b"/><path d="m61.531 38.649a.5.5 0 0 1 0-1 1.5 1.5 0 0 0 1.5-1.5v-3.18a2.5 2.5 0 0 1 1.069-2.044.431.431 0 0 0 0-.706 2.5 2.5 0 0 1 -1.067-2.047v-3.18a1.5 1.5 0 0 0 -1.5-1.5.5.5 0 0 1 0-1 2.5 2.5 0 0 1 2.5 2.5v3.18a1.5 1.5 0 0 0 .64 1.227 1.431 1.431 0 0 1 0 2.346 1.5 1.5 0 0 0 -.64 1.227v3.18a2.5 2.5 0 0 1 -2.502 2.497z" fill="#323c6b"/><path d="m48.59 31.072h-.67a.5.5 0 0 1 0-1h.67a.5.5 0 0 1 0 1z" fill="#323c6b"/><path d="m53.614 31.072h-.67a.5.5 0 0 1 0-1h.67a.5.5 0 0 1 0 1z" fill="#323c6b"/><path d="m58.638 31.072h-.67a.5.5 0 0 1 0-1h.67a.5.5 0 0 1 0 1z" fill="#323c6b"/><path d="m36.67 19.4v17.4a2.134 2.134 0 0 1 -2.13 2.14h-23.57a2.134 2.134 0 0 1 -2.13-2.14v-17.4z" fill="#fff"/><path d="m34.54 39.44h-23.57a2.639 2.639 0 0 1 -2.63-2.64v-17.4a.5.5 0 0 1 .5-.5h27.83a.5.5 0 0 1 .5.5v17.4a2.639 2.639 0 0 1 -2.63 2.64zm-25.2-19.54v16.9a1.637 1.637 0 0 0 1.63 1.64h23.57a1.637 1.637 0 0 0 1.63-1.64v-16.9z" fill="#323c6b"/><path d="m36.67 13.75v5.65h-27.83v-5.65a2.125 2.125 0 0 1 2.13-2.13h23.57a2.125 2.125 0 0 1 2.13 2.13z" fill="#fe7058"/><path d="m36.67 13.75v5.65h-2.08v-3.86a2.125 2.125 0 0 0 -2.13-2.13h-23.59a2.121 2.121 0 0 1 2.1-1.79h23.57a2.125 2.125 0 0 1 2.13 2.13z" fill="#ea6453"/><g fill="#323c6b"><path d="m13.489 15.978h-.407a.5.5 0 0 1 0-1h.407a.5.5 0 0 1 0 1z"/><path d="m16.949 15.978h-.407a.5.5 0 0 1 0-1h.407a.5.5 0 0 1 0 1z"/><path d="m20.409 15.978h-.409a.5.5 0 0 1 0-1h.408a.5.5 0 0 1 0 1z"/><path d="m33.144 15.978h-9.683a.5.5 0 0 1 0-1h9.683a.5.5 0 0 1 0 1z"/><path d="m17.129 31.941a.5.5 0 0 1 -.353-.147l-3-3a.5.5 0 0 1 0-.707l3-3a.5.5 0 0 1 .707.707l-2.648 2.646 2.648 2.647a.5.5 0 0 1 -.354.854z"/><path d="m28.378 31.941a.5.5 0 0 1 -.353-.854l2.647-2.647-2.647-2.648a.5.5 0 0 1 .707-.707l3 3a.5.5 0 0 1 0 .707l-3 3a.5.5 0 0 1 -.354.149z"/><path d="m20.194 33.5a.5.5 0 0 1 -.429-.756l5.118-8.6a.5.5 0 0 1 .86.512l-5.118 8.6a.5.5 0 0 1 -.431.244z"/><path d="m68.188 62.323h-11.063a.5.5 0 0 1 0-1h11.063a.5.5 0 0 1 0 1z"/><path d="m54.385 62.323h-.895a.5.5 0 0 1 0-1h.895a.5.5 0 0 1 0 1z"/><path d="m1.627 6.329a.487.487 0 0 1 -.227-.058.5.5 0 0 1 -.214-.671 7.633 7.633 0 0 1 6.768-4.1h1.234a.5.5 0 0 1 0 1h-1.234a6.638 6.638 0 0 0 -5.884 3.562.5.5 0 0 1 -.443.267z"/><path d="m12.563 2.5h-.875a.5.5 0 0 1 0-1h.875a.5.5 0 0 1 0 1z"/><path d="m67.89 59.32h-59.94a4.655 4.655 0 0 1 -4.65-4.65v-10.12a.5.5 0 0 1 .5-.5h68.24a.5.5 0 0 1 .5.5v10.12a4.655 4.655 0 0 1 -4.65 4.65zm-63.59-14.27v9.62a3.654 3.654 0 0 0 3.65 3.65h59.94a3.654 3.654 0 0 0 3.65-3.65v-9.62z"/><path d="m72.04 45.05h-68.24a.5.5 0 0 1 -.5-.5v-35.4a4.655 4.655 0 0 1 4.65-4.65h59.94a4.655 4.655 0 0 1 4.65 4.65v35.4a.5.5 0 0 1 -.5.5zm-67.74-1h67.24v-34.9a3.654 3.654 0 0 0 -3.65-3.65h-59.94a3.654 3.654 0 0 0 -3.65 3.65z"/><path d="m36.67 19.9h-27.83a.5.5 0 0 1 -.5-.5v-5.65a2.633 2.633 0 0 1 2.63-2.63h23.57a2.633 2.633 0 0 1 2.63 2.63v5.65a.5.5 0 0 1 -.5.5zm-27.33-1h26.83v-5.15a1.632 1.632 0 0 0 -1.63-1.63h-23.57a1.632 1.632 0 0 0 -1.63 1.63z"/><path d="m49.59 67.787h-23.338a.5.5 0 0 1 -.492-.588l1.51-8.461a.5.5 0 0 1 .492-.412h20.319a.5.5 0 0 1 .492.412l1.51 8.461a.5.5 0 0 1 -.493.588zm-22.741-1h22.144l-1.331-7.461h-19.481z"/><path d="m54.7 72.958h-33.557a.5.5 0 0 1 -.5-.5v-1.368a4.3 4.3 0 0 1 4.3-4.3h25.957a4.305 4.305 0 0 1 4.3 4.3v1.368a.5.5 0 0 1 -.5.5zm-33.057-1h32.557v-.868a3.3 3.3 0 0 0 -3.3-3.3h-25.957a3.3 3.3 0 0 0 -3.3 3.3z"/></g></svg>