<svg id="Capa_1" enable-background="new 0 0 512 512" height="512" viewBox="0 0 512 512" width="512" xmlns="http://www.w3.org/2000/svg"><g><g><path d="m368.462 153.178-141.575 81.738c-4.961 2.864-11.074 2.864-16.035 0l-187.348-108.166-19.124 5.421c-2.822 4.885-4.38 10.498-4.38 16.335v215.002c0 11.673 6.227 22.459 16.337 28.296l186.197 107.501c2.725 1.573 5.623 2.708 8.598 3.433l1.963-4.052h11.737l1.777 4.052c2.974-.725 5.873-1.86 8.598-3.433l144.714-83.551c.076-1.522.116-3.099.116-4.734v-231.756c0-10.053-4.295-19.487-11.575-26.086z" fill="#b3e59f"/><path d="m415.987 125.739-58.458 33.75c8.153 6.124 13.055 15.767 13.055 26.115v215.002c0 9.713-3.589 20.089-10.615 26.667l61.434-35.469c10.109-5.837 16.337-16.623 16.337-28.296v-215.002c0-5.837-1.558-11.451-4.38-16.335z" fill="#95d6a4"/><path d="m211.131 235.064v267.673c5.084 1.24 10.393 1.24 15.477 0v-267.672c-4.818 2.656-10.659 2.656-15.477-.001z" fill="#95d6a4"/><path d="m226.887 251.378 206.476-119.208c-2.82-4.885-6.905-9.041-11.959-11.959l-186.197-107.501c-10.109-5.837-22.564-5.837-32.673 0l-186.197 107.501c-5.055 2.918-9.139 7.074-11.959 11.959l206.476 119.209c4.96 2.864 11.072 2.864 16.033-.001z" fill="#78c2a4"/></g><g><g><path d="m452.963 355.789c0-52.697-32.445-97.802-78.443-116.47-3.223 2.041-5.368 5.629-5.368 9.725 0 4.926-3.13 9.318-7.796 10.894-4.292 1.449-8.455 3.179-12.468 5.167-4.421 2.191-9.747 1.309-13.236-2.18l-.003-.003c-4.497-4.497-11.787-4.497-16.284 0l-18.49 18.49c-4.497 4.497-4.497 11.787 0 16.284l.003.003c3.489 3.489 4.371 8.815 2.18 13.236-1.988 4.012-3.717 8.175-5.167 12.467-1.576 4.667-5.968 7.796-10.894 7.796-6.359 0-11.515 5.155-11.515 11.515v26.149c0 6.359 5.155 11.515 11.515 11.515 4.926 0 9.318 3.129 10.894 7.796 1.449 4.292 3.179 8.455 5.167 12.468 2.191 4.421 1.309 9.747-2.18 13.236l-.003.003c-4.497 4.497-4.497 11.787 0 16.284l18.49 18.49c4.497 4.497 11.787 4.497 16.284 0l.003-.003c3.489-3.489 8.815-4.37 13.236-2.18 4.012 1.988 8.175 3.717 12.468 5.167 4.667 1.576 7.796 5.968 7.796 10.894 0 1.159.172 2.277.491 3.331l12.515 2.993c41.91-20.368 70.805-63.337 70.805-113.067z" fill="#4073c8"/><g><g><circle cx="393.741" cy="355.789" fill="#f2f9ff" r="50.849"/></g></g><path d="m500.485 331.2c-4.926 0-9.318-3.13-10.894-7.796-1.449-4.292-3.179-8.455-5.167-12.468-2.191-4.421-1.309-9.747 2.18-13.236l.003-.003c4.497-4.497 4.497-11.787 0-16.284l-18.49-18.49c-4.497-4.497-11.787-4.497-16.284 0l-.003.003c-3.489 3.489-8.815 4.371-13.236 2.18-4.012-1.988-8.175-3.718-12.467-5.167-4.667-1.576-7.796-5.968-7.796-10.894 0-6.359-5.155-11.515-11.515-11.515h-26.149c-5.201 0-9.592 3.45-11.021 8.185 43.885 17.283 74.944 60.051 74.944 110.074s-31.059 92.792-74.944 110.074c1.429 4.735 5.82 8.185 11.021 8.185h26.149c6.359 0 11.515-5.155 11.515-11.515 0-4.926 3.129-9.318 7.796-10.894 4.292-1.449 8.455-3.179 12.467-5.167 4.422-2.191 9.747-1.309 13.236 2.18l.003.003c4.497 4.497 11.787 4.497 16.284 0l18.49-18.49c4.497-4.497 4.497-11.787 0-16.284l-.003-.003c-3.489-3.489-4.37-8.815-2.18-13.236 1.988-4.012 3.717-8.175 5.167-12.468 1.576-4.667 5.968-7.796 10.894-7.796 6.359 0 11.515-5.155 11.515-11.515v-26.149c0-6.359-5.155-11.514-11.515-11.514z" fill="#3b66c1"/></g></g><g><path d="m393.741 414.376c-32.305 0-58.587-26.282-58.587-58.587s26.282-58.587 58.587-58.587c32.306 0 58.588 26.282 58.588 58.587s-26.283 58.587-58.588 58.587zm0-101.697c-23.771 0-43.11 19.339-43.11 43.11s19.339 43.11 43.11 43.11 43.111-19.339 43.111-43.11-19.34-43.11-43.111-43.11z" fill="#bed8fb"/></g></g></svg>