<svg height="512" viewBox="0 0 512 512" width="512" xmlns="http://www.w3.org/2000/svg"><g id="FilledOutline"><path d="m342.86 472h-173.72l24-56 13.72-32h98.28l13.72 32z" fill="#abbac2"/><rect fill="#ccdce5" height="32" rx="16" width="272" x="120" y="456"/><path d="m318.86 416h-125.72l13.72-32h98.28z" fill="#798b9b"/><rect fill="#0093ba" height="312" rx="32" width="400" x="56" y="88"/><path d="m424 400h-336a32 32 0 0 1 -32-32v-32h400v32a32 32 0 0 1 -32 32z" fill="#ccdce5"/><path d="m466.617 119.6 19.236-16.5c-4.779-12.426-4.791-12.458-9.571-24.884l-25.332.646-14.468-15.218 1.938-25.266-24.363-10.829-17.457 18.37-21-.536-16.5-19.237-24.884 9.572.646 25.332-15.218 14.468-25.266-1.938c-5.407 12.166-5.421 12.2-10.829 24.363l18.37 17.456c-.214 8.382-.322 12.616-.536 21l-19.236 16.5c4.779 12.426 4.791 12.458 9.571 24.884l25.332-.646 14.468 15.226-1.938 25.266 24.363 10.829 17.456-18.37 21 .536 16.5 19.237 24.884-9.572-.646-25.332 15.226-14.468 25.266 1.938c5.407-12.166 5.421-12.2 10.829-24.363l-18.377-17.464c.219-8.381.319-12.615.536-21zm-65.048 54.075a48.941 48.941 0 1 1 28.11-63.248 48.941 48.941 0 0 1 -28.11 63.252z" fill="#ffc119"/><path d="m448 328h-384v-208a24.027 24.027 0 0 1 24-24h176v-16h-176a40.045 40.045 0 0 0 -40 40v248a40.045 40.045 0 0 0 40 40h99.868l-17.143 40h-34.725a24 24 0 0 0 0 48h240a24 24 0 0 0 0-48h-34.725l-17.143-40h99.868a40.045 40.045 0 0 0 40-40v-136h-16zm-64 144a8.009 8.009 0 0 1 -8 8h-240a8 8 0 0 1 0-16h240a8.009 8.009 0 0 1 8 8zm-60.132-24h-135.736l17.143-40h101.45zm100.132-56h-336a24.027 24.027 0 0 1 -24-24v-24h384v24a24.027 24.027 0 0 1 -24 24z"/><path d="m248 360h16v16h-16z"/><path d="m491.061 109.182a8 8 0 0 0 2.259-8.946l-9.571-24.884a8 8 0 0 0 -7.671-5.125l-21.778.555-9.569-10.071 1.669-21.721a8 8 0 0 0 -4.728-7.923l-24.366-10.828a8 8 0 0 0 -9.049 1.8l-15.006 15.792-13.889-.354-14.181-16.539a8 8 0 0 0 -8.944-2.258l-24.885 9.571a8 8 0 0 0 -5.125 7.671l.555 21.777-10.071 9.571-21.721-1.67a8 8 0 0 0 -7.923 4.727l-10.828 24.367a8 8 0 0 0 1.8 9.048l15.792 15.007-.355 13.889-16.537 14.18a8 8 0 0 0 -2.259 8.946l9.571 24.884a8.039 8.039 0 0 0 7.671 5.125l21.778-.555 9.569 10.071-1.669 21.721a8 8 0 0 0 4.728 7.923l24.363 10.828a8 8 0 0 0 9.049-1.8l15.006-15.792 13.889.354 14.181 16.539a8 8 0 0 0 8.944 2.258l24.885-9.571a8 8 0 0 0 5.125-7.671l-.555-21.777 10.071-9.571 21.724 1.67a8 8 0 0 0 7.923-4.727l10.828-24.363a8 8 0 0 0 -1.8-9.048l-15.792-15.007.355-13.889zm-30.491 37.218 14.277 13.568-6.247 14.044-19.636-1.506a7.982 7.982 0 0 0 -6.123 2.178l-15.226 14.467a8.006 8.006 0 0 0 -2.487 6l.5 19.688-14.346 5.518-12.82-14.951a8 8 0 0 0 -5.869-2.789l-21-.536c-.068 0-.136 0-.2 0a8 8 0 0 0 -5.8 2.489l-13.567 14.277-14.038-6.247 1.506-19.635a8 8 0 0 0 -2.177-6.123l-14.468-15.227a7.945 7.945 0 0 0 -6-2.486l-19.688.5-5.518-14.346 14.95-12.819a8 8 0 0 0 2.79-5.869l.537-21a8 8 0 0 0 -2.487-6l-14.28-13.562 6.247-14.045 19.636 1.506a8.019 8.019 0 0 0 6.123-2.178l15.226-14.467a8.006 8.006 0 0 0 2.487-6l-.5-19.688 14.346-5.518 12.82 14.951a8 8 0 0 0 5.862 2.786l21 .536a7.889 7.889 0 0 0 6-2.486l13.567-14.277 14.045 6.247-1.506 19.635a8 8 0 0 0 2.177 6.123l14.468 15.227a7.957 7.957 0 0 0 6 2.486l19.688-.5 5.518 14.346-14.947 12.813a8 8 0 0 0 -2.79 5.869l-.537 21a8 8 0 0 0 2.487 6.001z"/><path d="m363.559 74.854a56.941 56.941 0 1 0 73.587 32.705 57.007 57.007 0 0 0 -73.587-32.705zm35.141 91.358a40.942 40.942 0 1 1 23.512-52.912 40.988 40.988 0 0 1 -23.512 52.912z"/><path d="m125.657 170.343-18.344-18.343 18.344-18.343-11.314-11.314-24 24a8 8 0 0 0 0 11.314l24 24z"/><path d="m189.657 181.657 24-24a8 8 0 0 0 0-11.314l-24-24-11.314 11.314 18.344 18.343-18.344 18.343z"/><path d="m119.015 144h65.97v16h-65.97z" transform="matrix(.243 -.97 .97 .243 -32.327 262.596)"/><path d="m88 200h16v16h-16z"/><path d="m120 200h152v16h-152z"/><path d="m88 232h16v16h-16z"/><path d="m120 232h176v16h-176z"/><path d="m88 264h16v16h-16z"/><path d="m120 264h200v16h-200z"/><path d="m88 296h16v16h-16z"/><path d="m120 296h240v16h-240z"/><path d="m376 296h16v16h-16z"/><path d="m368 264h16v16h-16z"/><path d="m336 264h16v16h-16z"/><path d="m408 296h16v16h-16z"/></g></svg>