<svg xmlns="http://www.w3.org/2000/svg" xmlns:xlink="http://www.w3.org/1999/xlink" width="304" height="246" viewBox="0 0 304 246">
  <defs>
    <clipPath id="clip-path">
      <rect id="사각형_219" data-name="사각형 219" width="304" height="246" transform="translate(1449 392)" fill="#fff" stroke="#707070" stroke-width="1"/>
    </clipPath>
  </defs>
  <g id="마스크_그룹_2" data-name="마스크 그룹 2" transform="translate(-1449 -392)" clip-path="url(#clip-path)">
    <g id="undraw_developer_activity_bv83" transform="translate(1449 432.965)">
      <path id="패스_70" data-name="패스 70" d="M311.44,142.851a48.343,48.343,0,0,1-1.82,13.18A47.849,47.849,0,0,1,304.5,167.8c0,13.313-8.987,24.82-22.032,30.294a44.457,44.457,0,0,1-17.2,3.4H65.15a55.529,55.529,0,0,1-28.736-7.8,49.362,49.362,0,0,1-6.6-4.754c-9.035-7.765-14.637-18.5-14.637-30.347A48.106,48.106,0,0,1,35.489,88.7a46.374,46.374,0,0,1,6.779-2.424q1.23-.335,2.487-.6a46.606,46.606,0,0,1,6.779-.93q1.236-.077,2.485-.088h.457c.919,0,1.831.032,2.737.085l.3-.5q.547-.914,1.121-1.81,1.036-1.632,2.174-3.215,1.19-1.671,2.485-3.29l.221-.266q.733-.914,1.5-1.807,2.392-2.788,5.049-5.408C89.22,49.66,119.24,37.569,152.988,37.569c26.26,0,50.264,7.321,68.65,19.417a46.286,46.286,0,0,1,22.837-6c25.973,0,47.035,21.357,47.035,47.7a49.151,49.151,0,0,1-.266,4.99A47.832,47.832,0,0,1,311.44,142.851Z" transform="translate(-7.441 -37.559)" fill="#3c59fd" opacity="0.1"/>
      <path id="패스_71" data-name="패스 71" d="M70.063,68.432V73.84H65.014Q67.387,71.055,70.063,68.432Z" transform="translate(-7.441 -37.559)" fill="#3c59fd" opacity="0.2"/>
      <rect id="사각형_46" data-name="사각형 46" width="6.779" height="6.779" transform="translate(65.11 29.502)" fill="#3c59fd" opacity="0.2"/>
      <rect id="사각형_47" data-name="사각형 47" width="6.779" height="6.779" transform="translate(74.374 29.502)" fill="#3c59fd" opacity="0.2"/>
      <rect id="사각형_48" data-name="사각형 48" width="6.779" height="6.779" transform="translate(83.64 29.502)" fill="#3c59fd" opacity="0.2"/>
      <rect id="사각형_49" data-name="사각형 49" width="6.779" height="6.779" transform="translate(92.903 29.502)" fill="#3c59fd" opacity="0.2"/>
      <rect id="사각형_50" data-name="사각형 50" width="6.779" height="6.779" transform="translate(102.169 29.502)" fill="#3c59fd" opacity="0.2"/>
      <rect id="사각형_51" data-name="사각형 51" width="6.779" height="6.779" transform="translate(111.436 29.502)" fill="#3c59fd"/>
      <rect id="사각형_52" data-name="사각형 52" width="6.779" height="6.779" transform="translate(120.699 29.502)" fill="#3c59fd" opacity="0.2"/>
      <rect id="사각형_53" data-name="사각형 53" width="6.779" height="6.779" transform="translate(129.965 29.502)" fill="#3c59fd" opacity="0.2"/>
      <rect id="사각형_54" data-name="사각형 54" width="6.779" height="6.779" transform="translate(139.229 29.502)" fill="#3c59fd" opacity="0.2"/>
      <rect id="사각형_55" data-name="사각형 55" width="6.779" height="6.779" transform="translate(148.495 29.502)" fill="#3c59fd"/>
      <rect id="사각형_56" data-name="사각형 56" width="6.779" height="6.779" transform="translate(157.761 29.502)" fill="#3c59fd" opacity="0.2"/>
      <rect id="사각형_57" data-name="사각형 57" width="6.779" height="6.779" transform="translate(167.024 29.502)" fill="#3c59fd" opacity="0.2"/>
      <rect id="사각형_58" data-name="사각형 58" width="6.779" height="6.779" transform="translate(176.291 29.502)" fill="#3c59fd" opacity="0.2"/>
      <rect id="사각형_59" data-name="사각형 59" width="6.779" height="6.779" transform="translate(185.557 29.502)" fill="#3c59fd" opacity="0.2"/>
      <rect id="사각형_60" data-name="사각형 60" width="6.779" height="6.779" transform="translate(194.82 29.502)" fill="#3c59fd" opacity="0.2"/>
      <rect id="사각형_61" data-name="사각형 61" width="6.779" height="6.779" transform="translate(204.086 29.502)" fill="#3c59fd" opacity="0.2"/>
      <rect id="사각형_62" data-name="사각형 62" width="6.779" height="6.779" transform="translate(213.35 29.502)" fill="#3c59fd"/>
      <rect id="사각형_63" data-name="사각형 63" width="6.779" height="6.779" transform="translate(222.616 29.502)" fill="#3c59fd"/>
      <rect id="사각형_64" data-name="사각형 64" width="6.779" height="6.779" transform="translate(231.882 29.502)" fill="#3c59fd" opacity="0.2"/>
      <rect id="사각형_65" data-name="사각형 65" width="6.779" height="6.779" transform="translate(241.146 29.502)" fill="#3c59fd" opacity="0.2"/>
      <rect id="사각형_66" data-name="사각형 66" width="6.779" height="6.779" transform="translate(250.412 29.502)" fill="#3c59fd"/>
      <rect id="사각형_67" data-name="사각형 67" width="6.779" height="6.779" transform="translate(259.675 29.502)" fill="#3c59fd"/>
      <path id="패스_72" data-name="패스 72" d="M60.8,79.21v3.215H58.626Q59.663,80.783,60.8,79.21Z" transform="translate(-7.441 -37.559)" fill="#3c59fd"/>
      <rect id="사각형_68" data-name="사각형 68" width="6.779" height="6.779" transform="translate(55.844 38.088)" fill="#3c59fd" opacity="0.2"/>
      <rect id="사각형_69" data-name="사각형 69" width="6.779" height="6.779" transform="translate(65.11 38.088)" fill="#3c59fd"/>
      <rect id="사각형_70" data-name="사각형 70" width="6.779" height="6.779" transform="translate(74.374 38.088)" fill="#3c59fd" opacity="0.2"/>
      <rect id="사각형_71" data-name="사각형 71" width="6.779" height="6.779" transform="translate(83.64 38.088)" fill="#3c59fd" opacity="0.7"/>
      <rect id="사각형_72" data-name="사각형 72" width="6.779" height="6.779" transform="translate(92.903 38.088)" fill="#3c59fd" opacity="0.2"/>
      <rect id="사각형_73" data-name="사각형 73" width="6.779" height="6.779" transform="translate(102.169 38.088)" fill="#3c59fd" opacity="0.4"/>
      <rect id="사각형_74" data-name="사각형 74" width="6.779" height="6.779" transform="translate(111.436 38.088)" fill="#3c59fd"/>
      <rect id="사각형_75" data-name="사각형 75" width="6.779" height="6.779" transform="translate(120.699 38.088)" fill="#3c59fd" opacity="0.4"/>
      <rect id="사각형_76" data-name="사각형 76" width="6.779" height="6.779" transform="translate(129.965 38.088)" fill="#3c59fd" opacity="0.2"/>
      <rect id="사각형_77" data-name="사각형 77" width="6.779" height="6.779" transform="translate(139.229 38.088)" fill="#3c59fd" opacity="0.4"/>
      <rect id="사각형_78" data-name="사각형 78" width="6.779" height="6.779" transform="translate(148.495 38.088)" fill="#3c59fd"/>
      <rect id="사각형_79" data-name="사각형 79" width="6.779" height="6.779" transform="translate(157.761 38.088)" fill="#3c59fd" opacity="0.4"/>
      <rect id="사각형_80" data-name="사각형 80" width="6.779" height="6.779" transform="translate(167.024 38.088)" fill="#3c59fd" opacity="0.4"/>
      <rect id="사각형_81" data-name="사각형 81" width="6.779" height="6.779" transform="translate(176.291 38.088)" fill="#3c59fd" opacity="0.2"/>
      <rect id="사각형_82" data-name="사각형 82" width="6.779" height="6.779" transform="translate(185.557 38.088)" fill="#3c59fd" opacity="0.4"/>
      <rect id="사각형_83" data-name="사각형 83" width="6.779" height="6.779" transform="translate(194.82 38.088)" fill="#3c59fd" opacity="0.4"/>
      <rect id="사각형_84" data-name="사각형 84" width="6.779" height="6.779" transform="translate(204.086 38.088)" fill="#3c59fd" opacity="0.2"/>
      <rect id="사각형_85" data-name="사각형 85" width="6.779" height="6.779" transform="translate(213.35 38.088)" fill="#3c59fd" opacity="0.2"/>
      <rect id="사각형_86" data-name="사각형 86" width="6.779" height="6.779" transform="translate(222.616 38.088)" fill="#3c59fd" opacity="0.4"/>
      <rect id="사각형_87" data-name="사각형 87" width="6.779" height="6.779" transform="translate(231.882 38.088)" fill="#3c59fd" opacity="0.2"/>
      <rect id="사각형_88" data-name="사각형 88" width="6.779" height="6.779" transform="translate(241.146 38.088)" fill="#3c59fd"/>
      <rect id="사각형_89" data-name="사각형 89" width="6.779" height="6.779" transform="translate(250.412 38.088)" fill="#3c59fd"/>
      <rect id="사각형_90" data-name="사각형 90" width="6.779" height="6.779" transform="translate(259.675 38.088)" fill="#3c59fd"/>
      <path id="패스_73" data-name="패스 73" d="M42.268,86.276v4.738H35.489V88.7a46.377,46.377,0,0,1,6.779-2.423Z" transform="translate(-7.441 -37.559)" fill="#3c59fd" opacity="0.2"/>
      <path id="패스_74" data-name="패스 74" d="M44.093,47.186v6.269H37.314V48.116Z" fill="#3c59fd" opacity="0.2"/>
      <rect id="사각형_91" data-name="사각형 91" width="6.779" height="6.779" transform="translate(46.578 46.676)" fill="#3c59fd"/>
      <rect id="사각형_92" data-name="사각형 92" width="6.779" height="6.779" transform="translate(55.844 46.676)" fill="#3c59fd" opacity="0.7"/>
      <rect id="사각형_93" data-name="사각형 93" width="6.779" height="6.779" transform="translate(65.11 46.676)" fill="#3c59fd"/>
      <rect id="사각형_94" data-name="사각형 94" width="6.779" height="6.779" transform="translate(74.374 46.676)" fill="#3c59fd" opacity="0.7"/>
      <rect id="사각형_95" data-name="사각형 95" width="6.779" height="6.779" transform="translate(83.64 46.676)" fill="#3c59fd" opacity="0.7"/>
      <rect id="사각형_96" data-name="사각형 96" width="6.779" height="6.779" transform="translate(92.903 46.676)" fill="#3c59fd" opacity="0.2"/>
      <rect id="사각형_97" data-name="사각형 97" width="6.779" height="6.779" transform="translate(102.169 46.676)" fill="#3c59fd" opacity="0.4"/>
      <rect id="사각형_98" data-name="사각형 98" width="6.779" height="6.779" transform="translate(111.436 46.676)" fill="#3c59fd" opacity="0.4"/>
      <rect id="사각형_99" data-name="사각형 99" width="6.779" height="6.779" transform="translate(120.699 46.676)" fill="#3c59fd"/>
      <rect id="사각형_100" data-name="사각형 100" width="6.779" height="6.779" transform="translate(129.965 46.676)" fill="#3c59fd" opacity="0.2"/>
      <rect id="사각형_101" data-name="사각형 101" width="6.779" height="6.779" transform="translate(139.229 46.676)" fill="#3c59fd" opacity="0.4"/>
      <rect id="사각형_102" data-name="사각형 102" width="6.779" height="6.779" transform="translate(148.495 46.676)" fill="#3c59fd"/>
      <rect id="사각형_103" data-name="사각형 103" width="6.779" height="6.779" transform="translate(157.761 46.676)" fill="#3c59fd" opacity="0.2"/>
      <rect id="사각형_104" data-name="사각형 104" width="6.779" height="6.779" transform="translate(167.024 46.676)" fill="#3c59fd" opacity="0.4"/>
      <rect id="사각형_105" data-name="사각형 105" width="6.779" height="6.779" transform="translate(176.291 46.676)" fill="#3c59fd" opacity="0.2"/>
      <rect id="사각형_106" data-name="사각형 106" width="6.779" height="6.779" transform="translate(185.557 46.676)" fill="#3c59fd"/>
      <rect id="사각형_107" data-name="사각형 107" width="6.779" height="6.779" transform="translate(194.82 46.676)" fill="#3c59fd" opacity="0.2"/>
      <rect id="사각형_108" data-name="사각형 108" width="6.779" height="6.779" transform="translate(204.086 46.676)" fill="#3c59fd" opacity="0.7"/>
      <rect id="사각형_109" data-name="사각형 109" width="6.779" height="6.779" transform="translate(213.35 46.676)" fill="#3c59fd" opacity="0.7"/>
      <rect id="사각형_110" data-name="사각형 110" width="6.779" height="6.779" transform="translate(222.616 46.676)" fill="#3c59fd" opacity="0.4"/>
      <rect id="사각형_111" data-name="사각형 111" width="6.779" height="6.779" transform="translate(231.882 46.676)" fill="#3c59fd" opacity="0.2"/>
      <rect id="사각형_112" data-name="사각형 112" width="6.779" height="6.779" transform="translate(241.146 46.676)" fill="#3c59fd"/>
      <rect id="사각형_113" data-name="사각형 113" width="6.779" height="6.779" transform="translate(250.412 46.676)" fill="#3c59fd"/>
      <rect id="사각형_114" data-name="사각형 114" width="6.779" height="6.779" transform="translate(259.675 46.676)" fill="#3c59fd"/>
      <rect id="사각형_115" data-name="사각형 115" width="6.779" height="6.779" transform="translate(28.048 55.262)" fill="#3c59fd" opacity="0.2"/>
      <rect id="사각형_116" data-name="사각형 116" width="6.779" height="6.779" transform="translate(37.314 55.262)" fill="#3c59fd" opacity="0.2"/>
      <rect id="사각형_117" data-name="사각형 117" width="6.779" height="6.779" transform="translate(46.578 55.262)" fill="#3c59fd" opacity="0.2"/>
      <rect id="사각형_118" data-name="사각형 118" width="6.779" height="6.779" transform="translate(55.844 55.262)" fill="#3c59fd" opacity="0.2"/>
      <rect id="사각형_119" data-name="사각형 119" width="6.779" height="6.779" transform="translate(65.11 55.262)" fill="#3c59fd"/>
      <rect id="사각형_120" data-name="사각형 120" width="6.779" height="6.779" transform="translate(74.374 55.262)" fill="#3c59fd" opacity="0.7"/>
      <rect id="사각형_121" data-name="사각형 121" width="6.779" height="6.779" transform="translate(83.64 55.262)" fill="#3c59fd" opacity="0.7"/>
      <rect id="사각형_122" data-name="사각형 122" width="6.779" height="6.779" transform="translate(92.903 55.262)" fill="#3c59fd" opacity="0.2"/>
      <rect id="사각형_123" data-name="사각형 123" width="6.779" height="6.779" transform="translate(102.169 55.262)" fill="#3c59fd" opacity="0.2"/>
      <rect id="사각형_124" data-name="사각형 124" width="6.779" height="6.779" transform="translate(111.436 55.262)" fill="#3c59fd" opacity="0.4"/>
      <rect id="사각형_125" data-name="사각형 125" width="6.779" height="6.779" transform="translate(120.699 55.262)" fill="#3c59fd" opacity="0.4"/>
      <rect id="사각형_126" data-name="사각형 126" width="6.779" height="6.779" transform="translate(129.965 55.262)" fill="#3c59fd"/>
      <rect id="사각형_127" data-name="사각형 127" width="6.779" height="6.779" transform="translate(139.229 55.262)" fill="#3c59fd" opacity="0.2"/>
      <rect id="사각형_128" data-name="사각형 128" width="6.779" height="6.779" transform="translate(148.495 55.262)" fill="#3c59fd" opacity="0.4"/>
      <rect id="사각형_129" data-name="사각형 129" width="6.779" height="6.779" transform="translate(157.761 55.262)" fill="#3c59fd" opacity="0.4"/>
      <rect id="사각형_130" data-name="사각형 130" width="6.779" height="6.779" transform="translate(167.024 55.262)" fill="#3c59fd" opacity="0.4"/>
      <rect id="사각형_131" data-name="사각형 131" width="6.779" height="6.779" transform="translate(176.291 55.262)" fill="#3c59fd" opacity="0.4"/>
      <rect id="사각형_132" data-name="사각형 132" width="6.779" height="6.779" transform="translate(185.557 55.262)" fill="#3c59fd" opacity="0.2"/>
      <rect id="사각형_133" data-name="사각형 133" width="6.779" height="6.779" transform="translate(194.82 55.262)" fill="#3c59fd" opacity="0.2"/>
      <rect id="사각형_134" data-name="사각형 134" width="6.779" height="6.779" transform="translate(204.086 55.262)" fill="#3c59fd" opacity="0.2"/>
      <rect id="사각형_135" data-name="사각형 135" width="6.779" height="6.779" transform="translate(213.35 55.262)" fill="#3c59fd" opacity="0.2"/>
      <rect id="사각형_136" data-name="사각형 136" width="6.779" height="6.779" transform="translate(222.616 55.262)" fill="#3c59fd" opacity="0.7"/>
      <rect id="사각형_137" data-name="사각형 137" width="6.779" height="6.779" transform="translate(231.882 55.262)" fill="#3c59fd" opacity="0.7"/>
      <rect id="사각형_138" data-name="사각형 138" width="6.779" height="6.779" transform="translate(241.146 55.262)" fill="#3c59fd" opacity="0.4"/>
      <rect id="사각형_139" data-name="사각형 139" width="6.779" height="6.779" transform="translate(250.412 55.262)" fill="#3c59fd" opacity="0.2"/>
      <rect id="사각형_140" data-name="사각형 140" width="6.779" height="6.779" transform="translate(259.675 55.262)" fill="#3c59fd"/>
      <rect id="사각형_141" data-name="사각형 141" width="6.779" height="6.779" transform="translate(28.048 63.851)" fill="#3c59fd" opacity="0.2"/>
      <rect id="사각형_142" data-name="사각형 142" width="6.779" height="6.779" transform="translate(37.314 63.851)" fill="#3c59fd" opacity="0.2"/>
      <rect id="사각형_143" data-name="사각형 143" width="6.779" height="6.779" transform="translate(46.578 63.851)" fill="#3c59fd" opacity="0.4"/>
      <rect id="사각형_144" data-name="사각형 144" width="6.779" height="6.779" transform="translate(55.844 63.851)" fill="#3c59fd" opacity="0.2"/>
      <rect id="사각형_145" data-name="사각형 145" width="6.779" height="6.779" transform="translate(65.11 63.851)" fill="#3c59fd" opacity="0.2"/>
      <rect id="사각형_146" data-name="사각형 146" width="6.779" height="6.779" transform="translate(74.374 63.851)" fill="#3c59fd" opacity="0.7"/>
      <rect id="사각형_147" data-name="사각형 147" width="6.779" height="6.779" transform="translate(83.64 63.851)" fill="#3c59fd" opacity="0.7"/>
      <rect id="사각형_148" data-name="사각형 148" width="6.779" height="6.779" transform="translate(92.903 63.851)" fill="#3c59fd" opacity="0.2"/>
      <rect id="사각형_149" data-name="사각형 149" width="6.779" height="6.779" transform="translate(102.169 63.851)" fill="#3c59fd" opacity="0.2"/>
      <rect id="사각형_150" data-name="사각형 150" width="6.779" height="6.779" transform="translate(111.436 63.851)" fill="#3c59fd" opacity="0.4"/>
      <rect id="사각형_151" data-name="사각형 151" width="6.779" height="6.779" transform="translate(120.699 63.851)" fill="#3c59fd"/>
      <rect id="사각형_152" data-name="사각형 152" width="6.779" height="6.779" transform="translate(129.965 63.851)" fill="#3c59fd" opacity="0.2"/>
      <rect id="사각형_153" data-name="사각형 153" width="6.779" height="6.779" transform="translate(139.229 63.851)" fill="#3c59fd"/>
      <rect id="사각형_154" data-name="사각형 154" width="6.779" height="6.779" transform="translate(148.495 63.851)" fill="#3c59fd"/>
      <rect id="사각형_155" data-name="사각형 155" width="6.779" height="6.779" transform="translate(157.761 63.851)" fill="#3c59fd"/>
      <rect id="사각형_156" data-name="사각형 156" width="6.779" height="6.779" transform="translate(167.024 63.851)" fill="#3c59fd" opacity="0.2"/>
      <rect id="사각형_157" data-name="사각형 157" width="6.779" height="6.779" transform="translate(176.291 63.851)" fill="#3c59fd"/>
      <rect id="사각형_158" data-name="사각형 158" width="6.779" height="6.779" transform="translate(185.557 63.851)" fill="#3c59fd" opacity="0.2"/>
      <rect id="사각형_159" data-name="사각형 159" width="6.779" height="6.779" transform="translate(194.82 63.851)" fill="#3c59fd" opacity="0.2"/>
      <rect id="사각형_160" data-name="사각형 160" width="6.779" height="6.779" transform="translate(204.086 63.851)" fill="#3c59fd" opacity="0.2"/>
      <rect id="사각형_161" data-name="사각형 161" width="6.779" height="6.779" transform="translate(213.35 63.851)" fill="#3c59fd" opacity="0.2"/>
      <rect id="사각형_162" data-name="사각형 162" width="6.779" height="6.779" transform="translate(222.616 63.851)" fill="#3c59fd" opacity="0.2"/>
      <rect id="사각형_163" data-name="사각형 163" width="6.779" height="6.779" transform="translate(231.882 63.851)" fill="#3c59fd" opacity="0.7"/>
      <rect id="사각형_164" data-name="사각형 164" width="6.779" height="6.779" transform="translate(241.146 63.851)" fill="#3c59fd" opacity="0.2"/>
      <rect id="사각형_165" data-name="사각형 165" width="6.779" height="6.779" transform="translate(250.412 63.851)" fill="#3c59fd" opacity="0.2"/>
      <rect id="사각형_166" data-name="사각형 166" width="6.779" height="6.779" transform="translate(259.675 63.851)" fill="#3c59fd"/>
      <rect id="사각형_167" data-name="사각형 167" width="6.779" height="6.779" transform="translate(28.048 72.436)" fill="#3c59fd" opacity="0.2"/>
      <rect id="사각형_168" data-name="사각형 168" width="6.779" height="6.779" transform="translate(37.314 72.436)" fill="#3c59fd" opacity="0.2"/>
      <rect id="사각형_169" data-name="사각형 169" width="6.779" height="6.779" transform="translate(46.578 72.436)" fill="#3c59fd" opacity="0.2"/>
      <rect id="사각형_170" data-name="사각형 170" width="6.779" height="6.779" transform="translate(55.844 72.436)" fill="#3c59fd" opacity="0.4"/>
      <rect id="사각형_171" data-name="사각형 171" width="6.779" height="6.779" transform="translate(65.11 72.436)" fill="#3c59fd" opacity="0.2"/>
      <rect id="사각형_172" data-name="사각형 172" width="6.779" height="6.779" transform="translate(74.374 72.436)" fill="#3c59fd" opacity="0.2"/>
      <rect id="사각형_173" data-name="사각형 173" width="6.779" height="6.779" transform="translate(83.64 72.436)" fill="#3c59fd" opacity="0.7"/>
      <rect id="사각형_174" data-name="사각형 174" width="6.779" height="6.779" transform="translate(92.903 72.436)" fill="#3c59fd" opacity="0.2"/>
      <rect id="사각형_175" data-name="사각형 175" width="6.779" height="6.779" transform="translate(102.169 72.436)" fill="#3c59fd" opacity="0.2"/>
      <rect id="사각형_176" data-name="사각형 176" width="6.779" height="6.779" transform="translate(111.436 72.436)" fill="#3c59fd" opacity="0.2"/>
      <rect id="사각형_177" data-name="사각형 177" width="6.779" height="6.779" transform="translate(120.699 72.436)" fill="#3c59fd"/>
      <rect id="사각형_178" data-name="사각형 178" width="6.779" height="6.779" transform="translate(129.965 72.436)" fill="#3c59fd" opacity="0.2"/>
      <rect id="사각형_179" data-name="사각형 179" width="6.779" height="6.779" transform="translate(139.229 72.436)" fill="#3c59fd"/>
      <rect id="사각형_180" data-name="사각형 180" width="6.779" height="6.779" transform="translate(148.495 72.436)" fill="#3c59fd"/>
      <rect id="사각형_181" data-name="사각형 181" width="6.779" height="6.779" transform="translate(157.761 72.436)" fill="#3c59fd" opacity="0.2"/>
      <rect id="사각형_182" data-name="사각형 182" width="6.779" height="6.779" transform="translate(167.024 72.436)" fill="#3c59fd" opacity="0.2"/>
      <rect id="사각형_183" data-name="사각형 183" width="6.779" height="6.779" transform="translate(176.291 72.436)" fill="#3c59fd" opacity="0.2"/>
      <rect id="사각형_184" data-name="사각형 184" width="6.779" height="6.779" transform="translate(185.557 72.436)" fill="#3c59fd" opacity="0.2"/>
      <rect id="사각형_185" data-name="사각형 185" width="6.779" height="6.779" transform="translate(194.82 72.436)" fill="#3c59fd" opacity="0.2"/>
      <rect id="사각형_186" data-name="사각형 186" width="6.779" height="6.779" transform="translate(204.086 72.436)" fill="#3c59fd" opacity="0.2"/>
      <rect id="사각형_187" data-name="사각형 187" width="6.779" height="6.779" transform="translate(213.35 72.436)" fill="#3c59fd" opacity="0.2"/>
      <rect id="사각형_188" data-name="사각형 188" width="6.779" height="6.779" transform="translate(222.616 72.436)" fill="#3c59fd" opacity="0.2"/>
      <rect id="사각형_189" data-name="사각형 189" width="6.779" height="6.779" transform="translate(231.882 72.436)" fill="#3c59fd" opacity="0.2"/>
      <rect id="사각형_190" data-name="사각형 190" width="6.779" height="6.779" transform="translate(241.146 72.436)" fill="#3c59fd" opacity="0.2"/>
      <rect id="사각형_191" data-name="사각형 191" width="6.779" height="6.779" transform="translate(250.412 72.436)" fill="#3c59fd" opacity="0.4"/>
      <rect id="사각형_192" data-name="사각형 192" width="6.779" height="6.779" transform="translate(259.675 72.436)" fill="#3c59fd"/>
      <rect id="사각형_193" data-name="사각형 193" width="6.779" height="6.779" transform="translate(28.048 81.025)" fill="#3c59fd" opacity="0.7"/>
      <rect id="사각형_194" data-name="사각형 194" width="6.779" height="6.779" transform="translate(37.314 81.025)" fill="#3c59fd" opacity="0.7"/>
      <rect id="사각형_195" data-name="사각형 195" width="6.779" height="6.779" transform="translate(46.578 81.025)" fill="#3c59fd" opacity="0.7"/>
      <rect id="사각형_196" data-name="사각형 196" width="6.779" height="6.779" transform="translate(55.844 81.025)" fill="#3c59fd" opacity="0.7"/>
      <rect id="사각형_197" data-name="사각형 197" width="6.779" height="6.779" transform="translate(65.11 81.025)" fill="#3c59fd" opacity="0.7"/>
      <rect id="사각형_198" data-name="사각형 198" width="6.779" height="6.779" transform="translate(74.374 81.025)" fill="#3c59fd" opacity="0.2"/>
      <rect id="사각형_199" data-name="사각형 199" width="6.779" height="6.779" transform="translate(83.64 81.025)" fill="#3c59fd" opacity="0.2"/>
      <rect id="사각형_200" data-name="사각형 200" width="6.779" height="6.779" transform="translate(92.903 81.025)" fill="#3c59fd" opacity="0.2"/>
      <rect id="사각형_201" data-name="사각형 201" width="6.779" height="6.779" transform="translate(102.169 81.025)" fill="#3c59fd" opacity="0.2"/>
      <rect id="사각형_202" data-name="사각형 202" width="6.779" height="6.779" transform="translate(111.436 81.025)" fill="#3c59fd" opacity="0.2"/>
      <rect id="사각형_203" data-name="사각형 203" width="6.779" height="6.779" transform="translate(120.699 81.025)" fill="#3c59fd" opacity="0.2"/>
      <rect id="사각형_204" data-name="사각형 204" width="6.779" height="6.779" transform="translate(129.965 81.025)" fill="#3c59fd"/>
      <rect id="사각형_205" data-name="사각형 205" width="6.779" height="6.779" transform="translate(139.229 81.025)" fill="#3c59fd" opacity="0.2"/>
      <rect id="사각형_206" data-name="사각형 206" width="6.779" height="6.779" transform="translate(148.495 81.025)" fill="#3c59fd" opacity="0.2"/>
      <rect id="사각형_207" data-name="사각형 207" width="6.779" height="6.779" transform="translate(157.761 81.025)" fill="#3c59fd" opacity="0.2"/>
      <rect id="사각형_208" data-name="사각형 208" width="6.779" height="6.779" transform="translate(167.024 81.025)" fill="#3c59fd"/>
      <rect id="사각형_209" data-name="사각형 209" width="6.779" height="6.779" transform="translate(176.291 81.025)" fill="#3c59fd" opacity="0.2"/>
      <rect id="사각형_210" data-name="사각형 210" width="6.779" height="6.779" transform="translate(185.557 81.025)" fill="#3c59fd" opacity="0.2"/>
      <rect id="사각형_211" data-name="사각형 211" width="6.779" height="6.779" transform="translate(194.82 81.025)" fill="#3c59fd" opacity="0.2"/>
      <rect id="사각형_212" data-name="사각형 212" width="6.779" height="6.779" transform="translate(204.086 81.025)" fill="#3c59fd" opacity="0.2"/>
      <rect id="사각형_213" data-name="사각형 213" width="6.779" height="6.779" transform="translate(213.35 81.025)" fill="#3c59fd" opacity="0.2"/>
      <rect id="사각형_214" data-name="사각형 214" width="6.779" height="6.779" transform="translate(222.616 81.025)" fill="#3c59fd" opacity="0.2"/>
      <rect id="사각형_215" data-name="사각형 215" width="6.779" height="6.779" transform="translate(231.882 81.025)" fill="#3c59fd" opacity="0.2"/>
      <rect id="사각형_216" data-name="사각형 216" width="6.779" height="6.779" transform="translate(241.146 81.025)" fill="#3c59fd" opacity="0.2"/>
      <rect id="사각형_217" data-name="사각형 217" width="6.779" height="6.779" transform="translate(250.412 81.025)" fill="#3c59fd" opacity="0.2"/>
      <rect id="사각형_218" data-name="사각형 218" width="6.779" height="6.779" transform="translate(259.675 81.025)" fill="#3c59fd"/>
      <circle id="타원_10" data-name="타원 10" cx="9.266" cy="9.266" r="9.266" transform="translate(185.921 87.432)" fill="#767d9f"/>
      <path id="패스_75" data-name="패스 75" d="M202.146,122.469q1.387,6.053,2.354,12.2a7.1,7.1,0,0,1-.074,3.651,12.623,12.623,0,0,1-1.711,2.548,3.239,3.239,0,0,0-.678,2.878,3.336,3.336,0,0,0,2.4,1.759c2.859.771,5.907.21,8.753-.624a14.161,14.161,0,0,0,3.67-1.52,13.732,13.732,0,0,0,3.1-2.923c4.148-5.03,6.864-11.068,9.42-17.068a10.4,10.4,0,0,1-8.8-3.545c-1.047-1.23-1.815-2.944-1.225-4.448-1.73.949-3.784,1.012-5.647,1.661a20.06,20.06,0,0,0-3.322,1.634q-1.908,1.1-3.795,2.248A7.792,7.792,0,0,1,202.146,122.469Z" transform="translate(-7.441 -37.559)" fill="#ae6e79"/>
      <path id="패스_76" data-name="패스 76" d="M221.526,129.426c-1.624,3.16-3.736,6.2-6.752,8.078s-7.076,2.392-10.1.531a28.8,28.8,0,0,1-3.914-3.455,6.477,6.477,0,0,0-4.669-2.009c-1.924.167-3.431,1.669-4.719,3.106a36.913,36.913,0,0,0-5.23,7.047c-2.657,4.969-3.287,10.778-3.17,16.412s.933,11.238.951,16.871c.027,6.93-1.148,13.8-2.336,20.632,10.922-1.345,21.857,1.594,32.8,2.708a201.1,201.1,0,0,0,21.1.686,6.39,6.39,0,0,0,3.587-.717,4.836,4.836,0,0,0,1.485-1.764,16.885,16.885,0,0,0,1.634-5.862,118.691,118.691,0,0,0,.728-15.434c.048-12.489.093-25.024-1.493-37.415a35.266,35.266,0,0,0-2.059-8.963,14.06,14.06,0,0,0-5.745-7c-1.714-.983-5.687-2.695-7.706-1.7C223.66,122.277,222.613,127.31,221.526,129.426Z" transform="translate(-7.441 -37.559)" fill="#767d9f"/>
      <path id="패스_77" data-name="패스 77" d="M222.334,164.694c-.412-7.706-2.089-15.931,1.48-22.771.877-1.679-2.269-3.776-1.3-5.4a24.469,24.469,0,0,0,2.673-6.359,4.8,4.8,0,0,0,.173-2.352c-.353-1.406-1.743-2.243-2.923-3.1-1.3-.946-1.972-3.829-2.392-5.389s3.34.319,4.852-.237c2.1-.768,4.767-.284,6.861.494a11.452,11.452,0,0,0,3.686.5,48.556,48.556,0,0,0,7.252-.173,18.037,18.037,0,0,1,3.245-.279c2.766.157,5.171,2.049,6.808,4.286s2.679,4.844,4.021,7.268c1.119,2.02,2.453,3.928,3.407,6.029a37.119,37.119,0,0,1,1.908,5.846l1.363,5.1a6.8,6.8,0,0,1,.335,2.261,6.419,6.419,0,0,1-.8,2.3,43.61,43.61,0,0,1-4.961,7.571c-2.867,3.516-6.348,6.686-8.052,10.9a27.52,27.52,0,0,0-1.371,5.121,188.123,188.123,0,0,0-2.9,21.033,46.292,46.292,0,0,0-9.7-3.245,47.2,47.2,0,0,0-5.049-.8c-1.485-.154-3.4.138-4.815-.266-2.365-.672-2.625-4.672-2.984-6.766a61.781,61.781,0,0,1-.71-10.1C222.419,172.336,222.539,168.513,222.334,164.694Z" transform="translate(-7.441 -37.559)" fill="#4c4981"/>
      <path id="패스_78" data-name="패스 78" d="M170.4,150.283c1.119,6.378,2.352,12.774,4.783,18.766-.061.058-.122.112-.183.165-.215.183-.438.356-.672.531a8.95,8.95,0,0,0-1.594,1.206,2.126,2.126,0,0,0-.4.651,1.456,1.456,0,0,0,0,1.188,9.421,9.421,0,0,1-4.161.335,5.46,5.46,0,0,0-3.4.672c-1.366.941-1.778,2.748-2,4.39q-.122.9-.21,1.8-.085.837-.138,1.679a50.117,50.117,0,0,0-.05,5.58q.021.51.056,1.02c-4.342-.1-8.3-2.368-12.043-4.568a6.644,6.644,0,0,1-2.293-1.86,4.2,4.2,0,0,1-.614-2.734,3.021,3.021,0,0,1,.042-.4,11.051,11.051,0,0,1,.609-2.307,28.487,28.487,0,0,1,5.1-8.676,11.033,11.033,0,0,0,2.466-3.593c.194-.609.266-1.254.462-1.86.882-2.625,4.066-3.866,5.155-6.415a19.468,19.468,0,0,1,.717-1.86,4.685,4.685,0,0,1,1.129-1.262c.194-.162.4-.319.6-.476q2.8-2.195,5.4-4.637.484-.454.957-.919a15.806,15.806,0,0,0,.284,3.587Z" transform="translate(-7.441 -37.559)" fill="#4c4981"/>
      <path id="패스_79" data-name="패스 79" d="M197.175,131.421c-.383.4-.8.784-1.2,1.161l-.109.1-.43.4a10.365,10.365,0,0,0-2.006,2.336l-.045.074c-1.355,2.426-.853,5.413-.476,8.169a69.5,69.5,0,0,1,.63,10.364c-.069,4.783-.632,9.535-.643,14.312q0,1.626.072,3.25c.077,1.762.21,3.521.369,5.28.173,1.929.38,3.856.574,5.782.154,1.491.3,2.979.423,4.467.061.771.12,1.539.167,2.309.056.9.1,1.81.128,2.713h0c.019.574.029,1.145.029,1.719v.975q0,.933-.05,1.86-.053,1.193-.162,2.392a3.877,3.877,0,0,1-.84,2.429c-.037.037-.077.072-.117.106l-.861-.106a88.415,88.415,0,0,0-17.884-.319c.13-.9.25-1.794.367-2.695.053-.425.106-.853.157-1.281q.088-.733.167-1.467.092-.8.17-1.594.207-2.054.364-4.111.231-3,.351-6.011.058-1.438.09-2.878.045-1.786.043-3.574,0-1.738-.029-3.481c0-.383-.016-.765-.048-1.145a7.265,7.265,0,0,0-.141-1.018,13.254,13.254,0,0,0-.8-2.253c-.058-.138-.114-.266-.17-.412-.032-.072-.061-.146-.09-.218a19.875,19.875,0,0,0,3.667-4.985c1.7-2.894,3.436-5.915,3.72-9.258s-1.376-7.1-4.571-8.118a22.2,22.2,0,0,0-2.684-.5,11.79,11.79,0,0,1-3.585-1.092q-.8.818-1.594,1.608a5.886,5.886,0,0,1,.577-2.315l.377.019a.72.72,0,0,1-.043-.266,1.4,1.4,0,0,1,.617-.962c1.252-1.063,3.221-1.3,4.01-2.737a19.968,19.968,0,0,0,.651-1.937c.763-1.788,2.952-2.447,4.27-3.877s1.648-3.455,2.713-5.049a7.605,7.605,0,0,1,3.189-2.657c.106-.05.215-.1.324-.146a18.4,18.4,0,0,1,7.111-1.153,15,15,0,0,1,4.316.476,1.414,1.414,0,0,1,.492.3C199.93,127.714,198.062,130.475,197.175,131.421Z" transform="translate(-7.441 -37.559)" fill="#4c4981"/>
      <path id="패스_80" data-name="패스 80" d="M170.793,144.211a16.178,16.178,0,0,1,12.42,1.294,11.748,11.748,0,0,1,4.682,4.459c1.581,2.87,1.512,6.33,1.4,9.606a11.721,11.721,0,0,1-.85,4.81,9.782,9.782,0,0,1-4.026,3.829,11.225,11.225,0,0,1-3.274,1.416,14.044,14.044,0,0,1-5.44-.266c-1.956-.361-4.055-.8-5.413-2.253a9.246,9.246,0,0,1-1.663-3.016q-.927-2.325-1.86-4.645c-1.076-2.687-1.44-4.921-.019-7.539.646-1.193,1.435-2.309,2.073-3.51C169.142,147.785,170.285,144.368,170.793,144.211Z" transform="translate(-7.441 -37.559)" fill="#4c4981"/>
      <path id="패스_81" data-name="패스 81" d="M282.475,190.149v7.945a44.458,44.458,0,0,1-17.2,3.4H193.608c-.037.037-.077.072-.117.106l-.861-.106H65.15a55.529,55.529,0,0,1-28.736-7.8V181.563l61.31-7.076h.048l35.7,3.024,9.24.8,4.8.407,9.933.842,5.11.433,7.441.632,1.047.088,5.363.454,7.276.6,10.231.866,17.055,1.448,12,1.018,19.7,1.671,3.747.316.4.035.351.029,4.948.42,5.432.462.63.053Z" transform="translate(-7.441 -37.559)" fill="#504f60"/>
      <path id="패스_82" data-name="패스 82" d="M203.021,152.3l-76.834-13.114-2.979,15.064,35.22,4.217,10.845,1.358,29.831-5.875Z" fill="#9c9ca1"/>
      <path id="패스_83" data-name="패스 83" d="M170.689,196.627l38.494-7.236a1.329,1.329,0,0,1,1.578,1.31h0a1.329,1.329,0,0,1-1.087,1.31l-37.593,7.039Z" transform="translate(-7.441 -37.559)" fill="#9c9ca1"/>
      <path id="패스_84" data-name="패스 84" d="M187.388,173.872a9.928,9.928,0,0,0,3.492-.832,32.9,32.9,0,0,0,3.593-2.641,10.7,10.7,0,0,1,9.426-1.042,15.183,15.183,0,0,1,7.5,6.088c1.2,1.82,2.107,4.143,1.257,6.152a8.108,8.108,0,0,1-1.095,1.711l-2.216,2.9a7.707,7.707,0,0,1-1.5,1.618,6.391,6.391,0,0,1-2.875,1c-2.7.393-5.442.17-8.161.351-4.669.311-9.229,1.815-13.909,1.764a41.92,41.92,0,0,1-7.972-1.113l-11.631-2.392c-2.025-.415-4.313-1.02-5.267-2.857a6.623,6.623,0,0,1-.558-2.713c-.138-2.562,0-5.41,1.775-7.257,1.669-1.733,4.308-2.28,6.3-3.561,2.439-1.57,3.245-1.063,5.817.117a31.888,31.888,0,0,0,16.026,2.71Z" transform="translate(-7.441 -37.559)" fill="#ae6e79"/>
      <path id="패스_85" data-name="패스 85" d="M187.388,173.872a9.928,9.928,0,0,0,3.492-.832,32.9,32.9,0,0,0,3.593-2.641,10.7,10.7,0,0,1,9.426-1.042,15.183,15.183,0,0,1,7.5,6.088c1.2,1.82,2.107,4.143,1.257,6.152a8.108,8.108,0,0,1-1.095,1.711l-2.216,2.9a7.707,7.707,0,0,1-1.5,1.618,6.391,6.391,0,0,1-2.875,1c-2.7.393-5.442.17-8.161.351-4.669.311-9.229,1.815-13.909,1.764a41.92,41.92,0,0,1-7.972-1.113l-11.631-2.392c-2.025-.415-4.313-1.02-5.267-2.857a6.623,6.623,0,0,1-.558-2.713c-.138-2.562,0-5.41,1.775-7.257,1.669-1.733,4.308-2.28,6.3-3.561,2.439-1.57,3.245-1.063,5.817.117a31.888,31.888,0,0,0,16.026,2.71Z" transform="translate(-7.441 -37.559)" opacity="0.05"/>
      <path id="패스_86" data-name="패스 86" d="M234.1,170.229a68.927,68.927,0,0,1-9.962,3.282c-5.729,1.262-11.724,1.063-17.408,2.506-3,.765-5.987,2-9.072,1.749a27.188,27.188,0,0,1-4.052-.85c-7.539-1.86-16.109-1.257-22.231,3.526a27.666,27.666,0,0,0-5.363,5.846,3.906,3.906,0,0,0,1.57,5.814,23.018,23.018,0,0,0,7.542,2.012,45.857,45.857,0,0,0,10.465-.68c5.15-.731,10.3-1.464,15.439-2.285,1.844-.295,3.688-.6,5.543-.834,13.348-1.687,26.937.364,40.32-1.044a12.318,12.318,0,0,0,3.959-.906c3.114-1.462,4.656-5.315,4.013-8.7a12.179,12.179,0,0,0-6.112-7.927,26.9,26.9,0,0,0-7.991-2.657C238.167,168.475,236.588,169.273,234.1,170.229Z" transform="translate(-7.441 -37.559)" fill="#ae6e79"/>
      <path id="패스_87" data-name="패스 87" d="M262.723,149.991a10.264,10.264,0,0,1,1.626,6.933c-.159,2.416-.733,4.8-.818,7.231-.117,3.327.686,6.643.55,9.96a28.652,28.652,0,0,1-1.3,6.821c-.768,2.628-1.879,5.453-4.3,6.715-3.221,1.677-9.976.733-13.364,2.046.308-1.921,3.263-4.7,3.571-6.625a12.371,12.371,0,0,0,.2-4.026,8.9,8.9,0,0,0-2.471-4.459,13.04,13.04,0,0,0-7.034-3.986c-2.7-.489-9.3-.088-11.458,1.616-.266-1.759,4.677-3.455,6.415-3.835.866-.194,1.86-.085,2.554-.635,1.329-1.042.364-3.117.428-4.783.05-1.329.826-2.546.983-3.874.266-2.126-1.121-4.292-.577-6.378a16.546,16.546,0,0,1,.962-2.182c.946-2.245.531-4.807.027-7.193-.314-1.5-.619-3.189.215-4.467.773-1.193,2.968,3.056,4.374,2.859,4.642-.651,8.844-4.092,12.593-1.276,1.911,1.435,2.16,2.923,2.923,4.972C259.561,147.376,261.482,148.375,262.723,149.991Z" transform="translate(-7.441 -37.559)" opacity="0.1"/>
      <path id="패스_88" data-name="패스 88" d="M263.52,149.991a10.264,10.264,0,0,1,1.626,6.933c-.159,2.416-.733,4.8-.818,7.231-.117,3.327.686,6.643.55,9.96a28.653,28.653,0,0,1-1.3,6.821c-.768,2.628-1.879,5.453-4.3,6.715-3.221,1.677-9.976.733-13.364,2.046.308-1.921,3.263-4.7,3.571-6.625a12.372,12.372,0,0,0,.2-4.026,8.9,8.9,0,0,0-2.471-4.459,13.04,13.04,0,0,0-7.034-3.986c-2.7-.489-9.3-.088-11.458,1.616-.266-1.759,4.677-3.455,6.415-3.835.866-.194,1.86-.085,2.554-.635,1.329-1.042.364-3.117.428-4.783.05-1.329.826-2.546.983-3.874.266-2.126-1.121-4.292-.577-6.378a16.544,16.544,0,0,1,.962-2.182c.946-2.245.531-4.807.027-7.193-.314-1.5-.619-3.189.215-4.467a5.061,5.061,0,0,1,3.691-1.844,18.182,18.182,0,0,1,13.287,3.428c1.911,1.435,2.16,2.923,2.923,4.972C260.358,147.376,262.279,148.375,263.52,149.991Z" transform="translate(-7.441 -37.559)" fill="#4c4981"/>
      <path id="패스_89" data-name="패스 89" d="M87.692,137.4l14.448,53.4a3.335,3.335,0,0,0,2.9,2.447l65.03,6.247a3.332,3.332,0,0,0,3.556-4.114L157.8,130.97a3.332,3.332,0,0,0-3.486-2.527L90.65,133.2a3.332,3.332,0,0,0-2.958,4.2Z" transform="translate(-7.441 -37.559)" fill="#9c9ca1"/>
      <ellipse id="타원_11" data-name="타원 11" cx="7.148" cy="7.241" rx="7.148" ry="7.241" transform="translate(202.014 95.778)" fill="#fff"/>
      <path id="패스_90" data-name="패스 90" d="M222.473,127.369s1.507,4.48-2.939,6.364l-.569.994,2.785,2.748s3.433-6.263,3.061-8.488C224.811,128.987,224.279,126.729,222.473,127.369Z" transform="translate(-7.441 -37.559)" fill="#fff"/>
      <circle id="타원_12" data-name="타원 12" cx="6.893" cy="6.893" r="6.893" transform="translate(203.09 96.475)" fill="#3c59fd"/>
      <path id="패스_91" data-name="패스 91" d="M224.846,130.005l-1.095-1.807-1.594-.226c.34-5.95-1.2-7.722-1.2-7.722l-.359-.035-1.563-.151-2.939-3.051v-.866c4.13.492,6.412,2.453,7.645,4.751C225.916,124.932,224.846,130.005,224.846,130.005Z" transform="translate(-7.441 -37.559)" fill="#3c59fd"/>
      <path id="패스_92" data-name="패스 92" d="M220.607,119.121v1.095l-1.563-.151-2.939-3.051S220.652,118.031,220.607,119.121Z" transform="translate(-7.441 -37.559)" stroke="#4c4981" stroke-miterlimit="10" stroke-width="0.266" opacity="0.1"/>
      <path id="패스_93" data-name="패스 93" d="M224.846,130.005l-1.095-1.807v-7.289C225.916,124.932,224.846,130.005,224.846,130.005Z" transform="translate(-7.441 -37.559)" stroke="#4c4981" stroke-miterlimit="10" stroke-width="0.266" opacity="0.1"/>
      <ellipse id="타원_13" data-name="타원 13" cx="3.835" cy="6.994" rx="3.835" ry="6.994" transform="matrix(0.866, -0.5, 0.5, 0.866, 186.931, 96.005)" fill="#fff"/>
      <path id="패스_94" data-name="패스 94" d="M202.224,137.119c1.932,3.346,4.3,5.58,2.469,6.643s-7.175.531-9.107-2.817-.178-7.972,1.656-9.035S200.289,133.765,202.224,137.119Z" transform="translate(-7.441 -37.559)" fill="#3c59fd"/>
      <path id="패스_95" data-name="패스 95" d="M219.425,113.017c0,10.69-7.316,20.993-18.006,20.993a19.359,19.359,0,0,1,0-38.717C212.109,95.3,219.425,102.324,219.425,113.017Z" transform="translate(-7.441 -37.559)" opacity="0.1"/>
      <circle id="타원_14" data-name="타원 14" cx="19.359" cy="19.359" r="19.359" transform="translate(174.619 57.213)" fill="#ae6e79"/>
      <path id="패스_96" data-name="패스 96" d="M199.718,105.552c2.3.848,3.667,3.229,5.735,4.555,2.923,1.86,6.728,1.379,10.066.46,1.86-.508,3.805-1.127,5.636-.563a1.6,1.6,0,0,0,.858.122c.4-.114.6-.555.725-.949a26.243,26.243,0,0,0-2.171-20.64,13.341,13.341,0,0,0-3.4-4.286,14.167,14.167,0,0,0-3.858-1.948,38.532,38.532,0,0,0-7.674-1.895,4.767,4.767,0,0,0-1.4-.045,5.864,5.864,0,0,0-1.786.757,18.277,18.277,0,0,1-7.935,2.155c-3.72.141-7.972-.736-10.839,1.65-3.455,2.862-2.594,8.445-4.834,12.33-1.483,2.57-4.342,4.435-4.812,7.361a6.8,6.8,0,0,0,.167,2.676,10.889,10.889,0,0,0,10.1,8.07,3.832,3.832,0,0,0,2.062-.423,4.664,4.664,0,0,0,1.087-1.034C190.489,110.3,193.97,103.437,199.718,105.552Z" transform="translate(-7.441 -37.559)" fill="#444053"/>
      <path id="패스_97" data-name="패스 97" d="M222.738,107.218c-.13.393-.327.834-.725.949a1.594,1.594,0,0,1-.858-.122c-1.831-.563-3.787.056-5.634.563-3.34.919-7.154,1.411-10.066-.46-2.07-1.329-3.431-3.72-5.737-4.555-5.748-2.126-9.229,4.751-12.28,8.355a4.665,4.665,0,0,1-1.087,1.034,3.832,3.832,0,0,1-2.062.423,10.917,10.917,0,0,1-10.1-8.07c-.061-.266-.114-.531-.154-.8a.129.129,0,0,1-.013.069,6.8,6.8,0,0,0,.167,2.676,10.891,10.891,0,0,0,10.1,8.07,3.832,3.832,0,0,0,2.062-.423,4.664,4.664,0,0,0,1.087-1.034c3.051-3.6,6.532-10.47,12.28-8.355,2.307.848,3.667,3.229,5.737,4.555,2.923,1.86,6.726,1.379,10.066.46,1.86-.508,3.8-1.127,5.634-.563a1.6,1.6,0,0,0,.858.122c.4-.114.6-.555.725-.949a23.994,23.994,0,0,0,1.19-8.573,23.6,23.6,0,0,1-1.19,6.625Z" transform="translate(-7.441 -37.559)" opacity="0.1"/>
    </g>
  </g>
</svg>
