<svg xmlns="http://www.w3.org/2000/svg" xmlns:xlink="http://www.w3.org/1999/xlink" width="304" height="246" viewBox="0 0 304 246">
  <defs>
    <clipPath id="clip-path">
      <rect id="사각형_231" data-name="사각형 231" width="304" height="246" transform="translate(463 692)" fill="#fff" stroke="#707070" stroke-width="1"/>
    </clipPath>
    <linearGradient id="linear-gradient" x1="-0.03" y1="0.503" x2="0.97" y2="0.503" gradientUnits="objectBoundingBox">
      <stop offset="0" stop-color="gray" stop-opacity="0.251"/>
      <stop offset="0.54" stop-color="gray" stop-opacity="0.122"/>
      <stop offset="1" stop-color="gray" stop-opacity="0.102"/>
    </linearGradient>
  </defs>
  <g id="마스크_그룹_3" data-name="마스크 그룹 3" transform="translate(-463 -692)" clip-path="url(#clip-path)">
    <g id="undraw_pair_programming_njlp" transform="translate(462.99 715.718)">
      <path id="패스_98" data-name="패스 98" d="M166.638,57.483c-19.2,3.244-38.372,1.854-56.816-.169s-36.841-4.665-56.049-3.868C41.417,53.956,27.657,56.4,19.03,63.519c-8.3,6.844-9.6,16.079-9.615,24.416-.022,6.271.522,12.759,4.966,17.755,3.088,3.465,7.842,5.948,11.422,9.146,12.458,11.11,8.67,28.6.495,43.478-3.836,6.978-8.528,13.841-11.14,20.983s-2.959,14.8,1.716,20.62c4.632,5.776,13.593,9.031,22.936,10.718,18.976,3.427,40.118,1.3,60.574-1.585,45.272-6.405,90.077-16.391,134.784-26.353,16.542-3.688,33.156-7.392,49.092-12.708,8.851-2.959,17.863-6.642,23.579-12.375,7.263-7.263,7.446-17.2.447-23.135-11.745-9.954-38.329-7.745-47.414-19.124-5-6.265-2.822-14.774,1.157-22.29,8.53-16.119,25.018-32.045,22.882-48.116-1.474-11.03-12.722-20.157-27.8-22.535-15.8-2.491-36.1,2.233-45.194,13.332C202.567,47.182,183.591,54.61,166.638,57.483Z" transform="translate(-9.405 -21.771)" fill="#3c59fd" opacity="0.1"/>
      <rect id="사각형_220" data-name="사각형 220" width="76.247" height="17.655" transform="translate(96.845 96.64)" fill="#565661"/>
      <rect id="사각형_221" data-name="사각형 221" width="76.247" height="17.655" transform="translate(96.845 96.64)" opacity="0.1"/>
      <path id="패스_99" data-name="패스 99" d="M105.967,114.877l.535,47.134-7.333,18.514L98.6,114.877Z" fill="#bcbec9"/>
      <path id="패스_100" data-name="패스 100" d="M97.649,100.03l74.234.447v13.149H97.649Z" fill="#565661"/>
      <path id="패스_101" data-name="패스 101" d="M165.532,114.877l6.351.9v64.036l-6.351-19.587Z" fill="#bcbec9"/>
      <rect id="사각형_222" data-name="사각형 222" width="35.776" height="76.023" transform="translate(174.297 97.348)" fill="#efeff0"/>
      <rect id="사각형_223" data-name="사각형 223" width="30.052" height="58.438" transform="translate(177.159 99.46)" fill="#565661"/>
      <rect id="사각형_224" data-name="사각형 224" width="30.052" height="58.438" transform="translate(177.159 99.46)" opacity="0.1"/>
      <rect id="사각형_225" data-name="사각형 225" width="30.052" height="12.969" transform="translate(177.159 100.657)" fill="#565661"/>
      <rect id="사각형_226" data-name="사각형 226" width="30.052" height="27.547" transform="translate(177.159 114.877)" fill="#565661"/>
      <rect id="사각형_227" data-name="사각형 227" width="30.052" height="27.547" transform="translate(177.159 144.124)" fill="#565661"/>
      <rect id="사각형_228" data-name="사각형 228" width="30.052" height="27.547" transform="translate(177.159 144.124)" opacity="0.1"/>
      <ellipse id="타원_15" data-name="타원 15" cx="1.937" cy="2.475" rx="1.937" ry="2.475" transform="translate(176.476 173.371)" fill="#565661"/>
      <ellipse id="타원_16" data-name="타원 16" cx="1.937" cy="2.475" rx="1.937" ry="2.475" transform="translate(203.337 173.49)" fill="#565661"/>
      <path id="패스_102" data-name="패스 102" d="M96.576,180.524h2.593l-.713-82.517H94.518Z" fill="#efeff0"/>
      <path id="패스_103" data-name="패스 103" d="M171.884,97.348v82.461H174.3v-81.8Z" fill="#efeff0"/>
      <path id="패스_104" data-name="패스 104" d="M98.583,112.819v2.954h73.3v-2.147Z" fill="#efeff0"/>
      <path id="패스_105" data-name="패스 105" d="M103.551,91.8h92.928l13.5,4.471v2.593L94.071,97.975V95.336Z" fill="#fff"/>
      <path id="패스_106" data-name="패스 106" d="M94.071,95.336l115.913.939v2.593L94.071,97.975Z" fill="#bcbec9"/>
      <path id="패스_107" data-name="패스 107" d="M113.976,147.861l-.538-.081v-.067c-.016-.126-.035-.25-.054-.377.221.175.43.35.624.525Z" transform="translate(-9.405 -21.771)" fill="url(#linear-gradient)"/>
      <path id="패스_108" data-name="패스 108" d="M102.284,189.4c.35-.081.7-.148,1.06-.2a12.757,12.757,0,0,1,7.161,1.055,11.891,11.891,0,0,0,.03,4.987,21.094,21.094,0,0,1,1.146,3.33,1.964,1.964,0,0,1,1.547,1.367,2.973,2.973,0,0,1,.153.958,5.11,5.11,0,0,1-.151,1.194,1.205,1.205,0,0,1-1.291,1.076c-2.082.237-4.124-.584-6.061-1.388l-3.766-1.566c-.441-.183-.885-.369-1.307-.595a7.164,7.164,0,0,1-2.1-1.714.955.955,0,0,1-.25-.452c-.07-.473.484-.756.837-1.076a1.677,1.677,0,0,0,.269-.328,9.567,9.567,0,0,0,.708-2.241c.592-1.762,2.421-2.9,3.067-4.616.035-.094.067-.188.094-.285" transform="translate(-9.405 -21.771)" fill="#a26565"/>
      <path id="패스_109" data-name="패스 109" d="M113.381,200.9a5.111,5.111,0,0,1-.151,1.194,1.205,1.205,0,0,1-1.291,1.076c-2.082.237-4.124-.584-6.061-1.388l-3.766-1.566c-.441-.183-.885-.369-1.307-.595a7.164,7.164,0,0,1-2.1-1.714.955.955,0,0,1-.25-.452c-.07-.473.484-.756.837-1.076a1.677,1.677,0,0,0,.269-.328,32.968,32.968,0,0,1,3.121,1.13,9.475,9.475,0,0,1,2.27.95,18.016,18.016,0,0,1,2.542,2.421,4.218,4.218,0,0,0,3.094,1.442,5.112,5.112,0,0,0,1.759-.608Z" transform="translate(-9.405 -21.771)" opacity="0.1"/>
      <path id="패스_110" data-name="패스 110" d="M108.972,162.67a1.246,1.246,0,0,1-.457,1.345c-.352.218-.807.188-1.157.425a1.984,1.984,0,0,0-.57,1.428,19.244,19.244,0,0,1-1.921,5.071,9.334,9.334,0,0,0-1.124,5.24c.191,1.216.788,2.513.229,3.607-.137.269-.342.508-.5.769-.767,1.281-.331,2.9-.36,4.393a.869.869,0,0,1-.1.476,1.316,1.316,0,0,1-.425.328,2.254,2.254,0,0,0-.917,1.73,6.61,6.61,0,0,0,.242,2.007,1.194,1.194,0,0,0,.331.7,1.237,1.237,0,0,0,.724.2,16.1,16.1,0,0,1,4.912,1.194,15.926,15.926,0,0,0,3.094,1.162.807.807,0,0,0,.635-.067.874.874,0,0,0,.269-.465,10.942,10.942,0,0,0,.7-4.213c-.062-.613-.226-1.213-.269-1.827-.188-2.421,1.45-4.606,1.969-6.994.234-1.076.234-2.19.4-3.277.452-2.978,2.093-5.649,2.725-8.595a9.342,9.342,0,0,1,.409-1.614c.471-1.141,1.56-2.066,1.584-3.3a1.286,1.286,0,0,0-.2-.769,1.743,1.743,0,0,0-.96-.538,32.787,32.787,0,0,0-4.452-.9,8.434,8.434,0,0,0-2.093-.145,6.161,6.161,0,0,0-2.561.9C108.079,161.591,108.746,161.744,108.972,162.67Z" transform="translate(-9.405 -21.771)" fill="#454b69"/>
      <path id="패스_111" data-name="패스 111" d="M108.972,162.67a1.246,1.246,0,0,1-.457,1.345c-.352.218-.807.188-1.157.425a1.984,1.984,0,0,0-.57,1.428,19.244,19.244,0,0,1-1.921,5.071,9.334,9.334,0,0,0-1.124,5.24c.191,1.216.788,2.513.229,3.607-.137.269-.342.508-.5.769-.767,1.281-.331,2.9-.36,4.393a.869.869,0,0,1-.1.476,1.316,1.316,0,0,1-.425.328,2.254,2.254,0,0,0-.917,1.73,6.61,6.61,0,0,0,.242,2.007,1.194,1.194,0,0,0,.331.7,1.237,1.237,0,0,0,.724.2,16.1,16.1,0,0,1,4.912,1.194,15.926,15.926,0,0,0,3.094,1.162.807.807,0,0,0,.635-.067.874.874,0,0,0,.269-.465,10.942,10.942,0,0,0,.7-4.213c-.062-.613-.226-1.213-.269-1.827-.188-2.421,1.45-4.606,1.969-6.994.234-1.076.234-2.19.4-3.277.452-2.978,2.093-5.649,2.725-8.595a9.342,9.342,0,0,1,.409-1.614c.471-1.141,1.56-2.066,1.584-3.3a1.286,1.286,0,0,0-.2-.769,1.743,1.743,0,0,0-.96-.538,32.787,32.787,0,0,0-4.452-.9,8.434,8.434,0,0,0-2.093-.145,6.161,6.161,0,0,0-2.561.9C108.079,161.591,108.746,161.744,108.972,162.67Z" transform="translate(-9.405 -21.771)" opacity="0.05"/>
      <path id="패스_112" data-name="패스 112" d="M94.3,181.442H92.008l-1.5-30.84-.1-1.754,1.95-.686.132,1.864Z" fill="#565661"/>
      <path id="패스_113" data-name="패스 113" d="M92.484,150.026l-1.977.576-.1-1.754,1.95-.686Z" opacity="0.1"/>
      <path id="패스_114" data-name="패스 114" d="M123.1,187.965l-3.785.457-17.437-39.575-4.7-.344-8.259,2.41-1.606,47.118H83.521l1.49-48.839-9.063.231L59.775,189.684H56.334l17.01-47.053L74,140.818l25.349-.869,6.319,3.543.081.2Z" fill="#565661"/>
      <path id="패스_115" data-name="패스 115" d="M115.154,165.468c-5.448,1.641-11.1,3.433-11.1,3.433s-5.157,1.8-7.341,0a3.3,3.3,0,0,0-.912-.5,4.493,4.493,0,0,0,.912.5l-13.962-4.5.654-1.81,25.352-.869,6.319,3.543Z" transform="translate(-9.405 -21.771)" opacity="0.1"/>
      <path id="패스_116" data-name="패스 116" d="M89.369,157.658l10.322-2.295s24.663,4.589,26.5,6.424c0,0-19.729,4.014-21.908,5.38S89.138,170.046,89.369,157.658Z" transform="translate(-9.405 -21.771)" fill="#fff"/>
      <path id="패스_117" data-name="패스 117" d="M84.93,131.862c-.807,2.558-3.01,4.864-5.692,4.974a.993.993,0,0,1-.568-.1.9.9,0,0,1-.207-1.076,4.655,4.655,0,0,0,.414-1.1.721.721,0,0,0-.016-.239c-.07-.32-.331-.605-.638-.538a1.076,1.076,0,0,0,.229-1.428,3.229,3.229,0,0,1-.328-.441c-.223-.457.124-.971.269-1.461.3-1.076-.46-2.152-.522-3.274a16.848,16.848,0,0,1,.581-2.943c.2-1.614-.6-3.161-.694-4.772a10.106,10.106,0,0,1,.522-3.322,12.009,12.009,0,0,0,.592-2.959c0-.734-.126-1.461-.161-2.192a3.817,3.817,0,0,1,.352-1.948,1.558,1.558,0,0,1,.885-.756,1.12,1.12,0,0,1,1.59,1c.215,1.423.091,2.876.374,4.3a20.176,20.176,0,0,0,1.181,3.9c.476,1.135,1.055,2.233,1.42,3.408a18.778,18.778,0,0,1,.589,2.959C85.463,126.539,85.745,129.3,84.93,131.862Z" transform="translate(-9.405 -21.771)" fill="#3c59fd"/>
      <path id="패스_118" data-name="패스 118" d="M146.2,196.974a4.172,4.172,0,0,1-2.94,1.732c-1.168.145-2.381-.148-3.513.172a1.076,1.076,0,0,0-.807.621,6.609,6.609,0,0,0-.051.659c-.132.718-1.076.88-1.81.874l-3.029-.019a2.5,2.5,0,0,1-1.778-.471,1.323,1.323,0,0,1-.027-1.743,1.1,1.1,0,0,1,.339-.269,1.076,1.076,0,0,1-.726-.864,3.212,3.212,0,0,1,.056-1.186,6.7,6.7,0,0,1,1.06-3.887,8.974,8.974,0,0,1,4.121-2.8,3.228,3.228,0,0,1,2.792.794c.694.646,1.2,1.657,2.152,1.77a5.344,5.344,0,0,0,1.533-.269,2.854,2.854,0,0,1,2.908,1.536,3.029,3.029,0,0,1,.269.842,3.5,3.5,0,0,1-.549,2.51Z" transform="translate(-9.405 -21.771)" fill="#a26565"/>
      <path id="패스_119" data-name="패스 119" d="M146.2,196.974a4.172,4.172,0,0,1-2.94,1.732c-1.168.145-2.381-.148-3.513.172a1.076,1.076,0,0,0-.807.621,6.609,6.609,0,0,0-.051.659c-.132.718-1.076.88-1.81.874l-3.029-.019a2.5,2.5,0,0,1-1.778-.471,1.323,1.323,0,0,1-.027-1.743,31.682,31.682,0,0,0,5.211-.36c.708-.143,1.4-.331,2.12-.43,1.55-.221,3.2-.032,4.622-.689a5.224,5.224,0,0,0,2.539-2.854,3.5,3.5,0,0,1-.535,2.507Z" transform="translate(-9.405 -21.771)" opacity="0.1"/>
      <path id="패스_120" data-name="패스 120" d="M138.208,192.721a6.739,6.739,0,0,1-3.694,1.555,3.754,3.754,0,0,1-3.46-1.716c-.971-1.73-.11-4.135-1.3-5.722-.371-.5-.907-.85-1.3-1.332a1.5,1.5,0,0,1-.269-1.716c-.422.161-.869-.247-.993-.683a12.49,12.49,0,0,1-.121-1.345c-.2-1.17-1.345-1.921-1.9-2.959a8.784,8.784,0,0,1-.538-3.616,13.72,13.72,0,0,0-3.174-8.165,1.909,1.909,0,0,0-1.4-.858,2.649,2.649,0,0,0-1.407-2.421,6.974,6.974,0,0,0-2.846-.759c-9.935-.979-20.286,2.714-29.772-.393a13.221,13.221,0,0,1-6.8-4.573,8,8,0,0,1-1.423-6.047v-.038c.374-1.91,1.383-2.381,3.053-3.252a36.65,36.65,0,0,1,6.023-2.526,24.447,24.447,0,0,1,12.544-.791c1.945.436,3.82,1.157,5.768,1.579.767.167,1.539.285,2.316.385,1.208.151,2.421.25,3.637.39a55.02,55.02,0,0,1,11.422,2.569,14.958,14.958,0,0,1,3.946,1.851,8.743,8.743,0,0,1,3.508,5.773c.113.791.116,1.614.288,2.381a12.106,12.106,0,0,0,.646,1.883,125.261,125.261,0,0,1,5.62,17.486,4.248,4.248,0,0,0,.449,1.264c.344.557.936.931,1.283,1.488.807,1.313.03,3.145.745,4.511.247.473.659.847.907,1.321C140.777,189.8,139.586,191.653,138.208,192.721Z" transform="translate(-9.405 -21.771)" fill="#454b69"/>
      <path id="패스_121" data-name="패스 121" d="M124.462,161.812a4.438,4.438,0,0,0,.977-1.076,2.007,2.007,0,0,0,.3-1.391,3.979,3.979,0,0,1-1.046,3.422,3.545,3.545,0,0,1-2.93,1.133C121.9,163.108,123.835,162.344,124.462,161.812Z" transform="translate(-9.405 -21.771)" opacity="0.1"/>
      <path id="패스_122" data-name="패스 122" d="M107.654,148.4a1.805,1.805,0,0,1-1.194,1.232,4.977,4.977,0,0,1-1.773.207h-.538c-7.059-.156-14.193-1.722-21.088-.229a15.265,15.265,0,0,0-2.437.718,11,11,0,0,0-2.8,1.614v-.038c.374-1.91,1.383-2.381,3.053-3.252a36.649,36.649,0,0,1,6.015-2.5,24.447,24.447,0,0,1,12.544-.791c1.945.436,3.82,1.157,5.768,1.579.767.167,1.539.285,2.316.385a1.859,1.859,0,0,1,.134,1.076Z" transform="translate(-9.405 -21.771)" opacity="0.1"/>
      <path id="패스_123" data-name="패스 123" d="M107.654,148.019a1.8,1.8,0,0,1-1.194,1.235,4.915,4.915,0,0,1-1.773.2h-.538c-7.059-.156-14.193-1.722-21.088-.229a15.543,15.543,0,0,0-2.437.716,11.083,11.083,0,0,0-2.919,1.722q-.309-.85-.616-1.7c-.247-.678.538-.829.689-1.437a3.273,3.273,0,0,0-.156-1.318,2.3,2.3,0,0,1-.043-.326,2.071,2.071,0,0,1,1.095-2.055,30.341,30.341,0,0,1,7.939-3.435,19.637,19.637,0,0,1,4.412-.855,21.646,21.646,0,0,1,6.3.767,27.019,27.019,0,0,1,7.3,2.782,6.865,6.865,0,0,1,2.774,2.6,2.044,2.044,0,0,1,.261,1.337Z" transform="translate(-9.405 -21.771)" fill="#a26565"/>
      <path id="패스_124" data-name="패스 124" d="M84.93,131.862c-.807,2.558-3.01,4.864-5.692,4.974a.993.993,0,0,1-.568-.1.9.9,0,0,1-.207-1.076,4.655,4.655,0,0,0,.414-1.1.721.721,0,0,0-.016-.239,18.571,18.571,0,0,0,3.349-6.411,3.427,3.427,0,0,0,.1-1.256,11.179,11.179,0,0,0-.452-1.391,7.253,7.253,0,0,1-.059-2.564,23.673,23.673,0,0,0-1.84-11.054,10.371,10.371,0,0,1-.9-2.585,1.558,1.558,0,0,1,.885-.756,1.12,1.12,0,0,1,1.59,1c.215,1.423.091,2.876.374,4.3a20.176,20.176,0,0,0,1.181,3.9c.476,1.135,1.055,2.233,1.42,3.408a18.778,18.778,0,0,1,.589,2.959C85.463,126.539,85.745,129.3,84.93,131.862Z" transform="translate(-9.405 -21.771)" opacity="0.1"/>
      <path id="패스_125" data-name="패스 125" d="M107.654,148.019a1.8,1.8,0,0,1-1.194,1.235,4.915,4.915,0,0,1-1.773.2h-.538a11.721,11.721,0,0,0-7.8-1.883,12.606,12.606,0,0,1-2.631.229c-1.773-.161-3.209-1.437-4.788-2.252a10.056,10.056,0,0,0-11.145,1.512l-.153.135a2.3,2.3,0,0,1-.043-.326,2.071,2.071,0,0,1,1.095-2.055,30.341,30.341,0,0,1,7.939-3.435,19.638,19.638,0,0,1,4.412-.855,21.645,21.645,0,0,1,6.3.767,27.018,27.018,0,0,1,7.3,2.782,7,7,0,0,1,2.765,2.607,2.044,2.044,0,0,1,.261,1.337Z" transform="translate(-9.405 -21.771)" opacity="0.1"/>
      <path id="패스_126" data-name="패스 126" d="M113.688,118.552l-.038.1c-.6,1.563-1.711,2.884-2.421,4.406a18.768,18.768,0,0,0-1.315,6.212,32.269,32.269,0,0,0-.2,5.464c.344,4.487,2.537,8.743,3.123,13.144a14.61,14.61,0,0,1,.11,3.069,3.03,3.03,0,0,1-.6,1.824,1.255,1.255,0,0,1-1.73.207c.207-.4.417-.788.627-1.184-1.229-.955-3.08-.269-4.517-.866a7.273,7.273,0,0,1-1.668-1.186,11.7,11.7,0,0,0-8.713-2.545,12.431,12.431,0,0,1-2.631.231c-1.773-.164-3.209-1.437-4.788-2.252a10.061,10.061,0,0,0-11.145,1.509c-.377.35-.882.759-1.345.538a1.119,1.119,0,0,1-.417-.455c-1.762-3.01-.465-6.892,1.418-9.824s4.377-5.636,5.152-9.033a3.371,3.371,0,0,0,.1-1.256,11.179,11.179,0,0,0-.452-1.391,7.253,7.253,0,0,1-.059-2.564,23.673,23.673,0,0,0-1.835-11.056,8.136,8.136,0,0,1-.942-3.11c0-1.716,1.229-3.139,2.246-4.519a27.724,27.724,0,0,1,3.634-4.649,5.4,5.4,0,0,1,5.176-1.369,32.266,32.266,0,0,1,9.028-.88,6.915,6.915,0,0,1,3.053.667c.985.538,1.692,1.5,2.661,2.069a14.5,14.5,0,0,0,2.292.917,9.472,9.472,0,0,1,4.939,4.417A18.837,18.837,0,0,1,114.011,112,14.593,14.593,0,0,1,113.688,118.552Z" transform="translate(-9.405 -21.771)" fill="#3c59fd"/>
      <path id="패스_127" data-name="패스 127" d="M109.709,134.73c.344,4.487,2.537,8.743,3.123,13.144-1.173-.993-2.806-1.991-3.024-3.145-.242-1.248-1.017-2.884-1.146-4.145s.756-2.8-.172-3.669c-.452-.422.751-.3.309-.737a5.572,5.572,0,0,1-1.3-3.833c-.1-2.443.2-4.912-.245-7.314a36.821,36.821,0,0,0-1.281-4.334c-.522-1.676-.9-3.392-1.275-5.111a35.809,35.809,0,0,1-.807-4.643,7.616,7.616,0,0,1,.538-4,3.688,3.688,0,0,1,3.174-2.2c4.552.059,3.766,6.23,4.767,9.082a23.018,23.018,0,0,1,1.159,3.416,9.055,9.055,0,0,1,.129,1.4c-.6,1.563-1.711,2.884-2.421,4.406a18.768,18.768,0,0,0-1.315,6.212A31.277,31.277,0,0,0,109.709,134.73Z" transform="translate(-9.405 -21.771)" opacity="0.1"/>
      <path id="패스_128" data-name="패스 128" d="M112.668,113.752a23.019,23.019,0,0,1,1.159,3.416c.363,1.983-.2,4.089.412,6.01a10.471,10.471,0,0,1,.4,1.256,10.977,10.977,0,0,1-.016,1.856,10.607,10.607,0,0,0,.595,2.93,52.358,52.358,0,0,1,1.87,10,12.534,12.534,0,0,0,.428,2.69,8.935,8.935,0,0,1,.291.909,4.7,4.7,0,0,1,.051,1.246,23.694,23.694,0,0,0-.073,3.954,5.485,5.485,0,0,0,1.614,3.524,5.151,5.151,0,0,1-2.677.1c-1.211-.4-1.937-1.614-2.553-2.722-.78-1.415-3.745-2.69-4.051-4.28-.239-1.246-1.014-2.881-1.143-4.145s.753-2.8-.175-3.667c-.449-.422.753-.307.309-.737a5.585,5.585,0,0,1-1.3-3.836c-.1-2.44.2-4.91-.245-7.312a37.014,37.014,0,0,0-1.281-4.337c-.522-1.673-.9-3.39-1.275-5.111a35.438,35.438,0,0,1-.807-4.643,7.6,7.6,0,0,1,.538-4,3.7,3.7,0,0,1,3.174-2.2C112.448,104.727,111.668,110.9,112.668,113.752Z" transform="translate(-9.405 -21.771)" fill="#3c59fd"/>
      <path id="패스_129" data-name="패스 129" d="M99.7,114.8c.425.5.971,1.044,1.614.947a.35.35,0,0,1-.476.113,1.022,1.022,0,0,1-.358-.412l-.92-1.552c-.121-.2-.955-1.377-1.159-.7C98.316,113.489,99.489,114.562,99.7,114.8Z" transform="translate(-9.405 -21.771)" opacity="0.1"/>
      <path id="패스_130" data-name="패스 130" d="M99.2,118.675a2.05,2.05,0,0,0-.6-1.345,3.363,3.363,0,0,0-1.111-.67,8.048,8.048,0,0,0-3.3-.694c.4.581,1.676.928,2.316,1.256Q97.87,117.925,99.2,118.675Z" transform="translate(-9.405 -21.771)" opacity="0.1"/>
      <path id="패스_131" data-name="패스 131" d="M102.066,129.694a5.162,5.162,0,0,1-2.453,3.228,10.872,10.872,0,0,0-3.166,2.669c-.517.807-.748,1.743-1.186,2.585a29.974,29.974,0,0,1-1.786,2.58,4.21,4.21,0,0,0-.853,2.946.347.347,0,0,0,.124.247.352.352,0,0,0,.342-.038c1.173-.613,1.636-2.015,2.128-3.228a37.3,37.3,0,0,1,1.743-3.583,3.3,3.3,0,0,1,1.151-1.423,10.1,10.1,0,0,1,1.135-.4,3.817,3.817,0,0,0,1.4-1.1,9.238,9.238,0,0,0,2.152-6.271c-.016-.482-.043-2.8-.767-2.085S102.19,128.758,102.066,129.694Z" transform="translate(-9.405 -21.771)" opacity="0.1"/>
      <path id="패스_132" data-name="패스 132" d="M103.839,76.868c2.314,1.009,4.3,3.228,4.232,5.743-.062,2.642-2.273,5.13-1.512,7.662.441,1.469,1.77,2.453,2.822,3.57a11.969,11.969,0,0,1-.022,15.872c-1.539,1.614-3.516,2.763-5.144,4.3-5.738,5.407-5.983,14.761-2.911,22.021a35.815,35.815,0,0,1-7.161.807c-1.127,0-2.507-.191-2.916-1.243-.377-.971.269-2.284-.473-3a2.428,2.428,0,0,0-1.345-.46,9.1,9.1,0,0,1-6.65-5.757,15.618,15.618,0,0,1-.425-9.052c.463-2.166,1.186-4.549.113-6.486-1.345-2.437-5.213-3.465-5.154-6.252.048-2.284,2.741-3.395,4.269-5.092,2.819-3.126,1.477-7.976,1.472-12.189a13.412,13.412,0,0,1,4.057-10C91.2,73.607,99.1,74.81,103.839,76.868Z" transform="translate(-9.405 -21.771)" fill="#a26565"/>
      <g id="그룹_7" data-name="그룹 7" opacity="0.1">
        <path id="패스_133" data-name="패스 133" d="M82.888,108.084c-1.181-2.131-4.283-3.185-5-5.281a2.983,2.983,0,0,0-.581,1.684c-.059,2.787,3.8,3.815,5.154,6.255a5.082,5.082,0,0,1,.538,2.8C83.421,111.673,83.8,109.72,82.888,108.084Z" transform="translate(-9.405 -21.771)"/>
        <path id="패스_134" data-name="패스 134" d="M106.868,86.824a15.013,15.013,0,0,0,1.221-4.3,4.033,4.033,0,0,0-.013-.476C107.535,83.663,106.707,85.234,106.868,86.824Z" transform="translate(-9.405 -21.771)"/>
        <path id="패스_135" data-name="패스 135" d="M83.351,94.348c.925-2.924.126-6.55.124-9.795,0-.393.016-.788.046-1.181a15.533,15.533,0,0,0-.479,3.836C83.047,89.525,83.453,92.038,83.351,94.348Z" transform="translate(-9.405 -21.771)"/>
        <path id="패스_136" data-name="패스 136" d="M109.809,106.962c-1.539,1.614-3.516,2.763-5.144,4.3a16.162,16.162,0,0,0-4.772,10.457,15.379,15.379,0,0,1,4.342-7.8c1.614-1.533,3.6-2.677,5.144-4.3a11.43,11.43,0,0,0,3-7.28A10.925,10.925,0,0,1,109.809,106.962Z" transform="translate(-9.405 -21.771)"/>
        <path id="패스_137" data-name="패스 137" d="M94.593,134.087c-1.127,0-2.507-.194-2.916-1.246-.377-.968.269-2.281-.473-3a2.436,2.436,0,0,0-1.345-.46,9.093,9.093,0,0,1-6.647-5.754,14.389,14.389,0,0,1-.807-6.663c-.022.089-.04.178-.059.269a15.74,15.74,0,0,0,.425,9.055,9.083,9.083,0,0,0,6.647,5.754,2.4,2.4,0,0,1,1.345.46c.751.721.1,2.034.473,3,.409,1.052,1.789,1.259,2.916,1.246a35.841,35.841,0,0,0,7.161-.807,24.046,24.046,0,0,1-.869-2.4A35.709,35.709,0,0,1,94.593,134.087Z" transform="translate(-9.405 -21.771)"/>
      </g>
      <path id="패스_138" data-name="패스 138" d="M103.4,122.355c.664.5,1.385-1.407.974-1.883A9.138,9.138,0,0,0,103.4,122.355Z" transform="translate(-9.405 -21.771)" opacity="0.1"/>
      <path id="패스_139" data-name="패스 139" d="M106.236,156.881a4.362,4.362,0,0,0,2.125-1.184c.422-.519.769-2.58-.124-1.593C107.479,154.952,107.121,156.068,106.236,156.881Z" transform="translate(-9.405 -21.771)" opacity="0.1"/>
      <path id="패스_140" data-name="패스 140" d="M114.207,154.72a3.09,3.09,0,0,1-.718,1.751c-.083.086-.269.14-.293.024a6.8,6.8,0,0,0,1.388-.979c.909-.9,1.033-3.121-.352-3.71A21.085,21.085,0,0,1,114.207,154.72Z" transform="translate(-9.405 -21.771)" opacity="0.1"/>
      <path id="패스_141" data-name="패스 141" d="M123.776,150.72s-7.635-3-10.395-2.69,3.126,4.659,3.126,4.659l3.519,2.373s2.152-.807,2.295-.869S123.776,150.72,123.776,150.72Z" transform="translate(-9.405 -21.771)" fill="#454b69"/>
      <path id="패스_142" data-name="패스 142" d="M71.246,118.541s5.735-3.325,13.305.807S93.383,147.8,93.383,147.8s-3.1,24.773,8.842,19.261c0,0,21.79-6.766,23.972-5.275,0,0,2.066,0-2.063.917s-20.082,5.972-20.082,5.972-5.157,1.8-7.341,0-8.374.231-9.179-12.159a215.477,215.477,0,0,0-2.868-23.286l-2.128-6.308Z" transform="translate(-9.405 -21.771)" fill="#565661"/>
      <path id="패스_143" data-name="패스 143" d="M70.557,156.854s2.523-25.12-1.614-34.184c-3.6-7.9,10.319-4.2,13.951-3.129a2.644,2.644,0,0,1,1.393,1,45,45,0,0,1,7.6,31.386s-.917,14.454,4.818,16.746l-17.672-5.692c-1.434-.463-2.889-.847-4.358-1.181C72.8,161.37,69.75,160.163,70.557,156.854Z" transform="translate(-9.405 -21.771)" fill="#fff"/>
      <path id="패스_144" data-name="패스 144" d="M186.838,181.98h2.295l1.5-30.84.1-1.754-1.95-.686-.129,1.864Z" fill="#565661"/>
      <path id="패스_145" data-name="패스 145" d="M188.659,150.564l1.977.576.1-1.754-1.95-.686Z" opacity="0.1"/>
      <path id="패스_146" data-name="패스 146" d="M177.084,191.842a5.171,5.171,0,0,1-.323,1.232,2.176,2.176,0,0,1-.982,1.227,2.594,2.594,0,0,1-.993.2,6.449,6.449,0,0,1-3.7-.589,6.726,6.726,0,0,1-1.267-1.057,57.811,57.811,0,0,1-6.65-7.909,2.065,2.065,0,0,1-.525-1.614,25.075,25.075,0,0,0,7.2-3.3,3.476,3.476,0,0,1,1.012-.538,5.5,5.5,0,0,1,1.9-.07c.611.1.638.118.872.807.387,1.165.323,2.421.759,3.586a11.111,11.111,0,0,0,1.006,1.84A9.848,9.848,0,0,1,177.084,191.842Z" transform="translate(-9.405 -21.771)" fill="#a26565"/>
      <path id="패스_147" data-name="패스 147" d="M177.084,191.842a5.171,5.171,0,0,1-.323,1.232,2.176,2.176,0,0,1-.982,1.227,2.594,2.594,0,0,1-.993.2,6.449,6.449,0,0,1-3.7-.589,6.726,6.726,0,0,1-1.267-1.057,57.811,57.811,0,0,1-6.65-7.909,2.065,2.065,0,0,1-.525-1.614,24.969,24.969,0,0,0,2.464-.823l.04.03a9.04,9.04,0,0,1,2.01,2.262l1.883,2.65a7.8,7.8,0,0,0,1.181,1.426,7.9,7.9,0,0,0,1.827,1.1c.885.428,1.77.855,2.69,1.2C175.338,191.409,176.344,191.5,177.084,191.842Z" transform="translate(-9.405 -21.771)" opacity="0.1"/>
      <path id="패스_148" data-name="패스 148" d="M178.821,163.114a8.1,8.1,0,0,1-.673,1.283,54.922,54.922,0,0,0-5.735,13.421c-.371-.083-.581.422-.578.807s0,.869-.355,1.009c-.1.04-.223.04-.326.086-.226.1-.291.39-.323.638l-.317,2.33a2.891,2.891,0,0,0,1.229,3.47l5.251,4.143c.215.169.482.35.74.256.589-.215.067-1.27.538-1.7.312-.293.807-.073,1.24-.108a1.4,1.4,0,0,0,1.135-1.108,5.27,5.27,0,0,0,.03-1.684,1.528,1.528,0,0,1,.086-.756,1.835,1.835,0,0,1,.643-.616,6.9,6.9,0,0,0,2.827-5.821,3.228,3.228,0,0,1,.038-1.03,2.714,2.714,0,0,1,.487-.85,78.746,78.746,0,0,0,5.076-8.175,16.31,16.31,0,0,0,2.152-5.071.471.471,0,0,0-.387-.646,18.3,18.3,0,0,0-2.4-.576c-2.472-.5-4.858-1.272-7.263-2.015S179.545,161.171,178.821,163.114Z" transform="translate(-9.405 -21.771)" fill="#454b69"/>
      <path id="패스_149" data-name="패스 149" d="M158.045,188.5l3.788.457,17.435-39.575,4.7-.344,8.261,2.41,1.6,47.118h3.785l-1.49-48.839,9.063.231,16.173,40.261h3.441L207.8,143.169l-.654-1.813-25.352-.869-6.319,3.543-.081.2Z" fill="#565661"/>
      <path id="패스_150" data-name="패스 150" d="M184.8,166.006c5.448,1.641,11.1,3.433,11.1,3.433s5.157,1.8,7.341,0a3.3,3.3,0,0,1,.912-.5,4.491,4.491,0,0,1-.912.5l13.962-4.5-.646-1.81-25.352-.869-6.319,3.543Z" transform="translate(-9.405 -21.771)" opacity="0.1"/>
      <path id="패스_151" data-name="패스 151" d="M210.581,158.2,200.259,155.9s-24.663,4.589-26.5,6.424c0,0,19.729,4.014,21.908,5.38S210.813,170.584,210.581,158.2Z" transform="translate(-9.405 -21.771)" fill="#fff"/>
      <path id="패스_152" data-name="패스 152" d="M172.279,195.073c-.621,1.184-2.152,1.517-3.5,1.536a14.766,14.766,0,0,1-5.466-.977,31.8,31.8,0,0,0-2.978-1.154c-1.531-.42-3.228-.385-4.573-1.227a5.38,5.38,0,0,1-1.719-1.864c-.078-.132-.153-.269-.223-.409a5.761,5.761,0,0,1-.584-4.057c.358-1.35,1.657-2.838,3.164-2.817,1.789.027,3.922.874,5.649,1.313a22.6,22.6,0,0,1,6.206,2.3,9.283,9.283,0,0,1,3.75,4.011,6.8,6.8,0,0,1,.355,1A3.137,3.137,0,0,1,172.279,195.073Z" transform="translate(-9.405 -21.771)" fill="#a26565"/>
      <path id="패스_153" data-name="패스 153" d="M172.279,195.073c-.621,1.184-2.152,1.517-3.5,1.536a14.766,14.766,0,0,1-5.466-.977,31.8,31.8,0,0,0-2.978-1.154c-1.531-.42-3.228-.385-4.573-1.227a5.38,5.38,0,0,1-1.719-1.864c-.078-.132-.153-.269-.223-.409.269.022.517.048.651.062a26.87,26.87,0,0,1,4.8,1.216A26.988,26.988,0,0,0,166,193.305a9.068,9.068,0,0,0,4.708-.861,12.348,12.348,0,0,1,1.307-.718,6.794,6.794,0,0,1,.355,1A3.19,3.19,0,0,1,172.279,195.073Z" transform="translate(-9.405 -21.771)" opacity="0.1"/>
      <path id="패스_154" data-name="패스 154" d="M183.839,143.922a86.691,86.691,0,0,0-10.6-.853L168.9,142.9a1.967,1.967,0,0,0-.912.11,5.942,5.942,0,0,0-.713.538,2.949,2.949,0,0,1-1.517.358,75.53,75.53,0,0,0-11.073,1.437,10.73,10.73,0,0,0-5.254,2.187,7.68,7.68,0,0,0-2.2,5.5A19.921,19.921,0,0,0,148.27,159a27.194,27.194,0,0,1,1.176,7.226,13.518,13.518,0,0,0,.078,2.036,9.743,9.743,0,0,0,.568,1.883l1.98,5.286c.175.463.347.923.538,1.375s.374.807.538,1.232c.242.581.433,1.184.624,1.784l1.318,4.14.172.538a15.555,15.555,0,0,0,1.862,4.288,5.251,5.251,0,0,0,3.852,2.392,11.8,11.8,0,0,1,1.512.04,6.112,6.112,0,0,1,1.24.449,9.461,9.461,0,0,0,3.7.724,3.6,3.6,0,0,0,3.1-1.31,4.565,4.565,0,0,0,.538-1.835,8.159,8.159,0,0,0-.1-3.817c-.269-.724-.721-1.345-1.033-2.058a20.919,20.919,0,0,1-.861-3.069,11.723,11.723,0,0,0-3.578-5.692,56.108,56.108,0,0,1-1.345-7.366,6.481,6.481,0,0,0-.325-1.614c-.315-.807-.952-1.461-1.219-2.284a8.507,8.507,0,0,0-.63-2.305c3.785,1.041,7.532.807,11.463.745a31.318,31.318,0,0,0,3.766-.215,11.835,11.835,0,0,1,1.765-.188,9.131,9.131,0,0,1,3.473,1.011,28.6,28.6,0,0,0,9.908,2.548,38.678,38.678,0,0,0,10.492-1.506,10.321,10.321,0,0,0,4.3-1.754,3.517,3.517,0,0,0,1.141-4.167,5.129,5.129,0,0,0-2.827-1.966c-3.024-1.194-6.064-2.359-8.977-3.8C192.041,149.572,188.713,144.729,183.839,143.922Z" transform="translate(-9.405 -21.771)" fill="#454b69"/>
      <path id="패스_155" data-name="패스 155" d="M177.6,131.752a26.445,26.445,0,0,1-1.657,2.523,6.394,6.394,0,0,0-.807,4.748,5.4,5.4,0,0,0,3.026,3.683,7.6,7.6,0,0,0,2.1.506,4.634,4.634,0,0,0,2.792-.317,4.078,4.078,0,0,0,1.488-1.555,15.768,15.768,0,0,0,1.512-3.933,25.715,25.715,0,0,0,1.205-7.68,2.959,2.959,0,0,0-.95-2.421,3.193,3.193,0,0,0-1.248-.409l-3.548-.635c-.686-.124-1.883-.627-2.478-.132s-.64,1.958-.742,2.644A11.166,11.166,0,0,1,177.6,131.752Z" transform="translate(-9.405 -21.771)" fill="#a1616a"/>
      <path id="패스_156" data-name="패스 156" d="M220.734,121.347l-.928,7.78a35.78,35.78,0,0,0-.331,4.186,3.281,3.281,0,0,1-.492,2.23,2.033,2.033,0,0,1-.925.557,4.961,4.961,0,0,1-3.433-.444,2.839,2.839,0,0,1-1.558-1.286,3.2,3.2,0,0,1-.2-1.364c0-4.64.439-9.48,2.862-13.435a2.93,2.93,0,0,1,.853-.985,2.8,2.8,0,0,1,2.314-.075c.468.143,1.732.3,2.031.718S220.8,120.811,220.734,121.347Z" transform="translate(-9.405 -21.771)" fill="#a1616a"/>
      <circle id="타원_17" data-name="타원 17" cx="9.684" cy="9.684" r="9.684" transform="translate(177.022 52.073)" fill="#a1616a"/>
      <path id="패스_157" data-name="패스 157" d="M193.52,97.961a5,5,0,0,1-.6,2.152q7.417-1.13,14.8-2.518a6.949,6.949,0,0,1-3.433-4.035,11.4,11.4,0,0,1-.436-2.876,33.246,33.246,0,0,1,.089-4.63,23.492,23.492,0,0,0-4.993,1.38,49.226,49.226,0,0,1-5.028,1.407c-.82.183-1.646.339-2.475.484-.968.172-1.434.169-.761,1.02C192.485,92.616,193.773,94.924,193.52,97.961Z" transform="translate(-9.405 -21.771)" fill="#a1616a"/>
      <path id="패스_158" data-name="패스 158" d="M196.5,96.667a7.633,7.633,0,0,0-3.637,1.2,13.724,13.724,0,0,0-1.106,1.063c-2.026,1.966-4.885,2.757-7.344,4.145a3.228,3.228,0,0,0-1.044.82c-.269.374-.406.85-.689,1.221-.328.43-.847.7-1.1,1.176a3.318,3.318,0,0,0-.226,1.488,13.847,13.847,0,0,1-.807,3.228c-1.493,5.087-.675,10.761-2.935,15.565a2.187,2.187,0,0,0,1.189,1.243,6.753,6.753,0,0,0,1.765.379l5.006.621a3.953,3.953,0,0,0,2.128-.126,25,25,0,0,0-1.262,5.092,25.36,25.36,0,0,1-.565,3.153,10.571,10.571,0,0,1-4.474,5.687,1.654,1.654,0,0,0-.632.584c-.269.538.129,1.141.412,1.668.82,1.528.708,3.363.7,5.1s.164,3.634,1.375,4.877a7.355,7.355,0,0,0,2.647,1.512l7.831,3.129a27.288,27.288,0,0,0,3.987,1.345,23.806,23.806,0,0,0,6.324.36q2.1-.089,4.191-.269a3.261,3.261,0,0,0,1.585-.417,2.959,2.959,0,0,0,.928-1.259c1.089-2.37,1.455-5.135,3.145-7.121,1.159-1.364,2.959-2.453,3.091-4.237.062-.888-.334-1.751-.339-2.642,0-1.095.573-2.136.538-3.228-.073-1.778-1.749-3.134-2.015-4.893-.678-4.46,1.587-8.915,2.978-13.206a2.939,2.939,0,0,1,1.31-1.942c.737-.328,1.775-.156,2.039-.882a15.678,15.678,0,0,0,.737-5.9c-.048-1.122-.447-2.219-.4-3.344.032-.791.285-1.56.352-2.348a9.971,9.971,0,0,0-.538-3.527,5.525,5.525,0,0,0-.42-1.189,5.648,5.648,0,0,0-.7-.96l-1.31-1.558a6.009,6.009,0,0,0-2.152-1.854c-.288-.713-1.208-1.205-1.867-1.6a19.131,19.131,0,0,0-2.055-1.009l-7.409-3.271a3.034,3.034,0,0,0-.88-.285,2.849,2.849,0,0,0-1.307.269A32.407,32.407,0,0,1,196.5,96.667Z" transform="translate(-9.405 -21.771)" fill="#3c59fd"/>
      <path id="패스_159" data-name="패스 159" d="M188.648,85.213c-.285-1-1.014-1.87-1.124-2.908a7.812,7.812,0,0,1,.538-2.714,2.542,2.542,0,0,0-.49-2.593c-.118-.1-.269-.194-.312-.344-.086-.269.186-.514.269-.786.153-.538-.511-1.133-.269-1.649.137-.282.482-.382.783-.471a3.441,3.441,0,0,0,2.569-2.276c.9.377,1.862-.331,2.553-1.017s1.541-1.469,2.494-1.262l-.213.433A6.887,6.887,0,0,1,200,69.575h-.452a6.246,6.246,0,0,1,3.6,1.219c-.116,0-.126.172-.081.269a3.117,3.117,0,0,0,2.279,1.563,3.233,3.233,0,0,1,1.585.635c.412.4.42,1.246-.124,1.439a14.151,14.151,0,0,1,3.123,1.695c.269.2.573.463.538.807a2.627,2.627,0,0,1-.167.5,1.741,1.741,0,0,0,.057.861l.3,1.232c.328,1.369.586,3.018-.412,4.011a3.683,3.683,0,0,1-.648,4.347,1.792,1.792,0,0,1-1.345,2.316,1.207,1.207,0,0,1-.495,1.576,2.876,2.876,0,0,1-1.786.269,7.624,7.624,0,0,0-1.832-.1c-.885.137-1.751.74-2.6.471a5.845,5.845,0,0,1-.912-.49,7.4,7.4,0,0,0-1.953-.538,9.023,9.023,0,0,1-3.156-1.345,3.7,3.7,0,0,1-1.45-1.614c-.592-1.5.4-3.457-.643-4.675a1.848,1.848,0,0,0-2.515-.113c-.342.3-.387.944-.742,1.173a4.694,4.694,0,0,1-1.517.129Z" transform="translate(-9.405 -21.771)" fill="#464353"/>
      <path id="패스_160" data-name="패스 160" d="M175.488,162.35a4.438,4.438,0,0,1-.977-1.076,2.007,2.007,0,0,1-.3-1.391,3.979,3.979,0,0,0,1.046,3.422,3.545,3.545,0,0,0,2.93,1.133C178.052,163.646,176.115,162.882,175.488,162.35Z" transform="translate(-9.405 -21.771)" opacity="0.1"/>
      <path id="패스_161" data-name="패스 161" d="M228.7,119.079s-5.735-3.325-13.305.807-8.832,28.448-8.832,28.448,3.1,24.773-8.842,19.261c0,0-21.79-6.766-23.972-5.275,0,0-2.066,0,2.063.917S195.9,169.21,195.9,169.21s5.157,1.8,7.341,0,8.374.231,9.179-12.159a215.477,215.477,0,0,1,2.868-23.286l2.128-6.308Z" transform="translate(-9.405 -21.771)" fill="#565661"/>
      <path id="패스_162" data-name="패스 162" d="M229.393,157.392s-2.523-25.12,1.614-34.184c3.6-7.9-10.319-4.2-13.951-3.129a2.644,2.644,0,0,0-1.393,1,45,45,0,0,0-7.6,31.386s.917,14.454-4.818,16.746l17.672-5.692c1.434-.463,2.889-.847,4.358-1.181C227.15,161.909,230.2,160.7,229.393,157.392Z" transform="translate(-9.405 -21.771)" fill="#fff"/>
      <ellipse id="타원_18" data-name="타원 18" cx="26.213" cy="4.21" rx="26.213" ry="4.21" transform="translate(240.103 176.048)" fill="#3c59fd" opacity="0.1"/>
      <rect id="사각형_229" data-name="사각형 229" width="1.687" height="37.977" transform="translate(265.471 99.605)" fill="#535461"/>
      <path id="패스_163" data-name="패스 163" d="M287.164,159.237l-.1,1.711-.151,2.421-.062,1.006L286.7,166.8l-.065,1.006-.151,2.421-1.7,27.458a4.654,4.654,0,0,1-4.643,4.347H271.3a4.649,4.649,0,0,1-4.638-4.363L264.954,170.2l-.148-2.421-.062-1.006-.153-2.421-.062-1.006-.148-2.421-.108-1.711a2.421,2.421,0,0,1,2.4-2.558h18.083a2.421,2.421,0,0,1,2.4,2.577Z" transform="translate(-9.405 -21.771)" fill="#565661"/>
      <path id="패스_164" data-name="패스 164" d="M277.654,139.177l-.151,2.413H255.127l-.151-2.413Z" fill="#9d9cb5"/>
      <path id="패스_165" data-name="패스 165" d="M277.442,142.6l-.148,2.416H255.34l-.151-2.416Z" fill="#9d9cb5"/>
      <path id="패스_166" data-name="패스 166" d="M277.229,146.021l-.151,2.413H255.552l-.151-2.413Z" fill="#9d9cb5"/>
      <path id="패스_167" data-name="패스 167" d="M261.8,135.61c9.824,7.107,13.916,18.223,13.916,18.223s-11.837-.406-21.664-7.514-13.913-18.22-13.913-18.22S251.982,128.505,261.8,135.61Z" transform="translate(-9.405 -21.771)" fill="#3c59fd"/>
      <path id="패스_168" data-name="패스 168" d="M240.143,128.1s12.286,6.819,16.23,12.466,19.347,13.268,19.347,13.268" transform="translate(-9.405 -21.771)" fill="none" stroke="#535461" stroke-miterlimit="10" stroke-width="0.538"/>
      <path id="패스_169" data-name="패스 169" d="M268.145,121.293a23.817,23.817,0,0,1,7.575,9.919A21.605,21.605,0,0,1,256.37,117.2,23.782,23.782,0,0,1,268.145,121.293Z" transform="translate(-9.405 -21.771)" fill="#3c59fd"/>
      <path id="패스_170" data-name="패스 170" d="M256.37,117.2s6.688,3.712,8.832,6.785,10.532,7.223,10.532,7.223" transform="translate(-9.405 -21.771)" fill="none" stroke="#535461" stroke-miterlimit="10" stroke-width="0.538"/>
      <path id="패스_171" data-name="패스 171" d="M283.489,130.9a32.945,32.945,0,0,0-7.441,15.57,32.915,32.915,0,0,0,14.8-8.877,33.017,33.017,0,0,0,7.441-15.571A32.972,32.972,0,0,0,283.489,130.9Z" transform="translate(-9.405 -21.771)" fill="#3c59fd"/>
      <path id="패스_172" data-name="패스 172" d="M298.29,122.027s-8,6.919-10.034,11.686-12.208,12.759-12.208,12.759" transform="translate(-9.405 -21.771)" fill="none" stroke="#535461" stroke-miterlimit="10" stroke-width="0.538"/>
      <path id="패스_173" data-name="패스 173" d="M159.24,114.654v.613H141.052v-.5a6.112,6.112,0,0,0,1.4-.748,5.975,5.975,0,0,0,2.5-4.858,5.9,5.9,0,0,0-.186-1.472,5.98,5.98,0,0,0-3.3-3.963h17.653a5.98,5.98,0,0,0-3.3,3.963,5.9,5.9,0,0,0-.183,1.472,5.972,5.972,0,0,0,2.494,4.858,6.153,6.153,0,0,0,1.116.632Z" transform="translate(-9.405 -21.771)" fill="#dfe6f5"/>
      <path id="패스_174" data-name="패스 174" d="M159.116,103.729a5.98,5.98,0,0,0-3.3,3.963H144.767a5.98,5.98,0,0,0-3.3-3.963Z" transform="translate(-9.405 -21.771)" opacity="0.1"/>
      <path id="패스_175" data-name="패스 175" d="M120.228,100.595v3.454a3.3,3.3,0,0,0,3.115,3.451h53.509a3.3,3.3,0,0,0,3.118-3.451v-3.454Z" transform="translate(-9.405 -21.771)" fill="#dfe6f5"/>
      <path id="패스_176" data-name="패스 176" d="M159.24,114.654v.613H141.052v-.5a6.112,6.112,0,0,0,1.4-.748h15.667a6.153,6.153,0,0,0,1.116.632Z" transform="translate(-9.405 -21.771)" opacity="0.1"/>
      <rect id="사각형_230" data-name="사각형 230" width="30.208" height="1.821" rx="0.911" transform="translate(125.637 92.441)" fill="#dfe6f5"/>
      <path id="패스_177" data-name="패스 177" d="M179.97,62.764a3.115,3.115,0,0,0-3.118-3.115H123.343a3.112,3.112,0,0,0-3.115,3.115v38.5H179.97Z" transform="translate(-9.405 -21.771)" fill="#474157"/>
      <path id="패스_178" data-name="패스 178" d="M178.34,64.154V97.243a1.533,1.533,0,0,1-1.533,1.536H123.391a1.533,1.533,0,0,1-1.533-1.536V64.154a1.512,1.512,0,0,1,.2-.767,1.533,1.533,0,0,1,1.329-.767h53.415a1.533,1.533,0,0,1,1.533,1.533Z" transform="translate(-9.405 -21.771)" fill="#4c4c78"/>
      <circle id="타원_19" data-name="타원 19" cx="0.718" cy="0.718" r="0.718" transform="translate(139.976 38.644)" fill="#fff"/>
      <circle id="타원_20" data-name="타원 20" cx="1.773" cy="1.773" r="1.773" transform="translate(138.921 80.648)" fill="#fff"/>
      <path id="패스_179" data-name="패스 179" d="M178.34,64.154H121.863a1.533,1.533,0,0,1,1.533-1.533h53.41a1.533,1.533,0,0,1,1.533,1.533Z" transform="translate(-9.405 -21.771)" fill="#c8cad7"/>
      <circle id="타원_21" data-name="타원 21" cx="0.385" cy="0.385" r="0.385" transform="translate(113.602 41.232)" fill="#ededf4"/>
      <circle id="타원_22" data-name="타원 22" cx="0.385" cy="0.385" r="0.385" transform="translate(114.753 41.232)" fill="#ededf4"/>
      <circle id="타원_23" data-name="타원 23" cx="0.385" cy="0.385" r="0.385" transform="translate(115.905 41.232)" fill="#ededf4"/>
    </g>
  </g>
</svg>
