<svg xmlns="http://www.w3.org/2000/svg" xmlns:xlink="http://www.w3.org/1999/xlink" width="304" height="246" viewBox="0 0 304 246">
  <defs>
    <clipPath id="clip-path">
      <rect id="사각형_236" data-name="사각형 236" width="304" height="246" transform="translate(1315 782)" fill="#fff" stroke="#707070" stroke-width="1"/>
    </clipPath>
    <linearGradient id="linear-gradient" x1="0.5" y1="1" x2="0.5" gradientUnits="objectBoundingBox">
      <stop offset="0" stop-color="gray" stop-opacity="0.251"/>
      <stop offset="0.54" stop-color="gray" stop-opacity="0.122"/>
      <stop offset="1" stop-color="gray" stop-opacity="0.102"/>
    </linearGradient>
  </defs>
  <g id="마스크_그룹_4" data-name="마스크 그룹 4" transform="translate(-1315 -782)" clip-path="url(#clip-path)">
    <g id="undraw_version_control_9bpv" transform="translate(1314.999 803.497)">
      <path id="패스_180" data-name="패스 180" d="M203.833,62.881c-18.951-.659-37-6.776-54.237-13.469s-34.306-14.11-52.8-17.656c-11.9-2.281-25.5-2.6-35.087,3.774C52.483,41.678,49.5,52.263,47.9,62.093c-1.2,7.4-1.915,15.182,1.391,22.107,2.293,4.808,6.366,8.849,9.182,13.455,9.8,16.023,2.872,35.781-7.748,51.426-4.978,7.338-10.758,14.348-14.6,22.154S30.5,188,33.86,195.968c3.335,7.906,11.279,13.832,19.882,18,17.478,8.474,38.065,10.9,58.158,12.275,44.454,3.042,89.149,1.725,133.72.407,16.5-.489,33.064-.984,49.291-3.534,9.013-1.417,18.318-3.666,24.859-9.077,8.3-6.89,10.363-18.558,4.8-27.2-9.335-14.491-35.137-18.093-41.67-33.644-3.593-8.559.1-18.1,5.315-26.034,11.2-17.033,29.963-31.972,30.953-51.441.679-13.37-8.342-26.76-22.292-33.087-14.623-6.632-34.9-5.8-45.678,5.18C240.083,59.112,220.564,63.461,203.833,62.881Z" transform="translate(-23.685 -30.262)" fill="#3c59fd" opacity="0.1"/>
      <path id="패스_181" data-name="패스 181" d="M155.078,221.024a11.112,11.112,0,0,0-1.171-3.054,10.7,10.7,0,0,0-1.918-2.1c-2.123-1.927-4.729-3.883-7.543-3.4a10.07,10.07,0,0,0-2.5.914c-.41.19-.823.381-1.244.542a6.2,6.2,0,0,1-3.754.328c-.644-.173-1.244-.483-1.88-.676a5.956,5.956,0,0,0-.922-.2,15.708,15.708,0,0,0,1.783-.94c3.156-1.933,5.675-5.426,5.323-9.162a15.127,15.127,0,0,0-.978-3.645l-1.124-3.11a13.3,13.3,0,0,0-1.877-3.839,9.713,9.713,0,0,0-3.845-2.723,37.3,37.3,0,0,0-9.891-2.3l-.234-.032V151.289a2.342,2.342,0,0,0-2.342-2.342h-4.421q-.293-1.792-.586-3.578c-.556-3.4-1.133-6.861-2.7-9.92-1.025-2-2.656-3.915-4.855-4.307a4.708,4.708,0,0,1-1.262-.293c-.644-.316-1-1.019-1.49-1.537-1.277-1.338-3.353-1.359-5.063-2.05a26.478,26.478,0,0,1-4.123-2.6,5.4,5.4,0,0,0-4.609-.922,3.09,3.09,0,0,1-.032.331l-.978-.451a10.774,10.774,0,0,1-2.975-1.792A8.545,8.545,0,0,1,85.749,118c-.047-.149-.091-.293-.138-.454a13.6,13.6,0,0,0,3.643-6.954l.237.77a5.112,5.112,0,0,0,.187.509,2.009,2.009,0,0,0,.586.829,1.04,1.04,0,0,0,.246.143,1.025,1.025,0,0,0,.252.064.937.937,0,0,0,.363-.026,1.385,1.385,0,0,0,.878-.814,1.756,1.756,0,0,0,.1-.357,1.845,1.845,0,0,0,.021-.223v-.3a.572.572,0,0,0-.015-.146v-.076a.853.853,0,0,0-.029-.173c-.012-.056,0-.032,0-.047-.015-.073-.032-.149-.047-.223v-.056c0-.018-.026-.12-.041-.182s-.021-.079-.029-.12v-.018h0c-.029-.117-.056-.231-.082-.348a10.067,10.067,0,0,1-.161-3.092,33.108,33.108,0,0,1,.837-4.495l.061-.266c.023-.1.047-.2.067-.31.047-.211.094-.422.138-.635h0l.105-.539.079-.48v-.061a13.882,13.882,0,0,0,.1-3.288h0a6.92,6.92,0,0,0-1.649-4.134c-.735-.817-1.7-1.42-2.386-2.278-.638-.8-1-1.792-1.66-2.58-1.827-2.181-6.518-3.862-9.4-4.155-3.3-.334-8.623.509-11.282,2.457A10.9,10.9,0,0,0,64.4,88.677a13.524,13.524,0,0,1-4.705,4.685,5.713,5.713,0,0,0-2.14,1.353,3.657,3.657,0,0,0-.571,1.517,30.075,30.075,0,0,0-.6,5.792h0v.732a5.338,5.338,0,0,0,.457,2.117c.047.1.1.2.155.293l.035.061a11.648,11.648,0,0,1,.937,1.6,2.114,2.114,0,0,1,.143.486,3.584,3.584,0,0,1-.082,1.283h0a1.127,1.127,0,0,1-.038.193l-.026.126a.247.247,0,0,1-.023.129c-.023.126-.044.252-.061.375h0a2.635,2.635,0,0,0,.064,1.013,1.332,1.332,0,0,0,.65.878,1.9,1.9,0,0,0,.527.164c.184.032.372.053.553.094a2.732,2.732,0,0,1,.671.249,2.7,2.7,0,0,1,.565.363,3.221,3.221,0,0,1,.243.246,4.1,4.1,0,0,1,.416.568q.094.155.176.316a7.224,7.224,0,0,1,.5,1.323c.076.272.141.548.2.823.026.123.05.246.07.366s.041.243.059.363h0a.852.852,0,0,0,.234-.047,1.582,1.582,0,0,0,.805-1.142c.023-.082.044-.161.061-.24.067-.293.138-.615.2-.922a13.578,13.578,0,0,0,5.344,5.885c.082.243.161.483.231.729a4.952,4.952,0,0,1-.1,3.874A4.1,4.1,0,0,1,67.188,126a1.429,1.429,0,0,0-.483-.41,2.231,2.231,0,0,0-2.342.659c-1.171,1.06-2.126,2.58-3.666,2.928a4.231,4.231,0,0,0-1.634.442,3.806,3.806,0,0,0-.758,1,3.49,3.49,0,0,1-3,1.493c-.536-.026-1.171-.149-1.537.243-.272.293-.293.755-.586,1.034-.392.387-1.037.2-1.584.176A3.165,3.165,0,0,0,49,135.052a9.756,9.756,0,0,0-1.171,2.928V138a2.094,2.094,0,0,0-.214.179,3.089,3.089,0,0,0-.647,1.048,50.032,50.032,0,0,0-4.129,17.036,1.757,1.757,0,0,1-.187.826,4.061,4.061,0,0,1-.43.468,1.643,1.643,0,0,0,.272,2.342,1.844,1.844,0,0,1,.313-.416c-.032.135-.061.266-.082.387a10.392,10.392,0,0,0-.032,2.577q.416,6.1.84,12.2c.079,1.151.158,2.3.264,3.446q.307,3.332.878,6.638a2.862,2.862,0,0,0,.064.293c-2.386.758-4.509,2.129-5.4,4.416-.31.791-.451,1.651-.832,2.41-.419.832-1.107,1.5-1.564,2.31a7.023,7.023,0,0,0-.536,4.685,15.562,15.562,0,0,0,4.392,8.02H40.5a4.58,4.58,0,0,0-2,.717,13.586,13.586,0,0,0-6.3,13.78,5.912,5.912,0,0,0,1.212,2.87,4.542,4.542,0,0,0,2.132,1.306,7.406,7.406,0,0,0,1.572.293c3.6.293,7.089-1.376,10.7-1.517a28.7,28.7,0,0,1,3.581.167q2.609.217,5.227.275a6.917,6.917,0,0,0,6.243-2.808,7.643,7.643,0,0,0,1.1-1.739c1.54-.088,3.241-.223,4.471-.322l.018.17a2.336,2.336,0,0,0,.638,1.628,2.228,2.228,0,0,0,.878.36,38.017,38.017,0,0,0,9,1.464,37.979,37.979,0,0,0,4.272-.328l5.35-.618a26.65,26.65,0,0,1,4.6,1c1.546.524,2.99,1.3,4.5,1.921a44.834,44.834,0,0,0,11.033,2.43,2.242,2.242,0,0,0,1.842-.293c.609-.586.407-1.564.234-2.383-.07-.337-.123-.673-.164-1.013a51.316,51.316,0,0,1,7.391,2.565l.419.184c.123.638.712,1.148,1.277,1.836a4.683,4.683,0,0,0,.647.8,2.158,2.158,0,0,0,.928.334,43.283,43.283,0,0,0,11.985.542,12.26,12.26,0,0,1,2.471-.085,10.709,10.709,0,0,1,1.786.4l3.388.972a22.948,22.948,0,0,0,7.645,1.277,9.778,9.778,0,0,0,1.561-.225,7.333,7.333,0,0,0,4.943-3.461C156.468,226.857,155.827,223.776,155.078,221.024Z" transform="translate(-23.685 -30.262)" fill="url(#linear-gradient)"/>
      <path id="패스_182" data-name="패스 182" d="M60.292,220.453c-.618-1.405-1.2-3.022-.586-4.427a3.763,3.763,0,0,1,1.947-1.83,9.37,9.37,0,0,1,2.635-.65,36.779,36.779,0,0,1,8.568-.117,13.957,13.957,0,0,1-.609,4.9c-.343,1.464-.539,1.681-2.05,1.757C69.22,220.143,60.524,220.971,60.292,220.453Z" transform="translate(-23.685 -30.262)" fill="#fbbebe"/>
      <ellipse id="타원_24" data-name="타원 24" cx="41.872" cy="11.712" rx="41.872" ry="11.712" transform="translate(20.81 157.285)" fill="#464353"/>
      <ellipse id="타원_25" data-name="타원 25" cx="41.872" cy="11.712" rx="41.872" ry="11.712" transform="translate(20.81 157.285)" opacity="0.1"/>
      <path id="패스_183" data-name="패스 183" d="M93.875,137.43a13.027,13.027,0,0,1-6.717,6.1,16.86,16.86,0,0,1-5.332,1.013,15.188,15.188,0,0,1-5.885-.717,13.464,13.464,0,0,1-6.149-4.928,30.081,30.081,0,0,1-3.569-7.127,7.922,7.922,0,0,1-.729-4.05c1.508-.343,3.159-.846,3.938-2.184a4.859,4.859,0,0,0,.1-3.836c-.108-.372-.234-.741-.36-1.1-.293-.849-1.3-2.463-.586-3.189.448-.46,2.325-.694,2.972-.993,1.994-.919,3.833-2.249,6.023-2.685a14.5,14.5,0,0,1,5.742.369,1.889,1.889,0,0,1,.709.255,1.7,1.7,0,0,1,.527.791c.539,1.312.855,2.761,1.288,4.129a8.441,8.441,0,0,0,2.117,3.792,10.807,10.807,0,0,0,2.978,1.774l2.594,1.189a3.411,3.411,0,0,1,1.227.794,3.107,3.107,0,0,1,.586,1.593,14.881,14.881,0,0,1-1.47,9Z" transform="translate(-23.685 -30.262)" fill="#fbbebe"/>
      <path id="패스_184" data-name="패스 184" d="M85.831,119.285a13.469,13.469,0,0,1-16.3,2.419c-.108-.372-.234-.741-.36-1.1-.293-.849-1.3-2.463-.586-3.189.448-.46,2.325-.694,2.972-.993,1.994-.919,3.833-2.249,6.023-2.685a14.5,14.5,0,0,1,5.742.369,1.889,1.889,0,0,1,.709.255,1.7,1.7,0,0,1,.527.791C85.082,116.468,85.4,117.917,85.831,119.285Z" transform="translate(-23.685 -30.262)" opacity="0.1"/>
      <circle id="타원_26" data-name="타원 26" cx="13.469" cy="13.469" r="13.469" transform="translate(38.964 65.636)" fill="#fbbebe"/>
      <path id="패스_185" data-name="패스 185" d="M117.156,153.081l-1.107-6.705c-.559-3.364-1.136-6.793-2.7-9.824-1.028-1.985-2.659-3.877-4.858-4.269a4.7,4.7,0,0,1-1.265-.293c-.644-.31-1-1.007-1.49-1.523-1.277-1.323-3.356-1.344-5.066-2.017a25.889,25.889,0,0,1-4.123-2.574,5.477,5.477,0,0,0-4.612-.914,23.112,23.112,0,0,1-1.619,7.686,11.5,11.5,0,0,1-17.352,4.322,14.451,14.451,0,0,1-5.06-8.166c-.19-.773-.407-1.66-1.119-2.015a2.243,2.243,0,0,0-2.342.65c-1.171,1.051-2.129,2.556-3.669,2.911a4.28,4.28,0,0,0-1.634.439,3.718,3.718,0,0,0-.761.987,3.514,3.514,0,0,1-3,1.482c-.536-.026-1.171-.149-1.537.24-.272.293-.293.75-.586,1.022-.4.384-1.037.2-1.587.176a3.2,3.2,0,0,0-2.609,1.464,9.445,9.445,0,0,0-1.171,2.887c3.2,7.127,6.128,14.263,9.329,21.39a1.824,1.824,0,0,1,.231.878,2.14,2.14,0,0,1-.4.878c-1.569,2.521-1.52,5.692-1.347,8.655s.384,6.093-.94,8.749c-.36.729-.829,1.4-1.171,2.126-.8,1.651-1.092,6.934-.624,8.708h66.2c-1.262-3.47-.782-10.433-.518-14.116a51.5,51.5,0,0,0-.5-7.727C117.709,163.326,118.025,158.334,117.156,153.081Z" transform="translate(-23.685 -30.262)" fill="#3c59fd"/>
      <path id="패스_186" data-name="패스 186" d="M42.823,160.752a10.365,10.365,0,0,0-.035,2.556l.84,12.084c.079,1.139.158,2.275.264,3.411.2,2.2.5,4.392.878,6.576a1.171,1.171,0,0,0,1.2,1.139,42.892,42.892,0,0,0,11.311.539c5.768-.322,11.528-1.057,17.305-.931,1.487.032,3.221,0,4.123-1.171s.378-3.066-.8-4.011a6.767,6.767,0,0,0-4.287-1.171c-2-.02-4,.264-5.994.146a29.691,29.691,0,0,1-5.394-.993l-4.978-1.239a19.189,19.189,0,0,1,1.309-4.36,22.644,22.644,0,0,0,1.909-7.882,8.581,8.581,0,0,0-3.236-7.139,10.693,10.693,0,0,0-6.427-1.464c-1.625.047-4.433-.343-5.918.293C43.722,157.651,43.043,159.6,42.823,160.752Z" transform="translate(-23.685 -30.262)" fill="#fbbebe"/>
      <path id="패스_187" data-name="패스 187" d="M120.544,188.382a6.309,6.309,0,0,1,3.095-.1,37.662,37.662,0,0,1,9.9,2.275,9.718,9.718,0,0,1,3.848,2.7,13.341,13.341,0,0,1,1.877,3.807l1.124,3.08a14.83,14.83,0,0,1,.981,3.61c.351,3.686-2.17,7.162-5.341,9.077s-6.9,2.6-10.541,3.312-7.288,1.505-10.91,2.342a43.92,43.92,0,0,1-5.133,1.01c-3.877.439-7.929-.208-11.613,1.075a44.184,44.184,0,0,1-4.421,1.628,27.5,27.5,0,0,1-3.057.466l-6.972.8a38.03,38.03,0,0,1-4.275.328,38.308,38.308,0,0,1-9-1.441,1.714,1.714,0,0,1-1.517-1.968q-.448-3.927-.785-7.862a2.948,2.948,0,0,1,3.113-3.815,72.289,72.289,0,0,1,13.376-.928c1.7-1.7,4.506-1.71,6.735-2.635a20.029,20.029,0,0,0,2.375-1.291,31.037,31.037,0,0,1,13.039-4.12,12.137,12.137,0,0,0,2.667-.381c1.725-.536,3.3-1.994,5.069-1.637a4.1,4.1,0,0,1,.878-1.833c.252-.214.562-.357.794-.586a2.4,2.4,0,0,0,.46-1.965,5.754,5.754,0,0,1-.059-2.073,2.866,2.866,0,0,1,.325-.723A3.958,3.958,0,0,1,120.544,188.382Z" transform="translate(-23.685 -30.262)" fill="#464353"/>
      <path id="패스_188" data-name="패스 188" d="M120.544,188.382a6.309,6.309,0,0,1,3.095-.1,37.662,37.662,0,0,1,9.9,2.275,9.718,9.718,0,0,1,3.848,2.7,13.341,13.341,0,0,1,1.877,3.807l1.124,3.08a14.83,14.83,0,0,1,.981,3.61c.351,3.686-2.17,7.162-5.341,9.077s-6.9,2.6-10.541,3.312-7.288,1.505-10.91,2.342a43.92,43.92,0,0,1-5.133,1.01c-3.877.439-7.929-.208-11.613,1.075a44.184,44.184,0,0,1-4.421,1.628,27.5,27.5,0,0,1-3.057.466l-6.972.8a38.03,38.03,0,0,1-4.275.328,38.308,38.308,0,0,1-9-1.441,1.714,1.714,0,0,1-1.517-1.968q-.448-3.927-.785-7.862a2.948,2.948,0,0,1,3.113-3.815,72.289,72.289,0,0,1,13.376-.928c1.7-1.7,4.506-1.71,6.735-2.635a20.029,20.029,0,0,0,2.375-1.291,31.037,31.037,0,0,1,13.039-4.12,12.137,12.137,0,0,0,2.667-.381c1.725-.536,3.3-1.994,5.069-1.637a4.1,4.1,0,0,1,.878-1.833c.252-.214.562-.357.794-.586a2.4,2.4,0,0,0,.46-1.965,5.754,5.754,0,0,1-.059-2.073,2.866,2.866,0,0,1,.325-.723A3.958,3.958,0,0,1,120.544,188.382Z" transform="translate(-23.685 -30.262)" opacity="0.05"/>
      <path id="패스_189" data-name="패스 189" d="M62.986,222.263a6.952,6.952,0,0,1-6.246,2.782q-2.618-.062-5.23-.272a29.343,29.343,0,0,0-3.584-.167c-3.613.141-7.1,1.795-10.705,1.505a7.59,7.59,0,0,1-1.572-.293,4.577,4.577,0,0,1-2.135-1.294A5.832,5.832,0,0,1,32.3,221.68a13.394,13.394,0,0,1,6.3-13.648,4.621,4.621,0,0,1,2-.712,4.746,4.746,0,0,1,2.026.445l.044.018a15.323,15.323,0,0,1,5.019,3.35,2.829,2.829,0,0,0,.767.618,2.635,2.635,0,0,0,.9.17l3.848.243a9.116,9.116,0,0,1,1.933.266,15.361,15.361,0,0,1,2.032.878,26.015,26.015,0,0,0,6.6,1.528.987.987,0,0,1,.586.234.916.916,0,0,1,.182.381,7.47,7.47,0,0,1-1.564,6.811Z" transform="translate(-23.685 -30.262)" fill="#3f3d56"/>
      <path id="패스_190" data-name="패스 190" d="M42.677,207.786a23.1,23.1,0,0,0-3.85,4.814,24.092,24.092,0,0,0-3.145,9.528,17.685,17.685,0,0,0-.032,3.692,4.576,4.576,0,0,1-2.135-1.294,5.832,5.832,0,0,1-1.212-2.843,13.394,13.394,0,0,1,6.3-13.648,4.62,4.62,0,0,1,2-.712,4.747,4.747,0,0,1,2.026.445Z" transform="translate(-23.685 -30.262)" opacity="0.1"/>
      <path id="패스_191" data-name="패스 191" d="M117.194,215.071c2.152-.059,4.568-.167,6.149,1.283,1.508,1.37,1.707,3.631,1.807,5.666l.114,2.363a4.72,4.72,0,0,1-.225,2.132,3.283,3.283,0,0,1-3.221,1.669,10.834,10.834,0,0,1-3.657-1.142,51.447,51.447,0,0,0-9.955-3.136q.167-2.451.556-4.878c.179-1.121.208-3,.957-3.929.794-.984,1.827-.451,2.9-.269a23.318,23.318,0,0,0,4.571.243Z" transform="translate(-23.685 -30.262)" fill="#fbbebe"/>
      <path id="패스_192" data-name="패스 192" d="M60.319,191.327c0,.293-.46,0-.5-.313a7.132,7.132,0,0,0-4.392-5.271,14.375,14.375,0,0,0-7.057-.773c-3.587.34-7.613,1.713-8.925,5.066-.31.785-.451,1.634-.832,2.386-.422.826-1.11,1.485-1.567,2.287a6.956,6.956,0,0,0-.536,4.659c.764,4.187,3.628,7.768,7.1,10.248s7.525,3.962,11.569,5.3a200.63,200.63,0,0,0,32.795,7.833,31.514,31.514,0,0,1,5.353,1.1c1.546.518,2.993,1.294,4.5,1.9a45.221,45.221,0,0,0,11.039,2.41,2.264,2.264,0,0,0,1.842-.293c.609-.565.407-1.549.234-2.36a12.693,12.693,0,0,1,1.5-9.007c.627-1.054,1.441-2.135,1.324-3.356a3.371,3.371,0,0,0-2.969-2.659,14.87,14.87,0,0,0-4.263.293,2.284,2.284,0,0,1-1.449-.143,2.9,2.9,0,0,1-.568-.5,6.421,6.421,0,0,0-7.478-1.045c-.524.293-1.318-.36-1.862-.606L89.014,205.7c-7.074-3.2-14.184-6.415-21.668-8.442a4.551,4.551,0,0,1-1.669-.694c-.372-.293-.638-.691-.981-1.016a12.505,12.505,0,0,0-2.682-1.487C61.118,193.556,60.114,192.332,60.319,191.327Z" transform="translate(-23.685 -30.262)" fill="#464353"/>
      <path id="패스_193" data-name="패스 193" d="M155.25,229.595a7.329,7.329,0,0,1-4.943,3.429,9.812,9.812,0,0,1-1.564.223,23.1,23.1,0,0,1-7.648-1.265l-3.391-.955a10.7,10.7,0,0,0-1.786-.4,12.257,12.257,0,0,0-2.471.085,43.8,43.8,0,0,1-12.005-.539,2.117,2.117,0,0,1-.928-.331,4.611,4.611,0,0,1-.647-.794c-.922-1.11-1.915-1.757-.823-3.221.63-.849,1.8-1.274,2.287-2.249a5.013,5.013,0,0,0-.114-3.367c-.4-1.391-1.7-1.991-2.161-3.268a2.3,2.3,0,0,1,1.119-2.606,4.647,4.647,0,0,1,2.987-.43c1.016.135,2.012.422,3.034.5,3,.24,6.076-1.309,8.96-.436.635.193,1.236.5,1.88.671a6.252,6.252,0,0,0,3.757-.325c.422-.158.834-.348,1.244-.536a10.022,10.022,0,0,1,2.5-.9c2.814-.483,5.423,1.464,7.546,3.364A10.668,10.668,0,0,1,154,218.321a10.437,10.437,0,0,1,1.171,3.025C155.95,224.055,156.591,227.106,155.25,229.595Z" transform="translate(-23.685 -30.262)" fill="#3f3d56"/>
      <path id="패스_194" data-name="패스 194" d="M155.25,229.595a7.329,7.329,0,0,1-4.943,3.429A9.572,9.572,0,0,0,151.347,228a15.865,15.865,0,0,0-2.96-7.721,27.349,27.349,0,0,0-3.262-3.973c-.931-.937-2.076-1.681-3.077-2.539a10.022,10.022,0,0,1,2.5-.9c2.814-.483,5.423,1.464,7.546,3.364a10.669,10.669,0,0,1,1.918,2.079,10.437,10.437,0,0,1,1.171,3.025C155.95,224.055,156.591,227.106,155.25,229.595Z" transform="translate(-23.685 -30.262)" opacity="0.1"/>
      <path id="패스_195" data-name="패스 195" d="M47.728,139.263a3.031,3.031,0,0,0-.65,1.039,49.151,49.151,0,0,0-4.129,16.872,1.686,1.686,0,0,1-.19.817,3.573,3.573,0,0,1-.43.466A1.616,1.616,0,0,0,42.6,160.8a3.147,3.147,0,0,1,2.667-1.285c4.922-.389,9.73,1.9,14.667,1.728-.348-1.2-.849-2.36-1.133-3.578-1.256-5.408,1.877-11.3-.044-16.506a4.256,4.256,0,0,0-2.035-2.524,5.419,5.419,0,0,0-1.3-.346c-1.247-.225-3.73-1.189-4.937-.8-.445.143-.621.562-.99.814A9.51,9.51,0,0,0,47.728,139.263Z" transform="translate(-23.685 -30.262)" fill="#3c59fd"/>
      <rect id="사각형_232" data-name="사각형 232" width="65.296" height="41.579" rx="2.334" transform="translate(34.426 119.659)" fill="#3f3d56"/>
      <circle id="타원_27" data-name="타원 27" cx="1.757" cy="1.757" r="1.757" transform="translate(65.171 138.692)" fill="#fff"/>
      <path id="패스_196" data-name="패스 196" d="M66.813,87.506a10.732,10.732,0,0,0-2.342,2.714,13.406,13.406,0,0,1-4.708,4.632,5.714,5.714,0,0,0-2.143,1.341,3.613,3.613,0,0,0-.571,1.5,29.765,29.765,0,0,0-.6,5.739,6.378,6.378,0,0,0,.466,2.823,9.671,9.671,0,0,1,1.274,2.407,7.292,7.292,0,0,1-.234,2.091,1.77,1.77,0,0,0,.714,1.862,4.331,4.331,0,0,0,1.083.255c1.947.433,2.6,2.717,2.9,4.606.662-.038.96-.8,1.1-1.414l2.029-9.021c.22-.978.586-2.111,1.561-2.454a5,5,0,0,1,2.05.044c2.679.22,4.946-1.851,7.566-2.422a9.662,9.662,0,0,1,2.55-.17c2.067.1,4.471.952,4.91,2.881.073.313.117.688.41.843s.6.023.908,0c1.312-.132,2.085,1.344,2.463,2.55l1.376,4.392c.2.665.55,1.446,1.271,1.531a1.328,1.328,0,0,0,1.329-1.171,5.131,5.131,0,0,0-.261-1.9c-.647-2.884.343-5.836.946-8.726s.712-6.21-1.312-8.436c-.735-.805-1.7-1.405-2.386-2.255-.638-.8-1-1.774-1.66-2.556-1.83-2.158-6.524-3.824-9.4-4.1C74.8,84.742,69.472,85.576,66.813,87.506Z" transform="translate(-23.685 -30.262)" fill="#3f3d56"/>
      <g id="그룹_8" data-name="그룹 8" opacity="0.1">
        <path id="패스_197" data-name="패스 197" d="M90.847,112.19c-.72-.088-1.066-.878-1.271-1.531q-.688-2.2-1.376-4.392c-.378-1.209-1.151-2.685-2.463-2.55-.307.032-.638.152-.908,0s-.337-.53-.41-.843c-.439-1.933-2.843-2.779-4.91-2.881a9.789,9.789,0,0,0-2.55.167c-2.621.586-4.887,2.635-7.566,2.422a5.052,5.052,0,0,0-2.05-.041c-.987.34-1.341,1.464-1.561,2.454l-2.029,9.019c-.138.621-.436,1.379-1.1,1.414-.293-1.886-.949-4.17-2.9-4.6a4.6,4.6,0,0,1-1.083-.255,1.271,1.271,0,0,1-.565-.63c-.053.272-.114.545-.149.817a1.777,1.777,0,0,0,.714,1.862,4.33,4.33,0,0,0,1.083.255c1.947.433,2.6,2.717,2.9,4.606.662-.038.96-.8,1.1-1.414l2.029-9.021c.22-.978.586-2.111,1.561-2.454a5,5,0,0,1,2.05.044c2.679.22,4.946-1.851,7.566-2.422a9.662,9.662,0,0,1,2.55-.17c2.067.1,4.471.952,4.91,2.881.073.313.117.688.41.843s.6.023.908,0c1.312-.132,2.085,1.344,2.463,2.55q.685,2.2,1.376,4.392c.2.665.55,1.446,1.271,1.531a1.328,1.328,0,0,0,1.329-1.171A3.976,3.976,0,0,0,92,111.513a1.209,1.209,0,0,1-1.154.676Z" transform="translate(-23.685 -30.262)"/>
        <path id="패스_198" data-name="패스 198" d="M58.187,106.615a9.868,9.868,0,0,0-1.274-2.407,4.817,4.817,0,0,1-.433-1.757c0,.328-.029.656-.032.987a6.379,6.379,0,0,0,.466,2.823c.325.665.861,1.25,1.13,1.927a4.41,4.41,0,0,0,.143-1.572Z" transform="translate(-23.685 -30.262)"/>
        <path id="패스_199" data-name="패스 199" d="M92.861,100.384c-.533,2.553-1.364,5.153-1.107,7.713a50.209,50.209,0,0,1,1.107-5.663,14.933,14.933,0,0,0,.34-4.342,17.905,17.905,0,0,1-.34,2.293Z" transform="translate(-23.685 -30.262)"/>
      </g>
      <g id="그룹_9" data-name="그룹 9" opacity="0.8">
        <line id="선_7" data-name="선 7" x2="183.023" transform="translate(96.639 85.058)" fill="none" stroke="#3f3d56" stroke-miterlimit="10" stroke-width="0.878"/>
        <path id="패스_200" data-name="패스 200" d="M136.584,115.317s8.752,1.215,4.219-8.175,12.3-7.613,12.3-7.613" transform="translate(-23.685 -30.262)" fill="none" stroke="#3f3d56" stroke-miterlimit="10" stroke-width="0.878"/>
        <path id="패스_201" data-name="패스 201" d="M194.873,115.317s8.752-1.212,4.219,8.178,12.3,7.613,12.3,7.613" transform="translate(-23.685 -30.262)" fill="none" stroke="#3f3d56" stroke-miterlimit="10" stroke-width="0.878"/>
        <path id="패스_202" data-name="패스 202" d="M278.8,115.317s-8.755-1.212-4.219,8.178-12.3,7.613-12.3,7.613" transform="translate(-23.685 -30.262)" fill="none" stroke="#3f3d56" stroke-miterlimit="10" stroke-width="0.878"/>
        <line id="선_8" data-name="선 8" x1="48.293" transform="translate(190.305 100.843)" fill="none" stroke="#3f3d56" stroke-miterlimit="10" stroke-width="0.878"/>
        <circle id="타원_28" data-name="타원 28" cx="5.344" cy="5.344" r="5.344" transform="translate(91.295 79.714)" fill="#3c59fd"/>
        <circle id="타원_29" data-name="타원 29" cx="5.344" cy="5.344" r="5.344" transform="translate(124.163 63.847)" fill="#3acc6c"/>
        <circle id="타원_30" data-name="타원 30" cx="5.344" cy="5.344" r="5.344" transform="translate(124.163 79.714)" fill="#3c59fd"/>
        <circle id="타원_31" data-name="타원 31" cx="5.344" cy="5.344" r="5.344" transform="translate(145.374 79.714)" fill="#3c59fd"/>
        <circle id="타원_32" data-name="타원 32" cx="5.344" cy="5.344" r="5.344" transform="translate(182.449 95.421)" fill="#ff6584"/>
        <circle id="타원_33" data-name="타원 33" cx="5.344" cy="5.344" r="5.344" transform="translate(210.465 95.421)" fill="#ff6584"/>
        <circle id="타원_34" data-name="타원 34" cx="5.344" cy="5.344" r="5.344" transform="translate(209.004 79.714)" fill="#3c59fd"/>
        <circle id="타원_35" data-name="타원 35" cx="5.344" cy="5.344" r="5.344" transform="translate(272.965 79.714)" fill="#3c59fd"/>
        <circle id="타원_36" data-name="타원 36" cx="5.344" cy="5.344" r="5.344" transform="translate(246.8 79.714)" fill="#3c59fd"/>
        <rect id="사각형_233" data-name="사각형 233" width="17.929" height="12.357" transform="translate(87.661 35.916)" fill="#3c59fd"/>
        <rect id="사각형_234" data-name="사각형 234" width="17.929" height="12.357" transform="translate(120.608 35.916)" fill="#3acc6c"/>
        <rect id="사각형_235" data-name="사각형 235" width="17.929" height="12.357" transform="translate(178.754 35.916)" fill="#ff6584"/>
      </g>
      <g id="그룹_10" data-name="그룹 10" opacity="0.1">
        <path id="패스_203" data-name="패스 203" d="M48.969,117.917s-21.893-9.206-24.763,7.405a4.042,4.042,0,0,0,.586,4.726s.448-1.148,2.562.038a10.885,10.885,0,0,0,2.389.972,5.376,5.376,0,0,0,3.4-.182h0s7.2-.389,13.255-9.809c0,0,2.6-1.6,2.726-2.208l-4.339.293s.334,3.177-1.464,5.083c0,0,1.593-4.931.829-5.069-.155-.029-2.293.252-2.293.252s.553,5.525-2.342,8.383c0,0,2.688-5.619,1.52-8.284l-3.2.618s.878,5.812-2.29,9.191c0,0,2.606-5.973,1.6-9.007l-3.066,1.031s.738,5.683-1.912,8.491c0,0,2.313-7.206,1.224-8.2a15.958,15.958,0,0,0-3.347,1.757s.436,4.1-1.247,5.578c0,0,1.034-4.978.521-5.183,0,0-3.2,2.413-4.181,4.495a12.145,12.145,0,0,1,3.78-4.978,6.74,6.74,0,0,0-3.807.536s1.107-2.111,4.582-1.11c0,0,2.574-1.783,3.089-1.757,0,0-3.288-1.464-5.663-1.283,0,0,2.547-1.464,6.465.981l3.06-1.1s-4.246-2.176-6.372-2.167c0,0,2.829-1.1,7.165,1.95l3.133-.638a24.914,24.914,0,0,0-5.883-2.653s2.84-.451,6.787,2.5l2.14-.179s-2.591-1.528-3.376-1.9-.75-.612-.75-.612a10.216,10.216,0,0,1,5.019,2.4S48.952,118.189,48.969,117.917Z" transform="translate(-23.685 -30.262)" fill="#3c59fd"/>
      </g>
      <g id="그룹_11" data-name="그룹 11" opacity="0.1">
        <path id="패스_204" data-name="패스 204" d="M48.161,101.414S40.408,83.474,29.237,91.7a3.324,3.324,0,0,0-2.342,3.133s.919-.427,1.5,1.485a8.814,8.814,0,0,0,.878,1.935,4.392,4.392,0,0,0,2.123,1.83h0s4.5,3.871,13.469,1.725c0,0,2.46.524,2.878.243L45,99.748a5.9,5.9,0,0,1-3.774,2.179s3.757-2.02,3.382-2.539c-.076-.105-1.508-1.154-1.508-1.154s-2.817,3.6-6.149,3.651c0,0,4.8-1.81,5.622-4.055l-2.255-1.464s-2.843,3.956-6.65,4.161c0,0,4.951-2.064,6.082-4.442l-2.41-1.133s-2.8,3.807-5.965,3.95c0,0,5.481-2.963,5.4-4.173a12.713,12.713,0,0,0-3-.855s-2.07,2.679-3.918,2.6c0,0,3.452-2.369,3.265-2.782,0,0-3.279-.392-5.045.293a9.992,9.992,0,0,1,5.08-.8A5.5,5.5,0,0,0,30.6,91.342s1.862-.624,3.356,1.947a12.783,12.783,0,0,1,2.84.714,12.027,12.027,0,0,0-2.635-3.988s2.342.586,3.279,4.266l2.448,1.086s-1.283-3.713-2.553-4.916c0,0,2.3.96,3.148,5.241l2.225,1.4a20.537,20.537,0,0,0-1.982-4.928s1.944,1.353,2.6,5.355L44.7,98.636s-.671-2.383-.925-3.051-.1-.791-.1-.791a8.389,8.389,0,0,1,1.608,4.3S47.994,101.564,48.161,101.414Z" transform="translate(-23.685 -30.262)" fill="#3c59fd"/>
      </g>
    </g>
  </g>
</svg>
