<svg xmlns="http://www.w3.org/2000/svg" xmlns:xlink="http://www.w3.org/1999/xlink" width="304" height="246" viewBox="0 0 304 246">
  <defs>
    <clipPath id="clip-path">
      <rect id="사각형_45" data-name="사각형 45" width="304" height="246" transform="translate(432 294)" fill="#fff" stroke="#707070" stroke-width="1"/>
    </clipPath>
    <linearGradient id="linear-gradient" x1="0.5" y1="1" x2="0.5" y2="-0.001" gradientUnits="objectBoundingBox">
      <stop offset="0" stop-color="gray" stop-opacity="0.251"/>
      <stop offset="0.54" stop-color="gray" stop-opacity="0.122"/>
      <stop offset="1" stop-color="gray" stop-opacity="0.102"/>
    </linearGradient>
  </defs>
  <g id="마스크_그룹_1" data-name="마스크 그룹 1" transform="translate(-432 -294)" clip-path="url(#clip-path)">
    <g id="undraw_programming_2svr" transform="translate(431.997 336.099)">
      <path id="패스_9" data-name="패스 9" d="M303.867,178.416q-.508,1.095-1.013,2.16-.788,1.655-1.556,3.246c-.228.47-.455.931-.677,1.393-2.511,5.13-4.855,9.666-6.846,13.4a21.374,21.374,0,0,1-18.629,11.3l-44.274.482H230.4l-3.8.041-3.246.035-9.955.108H213l-5.068.055h-.155l-31.239.339-27.884.292-3.244.035-20.144.219h-.023l-13.065.14h-.14l-41.311.447-12.358.134a25.711,25.711,0,0,1-7.786-1.115A25.221,25.221,0,0,1,39.174,203.9,58.373,58.373,0,0,1,27.4,183.823q-.563-1.6-1.051-3.246c-8.995-30.407,1.971-69.636,21.706-95.888q1.241-1.647,2.522-3.211l.02-.023a80.886,80.886,0,0,1,20.124-18.1C83.568,55.5,97.8,53.284,111.8,59.879A91.888,91.888,0,0,0,145.423,68.8c1.083.07,2.166.123,3.244.155,24.591.774,47.637-8.087,74.7-13.806,1.077-.228,2.158-.453,3.246-.666,19.307-3.842,40.724-5.868,66.194-1.609a55.2,55.2,0,0,1,7.813,1.868q1.685.543,3.246,1.168c12.157,4.946,18.787,14.084,21.6,25.534q.4,1.594.692,3.244C331.158,112.228,316.529,151.3,303.867,178.416Z" transform="translate(-23.163 -50.481)" fill="#3c59fd" opacity="0.1"/>
      <g id="그룹_5" data-name="그룹 5" opacity="0.1">
        <path id="패스_10" data-name="패스 10" d="M70.722,63.353V212.136l-12.358.134a25.713,25.713,0,0,1-7.786-1.115V81.454h.02A80.544,80.544,0,0,1,70.722,63.353Z" transform="translate(-23.163 -50.481)" fill="#3c59fd"/>
        <path id="패스_11" data-name="패스 11" d="M326.177,84.689H48.055q1.241-1.647,2.522-3.211v-.023H325.486Q325.885,83.039,326.177,84.689Z" transform="translate(-23.163 -50.481)" fill="#3c59fd"/>
        <path id="패스_12" data-name="패스 12" d="M303.867,55.911V180.574h-1.013q-.788,1.655-1.556,3.246c-.228.47-.455.931-.677,1.393V54.732Q302.3,55.275,303.867,55.911Z" transform="translate(-23.163 -50.481)" fill="#3c59fd"/>
        <path id="패스_13" data-name="패스 13" d="M226.614,54.472V210.446l-3.246.035V55.138C224.445,54.91,225.525,54.685,226.614,54.472Z" transform="translate(-23.163 -50.481)" fill="#3c59fd"/>
        <path id="패스_14" data-name="패스 14" d="M148.666,68.944V211.292l-3.244.035V68.789C146.506,68.859,147.589,68.9,148.666,68.944Z" transform="translate(-23.163 -50.481)" fill="#3c59fd"/>
        <path id="패스_15" data-name="패스 15" d="M302.854,180.576q-.788,1.655-1.556,3.246H27.4q-.563-1.6-1.051-3.246Z" transform="translate(-23.163 -50.481)" fill="#3c59fd"/>
      </g>
      <rect id="사각형_36" data-name="사각형 36" width="5.547" height="16.834" transform="translate(61.776 77.609)" fill="#3f3d56"/>
      <rect id="사각형_37" data-name="사각형 37" width="5.547" height="17.809" transform="translate(211.059 76.733)" fill="#3f3d56"/>
      <path id="패스_16" data-name="패스 16" d="M251.981,155.8v3.8L207.629,160l-.473.009-16.857.155-.4.006-5.124.044h-.152l-31.233.289-51.269.476h-.044l-13.036.123-.14,0-57.923.531v-4.379L44.6,149.084l27.326-.228.584,0,.193,0,.584-.009,13.12-.108.587,0,.187,0,.584,0,4.207-.035.111,0,10.379-.088h.085l80.987-.683,1.982-.015h.2l1.512-.015,10.992-.09.584-.009.54-.006h.28l3.419-.026.677-.009.908-.006,2.847-.026,4.516-.038.584-.006,1.016-.006h.19l21.812-.187Z" fill="#65617d"/>
      <path id="패스_17" data-name="패스 17" d="M251.981,155.8v3.8L207.629,160l-.473.009-16.857.155-.4.006-5.124.044h-.152l-31.233.289-51.269.476h-.044l-13.036.123-.14,0-57.923.531v-4.379L44.6,149.084l27.326-.228.584,0,.193,0,.584-.009,13.12-.108.587,0,.187,0,.584,0,4.207-.035.111,0,10.379-.088h.085l80.987-.683,1.982-.015h.2l1.512-.015,10.992-.09.584-.009.54-.006h.28l3.419-.026.677-.009.908-.006,2.847-.026,4.516-.038.584-.006,1.016-.006h.19l21.812-.187Z" opacity="0.2"/>
      <path id="패스_18" data-name="패스 18" d="M109.609,191.685v7.15a1.79,1.79,0,0,1-1.022,1.617,1.752,1.752,0,0,1-.73.175l-10.189.216a1.752,1.752,0,0,1-.788-.166,1.787,1.787,0,0,1-1.042-1.626v-7.366Z" transform="translate(-23.163 -50.481)" fill="#3f3d56"/>
      <path id="패스_19" data-name="패스 19" d="M109.609,191.685v7.15a1.79,1.79,0,0,1-1.022,1.617,1.752,1.752,0,0,1-.73.175l-10.189.216a1.752,1.752,0,0,1-.788-.166,1.787,1.787,0,0,1-1.042-1.626v-7.366Z" transform="translate(-23.163 -50.481)" opacity="0.1"/>
      <path id="패스_20" data-name="패스 20" d="M110.193,191.685v7.15a1.79,1.79,0,0,1-1.022,1.617,1.751,1.751,0,0,1-.73.175l-10.189.216a1.752,1.752,0,0,1-.788-.166,1.787,1.787,0,0,1-1.042-1.626v-7.366Z" transform="translate(-23.163 -50.481)" fill="#3f3d56"/>
      <rect id="사각형_38" data-name="사각형 38" width="13.771" height="9.196" transform="translate(198.797 141.204)" fill="#3f3d56"/>
      <rect id="사각형_39" data-name="사각형 39" width="13.771" height="9.196" transform="translate(198.797 141.204)" opacity="0.1"/>
      <rect id="사각형_40" data-name="사각형 40" width="13.771" height="9.196" transform="translate(198.213 141.204)" fill="#3f3d56"/>
      <path id="패스_21" data-name="패스 21" d="M67.324,77.606v1.673l-5.547-.143v-1.53Z" opacity="0.1"/>
      <path id="패스_22" data-name="패스 22" d="M127,80.96l-6.665,47.88a1.255,1.255,0,0,1-1.276,1.083l-53.368-1.384-1.013-.026a1.255,1.255,0,0,1-1.215-1.422L70.944,76.97a1.255,1.255,0,0,1,1.325-1.06l53.561,3.626A1.252,1.252,0,0,1,127,80.96Z" transform="translate(-23.163 -50.481)" fill="#65617d"/>
      <path id="패스_23" data-name="패스 23" d="M51.363,28.95,45.719,73.13l49.047,1.556L100.8,32.062Z" fill="#3c59fd"/>
      <rect id="사각형_41" data-name="사각형 41" width="59.753" height="50.604" rx="1.556" transform="translate(112.284 28.267)" fill="#65617d"/>
      <rect id="사각형_42" data-name="사각형 42" width="54.303" height="42.137" transform="translate(115.104 31.674)" fill="#3c59fd"/>
      <path id="패스_24" data-name="패스 24" d="M216.606,76.73v1.106l-5.547.114V76.73Z" opacity="0.1"/>
      <path id="패스_25" data-name="패스 25" d="M264.8,126.277a.9.9,0,0,1-.876.958l-54.653,1.13a.9.9,0,0,1-.914-.815l-4.7-48.837a.9.9,0,0,1,.852-.984l54.238-2.7.584-.029a.9.9,0,0,1,.94.817Z" transform="translate(-23.163 -50.481)" fill="#65617d"/>
      <path id="패스_26" data-name="패스 26" d="M183.616,30.117l49.535-2.435,4.184,44.376-49.144,1.168Z" fill="#3c59fd"/>
      <path id="패스_27" data-name="패스 27" d="M264.8,126.277a.9.9,0,0,1-.876.958l-5.173-52.2.584-.029a.9.9,0,0,1,.94.817Z" transform="translate(-23.163 -50.481)" opacity="0.1"/>
      <path id="패스_28" data-name="패스 28" d="M72.278,75.907l-6.589,52.633-1.013-.026a1.255,1.255,0,0,1-1.215-1.422L70.944,76.97A1.255,1.255,0,0,1,72.278,75.907Z" transform="translate(-23.163 -50.481)" opacity="0.1"/>
      <rect id="사각형_43" data-name="사각형 43" width="5.547" height="4.986" transform="translate(61.776 89.456)" opacity="0.1"/>
      <path id="패스_29" data-name="패스 29" d="M87.03,141.2v1.451l-13.771.368V141.2Z" opacity="0.1"/>
      <path id="패스_30" data-name="패스 30" d="M134.5,141.674V190.78a1.168,1.168,0,0,1-1.124,1.153l-55.952,1.489h-.015a1.168,1.168,0,0,1-1.153-1.153V141.674a1.168,1.168,0,0,1,1.153-1.153h55.937a1.168,1.168,0,0,1,1.153,1.153Z" transform="translate(-23.163 -50.481)" fill="#65617d"/>
      <path id="패스_31" data-name="패스 31" d="M77.422,140.521v52.9h-.015a1.168,1.168,0,0,1-1.153-1.153V141.674a1.168,1.168,0,0,1,1.153-1.153Z" transform="translate(-23.163 -50.481)" opacity="0.1"/>
      <path id="패스_32" data-name="패스 32" d="M56.813,93.176h51.821v43.281l-51.821,1.168Z" fill="#d4dfec"/>
      <rect id="사각형_44" data-name="사각형 44" width="5.547" height="5.086" transform="translate(211.059 89.456)" opacity="0.1"/>
      <path id="패스_33" data-name="패스 33" d="M211.984,141.2v1.871l-13.771-.368v-1.5Z" opacity="0.1"/>
      <path id="패스_34" data-name="패스 34" d="M253.321,141.674v50.595a1.168,1.168,0,0,1-1.168,1.153h0l-55.964-1.489a1.168,1.168,0,0,1-1.124-1.153V141.674a1.168,1.168,0,0,1,1.153-1.153h55.938a1.168,1.168,0,0,1,1.165,1.153Z" transform="translate(-23.163 -50.481)" fill="#65617d"/>
      <path id="패스_35" data-name="패스 35" d="M253.321,141.674v50.595a1.168,1.168,0,0,1-1.168,1.153h0v-52.9h0a1.168,1.168,0,0,1,1.168,1.153Z" transform="translate(-23.163 -50.481)" opacity="0.1"/>
      <path id="패스_36" data-name="패스 36" d="M226.436,93.176H174.615v43.281l51.821,1.168Z" fill="#d4dfec"/>
      <path id="패스_37" data-name="패스 37" d="M193.618,141.674V190.78a1.168,1.168,0,0,1-1.124,1.153l-55.952,1.489h0a1.168,1.168,0,0,1-1.168-1.153V141.674a1.168,1.168,0,0,1,1.153-1.153h55.937A1.168,1.168,0,0,1,193.618,141.674Z" transform="translate(-23.163 -50.481)" fill="#65617d"/>
      <path id="패스_38" data-name="패스 38" d="M115.933,93.176h51.821v43.281l-51.821,1.168Z" fill="#d4dfec"/>
      <path id="패스_39" data-name="패스 39" d="M251.981,155.8v3.8L207.629,160l-.473.009-16.857.155-.4.006-5.124.044h-.152l-31.233.289-51.269.476h-.044l-13.036.123-.14,0-57.923.531v-4.379L90.1,156.87h.14l11.967-.082h.055l82.645-.546h.085l.05,0h.137l1.4-.009H187l21.747-.146,1.285-.006.286,0Z" opacity="0.1"/>
      <circle id="타원_9" data-name="타원 9" cx="14.986" cy="14.986" r="14.986" transform="translate(127.269 64.471)" fill="#fbbebe"/>
      <path id="패스_40" data-name="패스 40" d="M112.033,211.69a.362.362,0,0,1,.029-.1c.292-1.048.812-2.82,1.2-4.236.05-.175.1-.347.14-.511.429-1.6,1.264-5.337,1.728-7.67.163-.82.292-1.46.318-1.781a48.6,48.6,0,0,1,1.933-5.03c.7-1.7,1.46-3.568,2.017-5.138a17.917,17.917,0,0,0,.855-2.876,1.489,1.489,0,0,0,0-.622,4.288,4.288,0,0,1-.14-1.022h0a12.064,12.064,0,0,1,1.308-5.871c1.022-1.46,1.752-6.908,1.752-6.908s1.512.219,1.752-1.031a1.8,1.8,0,0,0,.029-.409,2.164,2.164,0,0,0-.026-.324c-.26-1.822,4.3-3.76,6.861-4.178a5.739,5.739,0,0,1,.876-.082,7.952,7.952,0,0,0,1.825-.42q.409-.126.876-.292c1.074-.362,2.359-.841,3.722-1.366,5.127-1.988,11.333-4.671,11.333-4.671.044-.207.093-.406.149-.6a8.09,8.09,0,0,1,4.773-5.527h0v-.584c0-1.007-.044-2.044-.088-3.077,0-.2-.018-.4-.029-.6v-.33c0-.2-.02-.409-.032-.61l-.053-.041A4.791,4.791,0,0,1,154,144.55a4.457,4.457,0,0,1-.415-.876,26.757,26.757,0,0,1-.695-3.138l-.053-.216a24.524,24.524,0,0,0-1.168-3.089c-.645-1.582-1.142-3.211-1.635-4.861q-.45-1.5-.908-3l-.461-1.53c-.088-.292-.175-.584-.242-.876h0a3.877,3.877,0,0,1-.076-.409h0a2.919,2.919,0,0,1,.07-1.346,9.371,9.371,0,0,1,.385-.876,2.3,2.3,0,0,0,.146-.4h0a.878.878,0,0,0,.023-.093,1.648,1.648,0,0,0,.032-.315,5.39,5.39,0,0,0-.152-1.136.02.02,0,0,1,0-.015.743.743,0,0,0-.015-.079,7.445,7.445,0,0,1-.105-.876,8.306,8.306,0,0,1,1.013-4.546l.055-.105a7.363,7.363,0,0,1,.537-.812h0a4.1,4.1,0,0,1,.292-.356,1.166,1.166,0,0,1-1.62-.42,1.116,1.116,0,0,1-.067-.131c-.015-.035-.026-.073-.038-.111a2.385,2.385,0,0,1,.619-2.058A5.4,5.4,0,0,1,151.2,111.5h0a1.125,1.125,0,0,1,.117-.061,5,5,0,0,1,.771-.309h0a4.4,4.4,0,0,1,.476-.128l-1.083-.1-.438-.041a4.23,4.23,0,0,1,3.8-3.185h.315a3.424,3.424,0,0,1,.458.038,1.3,1.3,0,0,1-.774-1.264,4.207,4.207,0,0,0,2.683.893h.111a8.759,8.759,0,0,1-.1-.955h0a9.684,9.684,0,0,1,0-1.3,2.464,2.464,0,0,0,1.979.66l-.607-.847a2.771,2.771,0,0,0,1.915.6l.14-.015a2.043,2.043,0,0,0,.347-.067h.026c-.055-.07-.105-.143-.155-.219l-.018-.035a2.824,2.824,0,0,1-.292-.61,1.926,1.926,0,0,1-.07-.254h0a2.554,2.554,0,0,1,.131-1.591c.943.788,1.976,1.866,3.211,1.051s1.276-2.309,3.211-2.158a2.978,2.978,0,0,1,2.455,1.787,1.971,1.971,0,0,1,2.239-.511,2,2,0,0,1,1.133,2.012,4.035,4.035,0,0,1,2.438-.1,1.423,1.423,0,0,1,.829,1.944.418.418,0,0,1-.041.058c-.359.464-1.153.718-1.069,1.3l.123.088.38.274q2.233,1.612,4.35,3.387a3.521,3.521,0,0,1,1.544,2.286,2.523,2.523,0,0,1-.07.692h0c-.047.228-.111.455-.161.683a5.7,5.7,0,0,0-.1,1.766h0c.02.172.047.342.079.514.447,2.257,2.251,4.119,2.429,6.423v.163a5.188,5.188,0,0,1-.02.739,15.761,15.761,0,0,1-1.308,4.087c-.032.082-.064.163-.093.245a40.67,40.67,0,0,0-2.044,8.221,29.265,29.265,0,0,1-.584,2.946,7.8,7.8,0,0,1-1.486,3.045,4.736,4.736,0,0,1-.981.876,5.452,5.452,0,0,1-.774.412v.018c.032.178.058.356.09.534.018.093.032.187.05.292h0a.04.04,0,0,0,0,.018c.245,1.381.525,2.733.82,4.017l.149.639c3.679,1.328,4.114,4.049,4.14,5.092a2.812,2.812,0,0,1,0,.417s5.547.146,7.737,1.752a5.937,5.937,0,0,0,1.317.671,24.232,24.232,0,0,0,2.7.844c.47.123.961.242,1.46.359.876.2,1.8.4,2.7.584,2.391.482,4.642.876,5.784,1.168,2.724.689,8.954,6.662,8.954,6.662s.73,6.026,1.46,6.9a26.042,26.042,0,0,1,2.044,3.968l4.829,8.586,2.044,3.611h1.314a2.233,2.233,0,0,1,.937.613c.347.309.733.695,1.071,1.045l.561.6.35.388s2.122.053,2.7,1.731a13.177,13.177,0,0,1,5.337.73,4.13,4.13,0,0,1,.584.315,2.534,2.534,0,0,1,1.206,1.652,2.438,2.438,0,0,1,.053.42c0,.166,0,.333,0,.5a8.141,8.141,0,0,1-2.867,5.287l.093.166s-.044.105-.128.292c-.023.055-.053.117-.085.187h0c-.172.368-.447.92-.806,1.565a18.484,18.484,0,0,1-2.794,3.845l-.085.088-16.857.155-.05-.058-3.27-3.9-1.626-1.939-.05-.061-.047.464-.158,1.547-.38,3.74-.02.187v.05l-.044.432.032-.432h-.085l-31.239.292-51.272.566v.245h-.041v-.245l-13.065.14Z" transform="translate(-23.163 -50.481)" fill="url(#linear-gradient)"/>
      <path id="패스_41" data-name="패스 41" d="M180.407,160.593s-29.049,3.5-26.275,0c1-1.267,1.282-5.022,1.226-9.3-.018-1.3-.064-2.645-.131-3.985-.321-6.423-1.095-12.7-1.095-12.7s25.4-11.97,22.48-2.482c-1.168,3.833-.785,9.217.1,14.27.26,1.474.561,2.919.876,4.292a100.626,100.626,0,0,0,2.817,9.9Z" transform="translate(-23.163 -50.481)" fill="#fbbebe"/>
      <path id="패스_42" data-name="패스 42" d="M180.407,160.593s-29.049,3.5-26.275,0c1-1.267,1.282-5.022,1.226-9.3,4.429-1.892,10.063-.482,10.063-.482,5.932-1.182,9.737-.952,12.168-.123a100.626,100.626,0,0,0,2.817,9.9Z" transform="translate(-23.163 -50.481)" opacity="0.1"/>
      <path id="패스_43" data-name="패스 43" d="M125.27,211.792v-.245l51.272-.558,31.239-.292h.088l-.032.432.044-.432h.055v-.05l.4-3.927.152-1.486.047-.464.041-.388,1.8-6.017,1.8-6.008L213.7,187.3l2.318-7.731a25.941,25.941,0,0,0-2.044-3.941c-.73-.876-1.46-6.861-1.46-6.861s-6.23-5.935-8.954-6.618c-1.142-.292-3.4-.68-5.789-1.168-.9-.181-1.816-.374-2.7-.584-.5-.114-.99-.234-1.46-.353a25.66,25.66,0,0,1-2.7-.835,6.042,6.042,0,0,1-1.314-.669c-2.146-1.574-7.524-1.752-7.731-1.752h0a.124.124,0,0,1,0-.02v-.026a2.992,2.992,0,0,0,0-.368,2.345,2.345,0,0,0-.026-.409.368.368,0,0,0-.02-.146c-.015-.105-.032-.216-.058-.333a1.454,1.454,0,0,0-.035-.155,5.025,5.025,0,0,0-.365-1.019c-.02-.047-.047-.1-.07-.143a5.327,5.327,0,0,0-.5-.768c-.038-.05-.079-.1-.123-.152a5.715,5.715,0,0,0-.794-.771c-.079-.061-.161-.126-.245-.184a1.362,1.362,0,0,0-.149-.105l-.26-.169-.242-.14c-.213-.117-.438-.231-.683-.339-.076-.035-.158-.067-.239-.1l-.318-.123h-.018l-.219-.088c-.166-.055-.336-.105-.514-.155l-.272-.07-.292-.067-.292-.061c-.292-.058-.6-.111-.931-.152l-.333-.041-.342-.035-.353-.029-.5-.029-.584-.02a36.408,36.408,0,0,0-7.664.815,21.1,21.1,0,0,0-5.328-.491h-.254l-.292.018h-.187l-.377.035a2.8,2.8,0,0,0-.38.044c-.126.018-.257.032-.382.053l-.193.032c-.19.032-.382.067-.584.108q-.1.018-.193.044c-.254.055-.508.123-.759.2-.126.035-.251.076-.377.12-.064.018-.126.041-.187.064l-.187.067-.184.073-.219.088c-.111.047-.219.1-.327.149-.061.026-.123.055-.181.088s-.12.058-.175.09a8.1,8.1,0,0,0-1.813,1.279l-.149.143-.146.149c-.05.05-.1.1-.143.155a6.953,6.953,0,0,0-.531.657c-.047.061-.09.123-.134.187a7.791,7.791,0,0,0-.5.852c-.038.07-.073.143-.108.213a9.546,9.546,0,0,0-.584,1.533q-.082.292-.149.584s-6.181,2.727-11.307,4.7c-1.363.525-2.648,1-3.722,1.36l-.876.292a7.8,7.8,0,0,1-1.825.42,5.741,5.741,0,0,0-.876.082c-2.356.382-6.394,2.044-6.835,3.711a1.077,1.077,0,0,0-.029.409s0,.02,0,.032c.292,2.044-1.752,1.752-1.752,1.752s-.73,5.4-1.752,6.861a11.492,11.492,0,0,0-1.308,5.165h0a5.725,5.725,0,0,0,.128,1.644v.041a7.207,7.207,0,0,1-.639,2.829c-.517,1.5-1.27,3.372-1.994,5.135a59.815,59.815,0,0,0-2.184,5.611c-.026.236-.1.66-.207,1.206-.426,2.225-1.372,6.461-1.839,8.175-.347,1.279-.852,3.03-1.2,4.233a.41.41,0,0,1-.029.1l13.088-.128v.245h.041Z" transform="translate(-23.163 -50.481)" fill="#3c59fd"/>
      <path id="패스_44" data-name="패스 44" d="M130.046,177.38s16.641,8.613,22.626,7.591Z" transform="translate(-23.163 -50.481)" opacity="0.1"/>
      <path id="패스_45" data-name="패스 45" d="M163.912,173.876s16.2,5.255,21.6,5.985S163.912,173.876,163.912,173.876Z" transform="translate(-23.163 -50.481)" opacity="0.1"/>
      <path id="패스_46" data-name="패스 46" d="M181.884,156.967c-8.467,1.559-24.407,1.223-31.3.987,2.525-9.05,14.84-5.973,14.84-5.973C180.67,148.938,181.838,155.25,181.884,156.967Z" transform="translate(-23.163 -50.481)" opacity="0.1"/>
      <path id="패스_47" data-name="패스 47" d="M181.884,156.383c-8.467,1.559-24.407,1.223-31.3.987,2.525-9.05,14.84-5.973,14.84-5.973C180.67,148.354,181.838,154.666,181.884,156.383Z" transform="translate(-23.163 -50.481)" fill="#3c59fd"/>
      <path id="패스_48" data-name="패스 48" d="M226.827,196.283S236.8,194.751,237,199.13s-5.086,7.439-5.086,7.439Z" transform="translate(-23.163 -50.481)" fill="#fbbebe"/>
      <path id="패스_49" data-name="패스 49" d="M176.714,146.4a13.727,13.727,0,0,1-1.314.508,46.922,46.922,0,0,1-9.634,2.578,15.742,15.742,0,0,1-9.681-1.606,8.4,8.4,0,0,1-.876-.569c-.321-6.423-1.095-12.7-1.095-12.7s25.4-11.97,22.48-2.482C175.432,135.961,175.826,141.344,176.714,146.4Z" transform="translate(-23.163 -50.481)" opacity="0.1"/>
      <path id="패스_50" data-name="패스 50" d="M161.308,106.515a2.765,2.765,0,0,1-2.429-.511l.607.844a2.473,2.473,0,0,1-1.979-.657,9.95,9.95,0,0,0,.093,2.263,4.239,4.239,0,0,1-2.791-.876,1.29,1.29,0,0,0,.771,1.258,4.187,4.187,0,0,0-4.554,3.127l1.524.14a5.392,5.392,0,0,0-3.048,1.86,2.362,2.362,0,0,0-.619,2.044c.2.712,1.191,1.168,1.728.66a8.157,8.157,0,0,0-1.781,6.654,4.224,4.224,0,0,1,.134,1.536,13.023,13.023,0,0,1-.552,1.369,4.326,4.326,0,0,0,.245,2.628l1.369,4.5c.5,1.626.99,3.255,1.638,4.829a23.964,23.964,0,0,1,1.168,3.068c.368,1.413.382,2.96,1.168,4.2a5.819,5.819,0,0,0,2.1,1.848,15.749,15.749,0,0,0,9.681,1.606,46.89,46.89,0,0,0,9.62-2.578,9.05,9.05,0,0,0,2-.876c2.175-1.425,2.66-4.338,3.065-6.9a39.206,39.206,0,0,1,2.128-8.408c.636-1.6,1.46-3.229,1.32-4.946-.178-2.28-1.982-4.128-2.429-6.37a5.547,5.547,0,0,1,.02-2.268,5.156,5.156,0,0,0,.231-1.372,3.5,3.5,0,0,0-1.544-2.268q-2.356-1.968-4.864-3.719c-.085-.584.709-.835,1.069-1.3.508-.651-.018-1.685-.788-1.988a4.035,4.035,0,0,0-2.438.1,1.924,1.924,0,0,0-3.372-1.492,2.978,2.978,0,0,0-2.458-1.775c-1.936-.152-1.974,1.328-3.211,2.143s-2.26-.26-3.211-1.042A2.709,2.709,0,0,0,161.308,106.515Z" transform="translate(-23.163 -50.481)" fill="#3f3d56"/>
      <path id="패스_51" data-name="패스 51" d="M234.222,205.042s-.26.619-.739,1.515a20.144,20.144,0,0,1-2.628,3.845l-.079.085H230.3l-16.857.155h-.4l-.05-.058-3.27-3.88-1.232-1.463-.05-.061-.105-.123-.058-.07-.076-.09-2.4-2.844.876-3.649,1.492-6.148.038-.149.292-1.168.207-.876.695-2.855,2.382-9.824,4.233,2.19,4.464,7.883,2.4,4.233H224.2c.248,0,.817.479,1.39,1.031.2.2.409.4.584.584.52.537.931,1,.931,1s2.128.047,2.7,1.723a2.043,2.043,0,0,1,.073.248,11.767,11.767,0,0,0,.739,1.915c.377.82.85,1.752,1.328,2.683.89,1.708,1.8,3.334,2.128,3.924l.041.073Z" transform="translate(-23.163 -50.481)" fill="#3c59fd"/>
      <path id="패스_52" data-name="패스 52" d="M209.144,191.86l-.029.417v.029l-.05.671-.388,5.4-.47,6.51-.134,1.833-.292,3.924v.05l-31.239.292-51.263.555v.245h-.041v-.327l.131-4.192.251-8.192.216-6.945.02-.692a3.074,3.074,0,0,1,3.334-2.969c1.378.117,3.168.26,5.308.412l.876.064a472.774,472.774,0,0,0,58.244.584c.485-.026.972-.055,1.46-.091,3.573-.225,7.144-.514,10.68-.876a3.074,3.074,0,0,1,3.387,3.279Z" transform="translate(-23.163 -50.481)" opacity="0.1"/>
      <path id="패스_53" data-name="패스 53" d="M125.27,211.792v-.245l51.272-.558,31.239-.292h.088v-.05l.292-3.924.126-1.752.479-6.6.377-5.226v-.128a3.1,3.1,0,0,0-.032-.721.088.088,0,0,0,0-.029,3.033,3.033,0,0,0-.584-1.355,3.077,3.077,0,0,0-2.75-1.168c-3.535.362-7.106.651-10.68.876-.488.035-.975.064-1.46.09a478.711,478.711,0,0,1-58.244-.584l-.876-.064c-2.14-.152-3.93-.292-5.308-.412a3.077,3.077,0,0,0-3.282,2.49,3.213,3.213,0,0,0-.053.479l-.2,6.47-.272,8.195-.128,4.192v.327Z" transform="translate(-23.163 -50.481)" fill="#3f3d56"/>
      <path id="패스_54" data-name="패스 54" d="M209.231,193.907l-.359,4.476-.534,6.671-.134,1.67-.292,3.74-.018.187v.05h0l-.044.432.032-.432H207.8l-31.239.292-51.281.555v-.082l.143-4.192.292-8.192.187-5.445a1.857,1.857,0,0,1,.893-1.533,1.825,1.825,0,0,1,1.1-.263c.613.05,1.366.108,2.245.172,1.428.105,3.188.228,5.238.356,3.8.239,8.557.5,14.014.707a456.231,456.231,0,0,0,55.143-.925c.876-.076,1.781-.161,2.665-.245a1.828,1.828,0,0,1,1.016.193,1.505,1.505,0,0,1,.251.158,1.792,1.792,0,0,1,.584.718,1.041,1.041,0,0,1,.073.178A1.833,1.833,0,0,1,209.231,193.907Z" transform="translate(-23.163 -50.481)" opacity="0.1"/>
      <path id="패스_55" data-name="패스 55" d="M110.193,197.9v.931a1.79,1.79,0,0,1-1.022,1.617l-11.707.225a1.787,1.787,0,0,1-1.042-1.626v-.876Z" transform="translate(-23.163 -50.481)" opacity="0.1"/>
      <path id="패스_56" data-name="패스 56" d="M87.176,150.52l-15.254.292v-2.531l15.254-.292Z" fill="#3f3d56"/>
      <path id="패스_57" data-name="패스 57" d="M87.176,150.52l-15.254.292v-2.531l15.254-.292Z" opacity="0.1"/>
      <path id="패스_58" data-name="패스 58" d="M87.76,150.52l-15.254.292v-2.531l15.254-.292Z" fill="#3f3d56"/>
      <g id="그룹_6" data-name="그룹 6" opacity="0.1">
        <path id="패스_59" data-name="패스 59" d="M161.428,105.557a2.847,2.847,0,0,1-.552-1.267,2.771,2.771,0,0,0,.123,1.343A2.627,2.627,0,0,0,161.428,105.557Z" transform="translate(-23.163 -50.481)"/>
        <path id="패스_60" data-name="패스 60" d="M157.72,107.5a10.258,10.258,0,0,1-.108-1.08c0,.359,0,.721,0,1.083Z" transform="translate(-23.163 -50.481)"/>
        <path id="패스_61" data-name="패스 61" d="M181.514,117.238a5.352,5.352,0,0,1,.105-.774,5.255,5.255,0,0,0,.234-1.369,1.8,1.8,0,0,0-.047-.309c-.05.269-.128.537-.187.8a5.588,5.588,0,0,0-.105,1.65Z" transform="translate(-23.163 -50.481)"/>
        <path id="패스_62" data-name="패스 62" d="M175.441,108.217l.318.231a5.755,5.755,0,0,0,.75-.648,1.071,1.071,0,0,0,.111-1.063.875.875,0,0,1-.111.187C176.151,107.385,175.356,107.639,175.441,108.217Z" transform="translate(-23.163 -50.481)"/>
        <path id="패스_63" data-name="패스 63" d="M151.452,111.025a3.6,3.6,0,0,0-.254.666,5.3,5.3,0,0,1,1.46-.552Z" transform="translate(-23.163 -50.481)"/>
        <path id="패스_64" data-name="패스 64" d="M155.478,107.849a4.33,4.33,0,0,1-.549-.359,1.24,1.24,0,0,0,.026.345,3.464,3.464,0,0,1,.523.015Z" transform="translate(-23.163 -50.481)"/>
        <path id="패스_65" data-name="패스 65" d="M184.021,125.051a15.034,15.034,0,0,1-1.314,4.122,39.187,39.187,0,0,0-2.128,8.411c-.406,2.566-.876,5.48-3.065,6.9a8.758,8.758,0,0,1-1.994.876,46.738,46.738,0,0,1-9.634,2.578,15.741,15.741,0,0,1-9.681-1.6,5.839,5.839,0,0,1-2.1-1.848c-.779-1.235-.794-2.782-1.168-4.2a24,24,0,0,0-1.168-3.071c-.645-1.571-1.142-3.211-1.635-4.826q-.686-2.251-1.369-4.5a8.412,8.412,0,0,1-.333-1.387,5.233,5.233,0,0,0,.333,2.263q.683,2.257,1.369,4.5c.493,1.626.99,3.255,1.635,4.826a24,24,0,0,1,1.168,3.071c.368,1.413.382,2.96,1.168,4.2a5.839,5.839,0,0,0,2.1,1.848,15.751,15.751,0,0,0,9.681,1.6,47.087,47.087,0,0,0,9.634-2.578,8.758,8.758,0,0,0,1.994-.876c2.175-1.422,2.66-4.335,3.065-6.9a39.187,39.187,0,0,1,2.128-8.411c.636-1.6,1.46-3.226,1.32-4.946C184.027,125.086,184.021,125.068,184.021,125.051Z" transform="translate(-23.163 -50.481)"/>
        <path id="패스_66" data-name="패스 66" d="M149.078,123.921v-.032a4.087,4.087,0,0,0-.134-1.533,7.762,7.762,0,0,1-.114-.969,7.985,7.985,0,0,0,.114,1.845C148.99,123.46,149.043,123.69,149.078,123.921Z" transform="translate(-23.163 -50.481)"/>
        <path id="패스_67" data-name="패스 67" d="M149.969,116.78a8.1,8.1,0,0,1,.762-1.071c-.534.511-1.521.055-1.728-.654a1.7,1.7,0,0,0,0,.876,1.282,1.282,0,0,0,.966.85Z" transform="translate(-23.163 -50.481)"/>
      </g>
      <path id="패스_68" data-name="패스 68" d="M222.886,191.685a12.685,12.685,0,0,1,0,6.277C221.96,200.882,222.886,191.685,222.886,191.685Z" transform="translate(-23.163 -50.481)" opacity="0.1"/>
      <path id="패스_69" data-name="패스 69" d="M226.827,195.11s.388,4.262-.488,5.019S226.827,195.11,226.827,195.11Z" transform="translate(-23.163 -50.481)" opacity="0.1"/>
      <line id="선_4" data-name="선 4" y1="0.292" x2="29.665" transform="translate(58.095 99.806)" fill="none" stroke="#3c59fd" stroke-miterlimit="10" stroke-width="0.584"/>
      <line id="선_5" data-name="선 5" y1="0.289" x2="29.665" transform="translate(58.095 103.449)" fill="none" stroke="#3c59fd" stroke-miterlimit="10" stroke-width="0.584"/>
      <line id="선_6" data-name="선 6" y1="0.292" x2="29.665" transform="translate(58.095 107.09)" fill="none" stroke="#3c59fd" stroke-miterlimit="10" stroke-width="0.584"/>
    </g>
  </g>
</svg>
