<?xml version="1.0" encoding="UTF-8" standalone="no"?>
<svg
   xmlns:dc="http://purl.org/dc/elements/1.1/"
   xmlns:cc="http://creativecommons.org/ns#"
   xmlns:rdf="http://www.w3.org/1999/02/22-rdf-syntax-ns#"
   xmlns:svg="http://www.w3.org/2000/svg"
   xmlns="http://www.w3.org/2000/svg"
   xmlns:sodipodi="http://sodipodi.sourceforge.net/DTD/sodipodi-0.dtd"
   xmlns:inkscape="http://www.inkscape.org/namespaces/inkscape"
   version="1.1"
   id="svg2"
   xml:space="preserve"
   width="151.18134"
   height="75.59053"
   viewBox="0 0 151.18134 75.59053"
   sodipodi:docname="카카오톡로고.ai"><metadata
     id="metadata8"><rdf:RDF><cc:Work
         rdf:about=""><dc:format>image/svg+xml</dc:format><dc:type
           rdf:resource="http://purl.org/dc/dcmitype/StillImage" /></cc:Work></rdf:RDF></metadata><defs
     id="defs6"><clipPath
       clipPathUnits="userSpaceOnUse"
       id="clipPath20"><path
         d="M 0,56.693 H 113.386 V 0 H 0 Z"
         id="path18" /></clipPath></defs><sodipodi:namedview
     pagecolor="#ffffff"
     bordercolor="#666666"
     borderopacity="1"
     objecttolerance="10"
     gridtolerance="10"
     guidetolerance="10"
     inkscape:pageopacity="0"
     inkscape:pageshadow="2"
     inkscape:window-width="640"
     inkscape:window-height="480"
     id="namedview4" /><g
     id="g10"
     inkscape:groupmode="layer"
     inkscape:label="카카오톡로고"
     transform="matrix(1.3333333,0,0,-1.3333333,0,75.590533)"><path
       d="m 17.125,0 h 73.75 v 56.693 h -73.75 z"
       style="fill:#fee702;fill-opacity:1;fill-rule:nonzero;stroke:none"
       id="path12" /><g
       id="g14"><g
         id="g16"
         clip-path="url(#clipPath20)"><g
           id="g22"
           transform="translate(54.0698,53.3848)"><path
             d="m 0,0 c -14.517,0 -26.282,-9.373 -26.282,-20.934 0,-7.349 4.758,-13.81 11.952,-17.545 l -1.986,-10.293 11.366,7.281 c 1.603,-0.244 3.257,-0.376 4.95,-0.376 14.516,0 26.284,9.372 26.284,20.933 C 26.284,-9.373 14.516,0 0,0"
             style="fill:#341a1b;fill-opacity:1;fill-rule:nonzero;stroke:none"
             id="path24" /></g><g
           id="g26"
           transform="translate(43.231,38.9209)"><path
             d="m 0,0 h -7.731 c -0.619,0 -1.123,-0.48 -1.123,-1.072 0,-0.591 0.504,-1.075 1.123,-1.075 h 2.739 v -9.078 c 0,-0.703 0.528,-1.278 1.174,-1.278 0.644,0 1.168,0.575 1.168,1.278 v 9.078 H 0 c 0.622,0 1.127,0.484 1.127,1.075 C 1.127,-0.48 0.622,0 0,0"
             style="fill:#fee702;fill-opacity:1;fill-rule:nonzero;stroke:none"
             id="path28" /></g><g
           id="g30"
           transform="translate(46.3335,30.9297)"><path
             d="M 0,0 1.788,4.023 3.578,0 Z M 7.388,-2.72 2.98,7.204 c 0,0 -10e-4,0.001 -10e-4,0.003 C 2.923,7.333 2.679,7.631 2.43,7.812 2.428,7.813 2.424,7.813 2.422,7.817 2.362,7.859 2.301,7.896 2.243,7.92 2.239,7.922 2.239,7.92 2.239,7.922 2.232,7.926 2.229,7.927 2.223,7.931 2.086,7.991 1.938,8.022 1.788,8.025 1.639,8.022 1.49,7.991 1.352,7.931 1.347,7.927 1.344,7.926 1.338,7.922 1.337,7.92 1.337,7.922 1.335,7.92 1.276,7.896 1.215,7.858 1.154,7.817 1.152,7.813 1.15,7.813 1.147,7.812 0.899,7.633 0.654,7.333 0.6,7.207 L -3.81,-2.72 c -0.14,-0.312 -0.16,-0.66 -0.05,-0.97 0.104,-0.314 0.323,-0.559 0.616,-0.688 0.141,-0.063 0.295,-0.095 0.452,-0.095 0.488,0 0.943,0.311 1.153,0.788 l 0.798,1.795 h 0.142 5.116 l 0.797,-1.795 c 0.213,-0.477 0.668,-0.788 1.157,-0.788 0.157,0 0.309,0.032 0.451,0.095 0.293,0.129 0.509,0.374 0.617,0.688 0.106,0.31 0.09,0.658 -0.051,0.97"
             style="fill:#fee702;fill-opacity:1;fill-rule:nonzero;stroke:none"
             id="path32" /></g><g
           id="g34"
           transform="translate(62.3682,28.4473)"><path
             d="m 0,0 h -5.232 v 9.016 c 0,0.716 -0.536,1.296 -1.194,1.296 -0.657,0 -1.191,-0.58 -1.191,-1.296 v -9.97 h 0.01 c 0.041,-0.779 0.411,-1.137 1.181,-1.137 H 0 c 0.549,0 0.995,0.47 0.995,1.047 C 0.995,-0.47 0.549,0 0,0"
             style="fill:#fee702;fill-opacity:1;fill-rule:nonzero;stroke:none"
             id="path36" /></g><g
           id="g38"
           transform="translate(73.3887,28.6406)"><path
             d="m 0,0 -3.812,4.808 2.929,2.974 c 0.617,0.623 0.745,1.497 0.29,1.947 -0.176,0.173 -0.418,0.265 -0.697,0.265 -0.426,0 -0.891,-0.217 -1.245,-0.579 L -6.681,5.229 v 3.464 c 0,0.846 -0.586,1.537 -1.301,1.537 -0.717,0 -1.302,-0.691 -1.302,-1.537 V -0.81 c 0,-0.849 0.585,-1.539 1.302,-1.539 0.715,0 1.301,0.69 1.301,1.539 v 2.706 l 1.142,1.16 3.622,-4.573 c 0.317,-0.399 0.775,-0.642 1.221,-0.642 0.253,0 0.483,0.079 0.668,0.225 0.253,0.199 0.394,0.512 0.403,0.874 C 0.38,-0.693 0.247,-0.315 0,0"
             style="fill:#fee702;fill-opacity:1;fill-rule:nonzero;stroke:none"
             id="path40" /></g></g></g></g></svg>
